<?xml version="1.0" encoding="utf-8"?>
<!-- Generator: Adobe Illustrator 19.1.0, SVG Export Plug-In . SVG Version: 6.00 Build 0)  -->
<svg version="1.1" id="Layer_1" xmlns="http://www.w3.org/2000/svg" xmlns:xlink="http://www.w3.org/1999/xlink" x="0px" y="0px"
	 viewBox="-234.6 382 123.5 29" style="enable-background:new -234.6 382 123.5 29;" xml:space="preserve">
<style type="text/css">
	.st0{fill:#FFFFFF;}
</style>
<g>
	<g>
		<g>
			<path class="st0" d="M-230,391.8h-2.8v-2.6h8.3v2.6h-2.8v11.7h-2.7V391.8z"/>
			<path class="st0" d="M-222,399c0.1,0.7,1.1,2.2,3,2.2c1.1,0,2-0.5,2.5-1.4h2.7c-0.6,1.9-2.7,3.7-5.2,3.7c-3.2,0-5.7-2.5-5.7-5.7
				c0-3.1,2.3-5.8,5.6-5.8c3.4,0,5.6,2.9,5.6,5.7c0,0.5-0.1,0.9-0.2,1.3H-222z M-216.2,397c-0.3-1.7-1.6-2.5-2.9-2.5
				c-0.9,0-2.5,0.5-3.1,2.5H-216.2z"/>
			<path class="st0" d="M-209.4,397.7l-3.5-5.4h3l2.1,3.4l2-3.4h3l-3.5,5.4l4,5.8h-3.2l-2.4-3.8l-2.4,3.8h-3.2L-209.4,397.7z"/>
			<path class="st0" d="M-196.3,395.3c-0.2-0.9-0.8-1-1.1-1c-0.7,0-1,0.5-1,1c0,0.7,0.5,0.8,1.9,1.3c1.4,0.4,3.1,1.1,3.1,3.4
				c0,2.5-2,3.9-3.9,3.9c-1.1,0-2.5-0.4-3.4-1.5c-0.7-0.8-0.8-1.7-0.8-2.4h2.8c0.1,0.5,0.4,1.4,1.5,1.4c0.9,0,1.2-0.7,1.2-1.1
				c0-0.8-0.6-1-2.5-1.7c-1.3-0.4-2.5-1.4-2.5-3.2c0-2.2,2-3.5,3.8-3.5c1.7,0,3.6,1.2,3.7,3.4H-196.3z"/>
			<path class="st0" d="M-185.6,392.2h2.5v0.9l0,0c0.2-0.4,1-1.3,2.9-1.4c0.6,0,2.2,0.1,3.2,1.8c1.2-1.7,2.8-1.8,3.6-1.8
				c2.2,0,3.3,1.2,3.7,1.7c0.4,0.6,0.8,1.7,0.8,3.3v6.6h-2.7v-6.2c0-0.7,0-2.9-2.1-2.9c-0.8,0-1.5,0.4-1.9,1
				c-0.4,0.7-0.4,1.8-0.4,2.5v5.6h-2.7v-6.2c0-1.5-0.6-2.9-2.3-2.9c-2.1,0-2.1,2.4-2.1,3.5v5.6h-2.7L-185.6,392.2z"/>
			<path class="st0" d="M-191.2,389.2h2.7v2.5h-2.7V389.2z M-191.2,392.2h2.7v11.2h-2.7V392.2z"/>
		</g>
	</g>
	<g>
		<path class="st0" d="M-156.2,397.7c0,1.6-0.7,3.1-1.9,4.2c-1.4,1.2-2.9,1.5-4.6,1.5h-3.1V392h3.1c1.6,0,3.1,0.3,4.5,1.3
			C-156.9,394.4-156.2,396.1-156.2,397.7z M-157.3,397.7c0-1.5-0.6-2.7-1.8-3.6c-1.3-1-2.6-1-4.1-1h-1.4v9.3h1.4c1.5,0,2.8,0,4.1-1
			C-157.9,400.5-157.3,399.2-157.3,397.7z"/>
		<path class="st0" d="M-153.4,403.4h-1.1V392h1.1V403.4z"/>
		<path class="st0" d="M-139.6,398.2c-0.2,3.1-2.9,5.4-6,5.4c-3.3,0-6.1-2.6-6.1-5.9c0-1.5,0.7-3,1.8-4.1c1.2-1.2,2.7-1.7,4.3-1.7
			c2.1,0,4.7,1.2,5.3,3.2h-1.3c-0.8-1.3-2.4-2.1-4-2.1c-1.2,0-2.4,0.4-3.4,1.3c-0.9,0.8-1.6,2.2-1.6,3.5c0,2.8,2.3,4.8,5,4.8
			c2,0,4-1.3,4.6-3.3h-6.4v-1L-139.6,398.2L-139.6,398.2z"/>
		<path class="st0" d="M-136.8,403.4h-1.1V392h1.1V403.4z"/>
		<path class="st0" d="M-129.3,393.1h-2.6v10.3h-1.1v-10.3h-2.6v-1h6.3L-129.3,393.1L-129.3,393.1z"/>
		<path class="st0" d="M-119.4,403.4h-1.2l-1.6-3.8h-5.3l-1.6,3.8h-1.2l4.9-11.4h1.3l3.4,7.9L-119.4,403.4z M-122.8,398.6l-2.2-5.2
			l-2.2,5.2H-122.8z"/>
		<path class="st0" d="M-112.4,403.4h-5.8V392h1.1v10.3h4.7L-112.4,403.4L-112.4,403.4z"/>
	</g>
</g>
</svg>
