<?xml version="1.0" encoding="utf-8"?>
<!-- Generator: Adobe Illustrator 24.0.0, SVG Export Plug-In . SVG Version: 6.00 Build 0)  -->
<svg version="1.1" id="Layer_1" xmlns="http://www.w3.org/2000/svg" xmlns:xlink="http://www.w3.org/1999/xlink" x="0px" y="0px"
	 viewBox="0 0 102 103" style="enable-background:new 0 0 102 103;" xml:space="preserve">
<style type="text/css">
	.st0{fill:#00B1F0;}
	.st1{fill:#FFFFFF;}
</style>
<g>
	<path class="st0" d="M91.27,51.5c0,22.24-18.03,40.27-40.27,40.27c-22.24,0-40.27-18.03-40.27-40.27
		c0-22.24,18.03-40.27,40.27-40.27C73.24,11.23,91.27,29.26,91.27,51.5z"/>
	<path class="st1" d="M28.72,45.95c2.86-12.06,14.95-19.53,27.03-16.67c9.74,2.31,23.52,12.78,24.45,34.13
		c-0.07,0-7.24-9.89-7.3-9.89c-0.1,0.93-0.26,1.86-0.48,2.79c-2.86,12.06-14.96,19.53-27.02,16.67
		C33.32,70.11,25.86,58.01,28.72,45.95z M50.69,44.05c-3.9-0.06-7.11,3.06-7.16,6.95c-0.06,3.9,3.06,7.1,6.96,7.15
		c3.89,0.06,7.1-3.05,7.16-6.95C57.7,47.31,54.59,44.11,50.69,44.05z"/>
</g>
</svg>
