<?xml version="1.0" encoding="UTF-8" standalone="no"?>
<svg
   xmlns:dc="http://purl.org/dc/elements/1.1/"
   xmlns:cc="http://creativecommons.org/ns#"
   xmlns:rdf="http://www.w3.org/1999/02/22-rdf-syntax-ns#"
   xmlns:svg="http://www.w3.org/2000/svg"
   xmlns="http://www.w3.org/2000/svg"
   height="68.637802"
   width="319.81879"
   xml:space="preserve"
   viewBox="0 0 319.81879 68.637804"
   y="0px"
   x="0px"
   id="Layer_1"
   version="1.1"><metadata
     id="metadata27"><rdf:RDF><cc:Work
         rdf:about=""><dc:format>image/svg+xml</dc:format><dc:type
           rdf:resource="http://purl.org/dc/dcmitype/StillImage" /><dc:title></dc:title></cc:Work></rdf:RDF></metadata><defs
     id="defs25" /><style
     id="style3"
     type="text/css">
	.st0{fill:#FFFFFF;}
</style><g
     transform="translate(-13.081221,-25.580976)"
     style="fill:#ffffff"
     id="g4174"><g
       id="g5"
       style="fill:#ffffff"><path
         class="st0"
         d="M 13.9,52.4 C 18.1,34 36.4,22.3 54.9,26.4 69.8,29.7 91.1,45.4 93,78 92.9,78 81.7,63 81.6,63 81.5,64.4 81.2,65.9 80.9,67.3 76.9,85.8 58.5,97.5 40,93.4 21.5,89.3 9.8,71 13.9,52.4 Z m 33.6,-3.3 c -6,0 -10.8,4.8 -10.8,10.8 0,6 4.8,10.8 10.8,10.8 6,0 10.8,-4.8 10.8,-10.8 0,-6 -4.9,-10.8 -10.8,-10.8 z"
         id="path7"
         style="fill:#ffffff" /></g><g
       id="g9"
       style="fill:#ffffff"><path
         class="st0"
         d="m 114.2,44.3 -9.9,0 0,-9.3 29.8,0 0,9.3 -10,0 0,41.7 -9.9,0 0,-41.7 z"
         id="path11"
         style="fill:#ffffff" /><path
         class="st0"
         d="m 142.7,70.1 c 0.4,2.5 4,7.9 10.6,7.9 4.1,0 7.1,-1.7 8.8,-4.9 l 9.7,0 c -2.2,6.9 -9.5,13.3 -18.5,13.3 -11.4,0 -20.3,-9.1 -20.3,-20.3 0,-10.9 8.3,-20.8 20.2,-20.8 12.2,0 19.9,10.5 19.9,20.2 0,1.8 -0.3,3.4 -0.6,4.6 l -29.8,0 z m 20.9,-7.4 c -1,-6.1 -5.8,-9 -10.3,-9 -3.4,0 -9.1,1.9 -10.9,9 l 21.2,0 z"
         id="path13"
         style="fill:#ffffff" /><path
         class="st0"
         d="m 187.8,65.3 -12.4,-19.4 10.8,0 7.4,12.1 7.3,-12.1 10.8,0 -12.4,19.4 14.2,20.7 -11.4,0 -8.6,-13.7 -8.6,13.7 -11.4,0 14.3,-20.7 z"
         id="path15"
         style="fill:#ffffff" /><path
         class="st0"
         d="m 234.5,56.8 c -0.7,-3.2 -2.8,-3.5 -3.8,-3.5 -2.4,0 -3.7,1.8 -3.7,3.5 0,2.3 1.7,2.8 6.8,4.5 5,1.5 11.2,3.9 11.2,12 0,9 -7.1,14 -14,14 -4,0 -8.9,-1.4 -12,-5.3 -2.4,-3 -2.8,-6.2 -3,-8.7 l 9.9,0 c 0.4,1.8 1.3,5.1 5.3,5.1 3.1,0 4.3,-2.4 4.3,-4 0,-3 -2.2,-3.7 -9,-6 -4.5,-1.5 -9,-4.9 -9,-11.5 0,-7.8 7,-12.4 13.4,-12.4 6,0 12.7,4.3 13.1,12.3 l -9.5,0 z"
         id="path17"
         style="fill:#ffffff" /><path
         class="st0"
         d="m 272.8,45.9 8.8,0 0,3.4 0.1,0 c 0.8,-1.3 3.6,-4.8 10.5,-4.8 2.2,0 7.8,0.5 11.6,6.3 4.2,-6 10.1,-6.3 12.9,-6.3 7.9,0 11.8,4.2 13.2,6.2 1.6,2.1 3,5.9 3,11.9 l 0,23.4 -9.6,0 0,-22.3 c 0,-2.3 0,-10.4 -7.6,-10.4 -2.7,0 -5.3,1.4 -6.7,3.7 -1.5,2.4 -1.4,6.4 -1.4,8.9 l 0,20 -9.6,0 0,-22.2 c 0,-5.5 -2.1,-10.4 -8,-10.4 -7.6,0 -7.6,8.4 -7.6,12.6 l 0,20 -9.6,0 0,-40 z"
         id="path19"
         style="fill:#ffffff" /><path
         class="st0"
         d="m 252.9,35 9.6,0 0,8.8 -9.6,0 0,-8.8 z m 0,10.9 9.6,0 0,40.1 -9.6,0 0,-40.1 z"
         id="path21"
         style="fill:#ffffff" /></g></g></svg>