<?xml version="1.0" encoding="utf-8"?>
<!-- Generator: Adobe Illustrator 24.0.0, SVG Export Plug-In . SVG Version: 6.00 Build 0)  -->
<svg version="1.1" id="Layer_1" xmlns="http://www.w3.org/2000/svg" xmlns:xlink="http://www.w3.org/1999/xlink" x="0px" y="0px"
	 viewBox="0 0 145.21 145.21" style="enable-background:new 0 0 145.21 145.21;" xml:space="preserve">
<style type="text/css">
	.st0{fill:#757575;}
	.st1{fill:#00B0EF;}
</style>
<g>
	<g>
		<path class="st0" d="M52.24,113.78v-10.81h1.97v4.7l2.13-4.7h1.88l-2.07,4.84l2.28,5.97h-1.96l-1.87-5.09l-0.39,0.7v4.38H52.24z"
			/>
		<path class="st0" d="M59.99,113.78v-10.81h4.53v1.39h-2.56v3.1h2.02v1.39h-2.02v3.57h2.59v1.36H59.99z"/>
		<path class="st0" d="M67.41,113.78v-9.36h-1.81v-1.45h5.54v1.45h-1.75v9.36H67.41z"/>
		<path class="st0" d="M73.72,113.78v-9.36H71.9v-1.45h5.54v1.45h-1.75v9.36H73.72z"/>
		<path class="st0" d="M78.97,113.78v-10.81h4.53v1.39h-2.56v3.1h2.02v1.39h-2.02v3.57h2.59v1.36H78.97z"/>
		<path class="st0" d="M85.33,113.78v-10.81h1.36l2.65,6.12v-6.12h1.63v10.81h-1.29L87,107.34v6.44H85.33z"/>
	</g>
	<g transform="translate(0,-952.36218)">
		<path class="st1" d="M64.02,983.79c-2.97,0-5.33,2.29-5.67,5.03c-1.82,0.07-3.79,0.44-5.47,1.3c-1.9,0.97-3.47,2.6-3.86,4.98
			l-7.15,42.17c-0.07,0.39,0.18,0.76,0.57,0.84c0.05,0.01,0.1,0.01,0.15,0.01h7.86c0.34,0,0.63-0.25,0.69-0.58l4.85-24.88
			l3.04,24.82c0.03,0.37,0.34,0.65,0.71,0.65h25.73c0.37,0,0.68-0.28,0.71-0.65l3.04-24.82l4.85,24.88
			c0.06,0.33,0.35,0.58,0.69,0.58h7.86c0.39,0.01,0.72-0.31,0.73-0.7c0-0.05,0-0.1-0.01-0.15l-7.15-42.17
			c-0.4-2.38-1.97-4.02-3.86-4.98c-1.69-0.86-3.65-1.22-5.47-1.3c-0.35-2.74-2.7-5.03-5.67-5.03H64.02z M64.02,985.22h17.16
			c2.29,0,4.02,1.82,4.22,3.91c-3.17,1.53-6.1,3.38-8.4,5.16c-1.36,1.05-2.44,2.03-3.33,2.93c0.23-0.89,0.57-1.81,1.01-2.73
			c0.86-1.78,2.06-3.43,3.35-4.4c0.32-0.23,0.39-0.68,0.16-1c-0.14-0.19-0.36-0.3-0.59-0.3H67.6c-0.39,0-0.72,0.31-0.72,0.71
			c0,0.23,0.11,0.45,0.3,0.59c1.29,0.97,2.49,2.63,3.35,4.4c0.44,0.91,0.77,1.84,1.01,2.73c-0.89-0.9-1.97-1.87-3.33-2.93
			c-2.3-1.78-5.23-3.64-8.4-5.16C60,987.04,61.74,985.22,64.02,985.22z M58.89,990.22c3.2,1.5,6.13,3.42,8.44,5.2
			c2.25,1.74,3.88,3.4,4.56,4.36v36.9h-11.5l-3.51-28.68c-0.05-0.39-0.41-0.67-0.8-0.62c-0.3,0.04-0.54,0.26-0.61,0.55l-5.61,28.75
			h-6.43l7.01-41.35c0.32-1.9,1.47-3.13,3.08-3.95C55.1,990.58,57.09,990.24,58.89,990.22z M69.3,990.22h6.61
			c-0.98,1.06-1.87,2.28-2.52,3.64c-0.33,0.69-0.55,1.38-0.78,2.08c-0.23-0.7-0.45-1.39-0.78-2.08
			C71.17,992.51,70.28,991.29,69.3,990.22z M86.32,990.22c1.79,0.02,3.79,0.36,5.36,1.16c1.61,0.82,2.77,2.05,3.08,3.95l7.01,41.35
			h-6.43l-5.61-28.75c-0.09-0.39-0.47-0.63-0.85-0.54c-0.3,0.07-0.52,0.31-0.55,0.61l-3.51,28.68h-11.5v-36.93
			c0.68-0.96,2.31-2.6,4.56-4.33C80.19,993.64,83.12,991.72,86.32,990.22z M77.47,1003.81c-0.39,0.04-0.68,0.39-0.65,0.78
			c0.04,0.39,0.39,0.68,0.78,0.65h7.15c0.39,0.01,0.72-0.31,0.72-0.7c0.01-0.39-0.31-0.72-0.7-0.72c-0.01,0-0.01,0-0.02,0h-7.15
			C77.56,1003.8,77.52,1003.8,77.47,1003.81z M66.1,1021.65c-0.31,0.03-0.57,0.27-0.63,0.58c-0.66,3.03-1.18,4.49-3.4,6.81
			c-0.3,0.26-0.34,0.71-0.08,1.01c0.26,0.3,0.71,0.34,1.01,0.08c0.04-0.03,0.07-0.07,0.1-0.11c2.35-2.47,3.07-4.41,3.75-7.51
			c0.09-0.38-0.15-0.77-0.54-0.86C66.25,1021.65,66.18,1021.65,66.1,1021.65z M78.95,1021.65c-0.39,0.05-0.67,0.41-0.62,0.8
			c0,0.02,0.01,0.05,0.01,0.07c0.68,3.1,1.4,5.04,3.75,7.51c0.24,0.31,0.69,0.37,1,0.13c0.31-0.24,0.37-0.69,0.13-1
			c-0.03-0.04-0.07-0.08-0.1-0.11c-2.21-2.32-2.73-3.79-3.4-6.81C79.66,1021.87,79.32,1021.61,78.95,1021.65z"/>
	</g>
</g>
</svg>
