<?xml version="1.0" encoding="utf-8"?>
<!-- Generator: Adobe Illustrator 24.0.0, SVG Export Plug-In . SVG Version: 6.00 Build 0)  -->
<svg version="1.1" xmlns="http://www.w3.org/2000/svg" xmlns:xlink="http://www.w3.org/1999/xlink" x="0px" y="0px"
	 viewBox="0 0 145.21 145.21" style="enable-background:new 0 0 145.21 145.21;" xml:space="preserve">
<style type="text/css">
	.st0{display:none;}
	.st1{display:inline;}
	.st2{fill:#757575;}
	.st3{fill:#00B0EF;}
</style>
<g id="Layer_1" class="st0">
	<g class="st1">
		<g>
			<path class="st2" d="M52.24,113.78v-10.81h1.97v4.7l2.13-4.7h1.88l-2.07,4.84l2.28,5.97h-1.96l-1.87-5.09l-0.39,0.7v4.38H52.24z"
				/>
			<path class="st2" d="M59.99,113.78v-10.81h4.53v1.39h-2.56v3.1h2.02v1.39h-2.02v3.57h2.59v1.36H59.99z"/>
			<path class="st2" d="M67.41,113.78v-9.36h-1.81v-1.45h5.54v1.45h-1.75v9.36H67.41z"/>
			<path class="st2" d="M73.72,113.78v-9.36H71.9v-1.45h5.54v1.45h-1.75v9.36H73.72z"/>
			<path class="st2" d="M78.97,113.78v-10.81h4.53v1.39h-2.56v3.1h2.02v1.39h-2.02v3.57h2.59v1.36H78.97z"/>
			<path class="st2" d="M85.33,113.78v-10.81h1.36l2.65,6.12v-6.12h1.63v10.81h-1.29L87,107.34v6.44H85.33z"/>
		</g>
		<g transform="translate(0,-952.36218)">
			<path class="st3" d="M64.02,983.79c-2.97,0-5.33,2.29-5.67,5.03c-1.82,0.07-3.79,0.44-5.47,1.3c-1.9,0.97-3.47,2.6-3.86,4.98
				l-7.15,42.17c-0.07,0.39,0.18,0.76,0.57,0.84c0.05,0.01,0.1,0.01,0.15,0.01h7.86c0.34,0,0.63-0.25,0.69-0.58l4.85-24.88
				l3.04,24.82c0.03,0.37,0.34,0.65,0.71,0.65h25.73c0.37,0,0.68-0.28,0.71-0.65l3.04-24.82l4.85,24.88
				c0.06,0.33,0.35,0.58,0.69,0.58h7.86c0.39,0.01,0.72-0.31,0.73-0.7c0-0.05,0-0.1-0.01-0.15l-7.15-42.17
				c-0.4-2.38-1.97-4.02-3.86-4.98c-1.69-0.86-3.65-1.22-5.47-1.3c-0.35-2.74-2.7-5.03-5.67-5.03H64.02z M64.02,985.22h17.16
				c2.29,0,4.02,1.82,4.22,3.91c-3.17,1.53-6.1,3.38-8.4,5.16c-1.36,1.05-2.44,2.03-3.33,2.93c0.23-0.89,0.57-1.81,1.01-2.73
				c0.86-1.78,2.06-3.43,3.35-4.4c0.32-0.23,0.39-0.68,0.16-1c-0.14-0.19-0.36-0.3-0.59-0.3H67.6c-0.39,0-0.72,0.31-0.72,0.71
				c0,0.23,0.11,0.45,0.3,0.59c1.29,0.97,2.49,2.63,3.35,4.4c0.44,0.91,0.77,1.84,1.01,2.73c-0.89-0.9-1.97-1.87-3.33-2.93
				c-2.3-1.78-5.23-3.64-8.4-5.16C60,987.04,61.74,985.22,64.02,985.22z M58.89,990.22c3.2,1.5,6.13,3.42,8.44,5.2
				c2.25,1.74,3.88,3.4,4.56,4.36v36.9h-11.5l-3.51-28.68c-0.05-0.39-0.41-0.67-0.8-0.62c-0.3,0.04-0.54,0.26-0.61,0.55l-5.61,28.75
				h-6.43l7.01-41.35c0.32-1.9,1.47-3.13,3.08-3.95C55.1,990.58,57.09,990.24,58.89,990.22z M69.3,990.22h6.61
				c-0.98,1.06-1.87,2.28-2.52,3.64c-0.33,0.69-0.55,1.38-0.78,2.08c-0.23-0.7-0.45-1.39-0.78-2.08
				C71.17,992.51,70.28,991.29,69.3,990.22z M86.32,990.22c1.79,0.02,3.79,0.36,5.36,1.16c1.61,0.82,2.77,2.05,3.08,3.95l7.01,41.35
				h-6.43l-5.61-28.75c-0.09-0.39-0.47-0.63-0.85-0.54c-0.3,0.07-0.52,0.31-0.55,0.61l-3.51,28.68h-11.5v-36.93
				c0.68-0.96,2.31-2.6,4.56-4.33C80.19,993.64,83.12,991.72,86.32,990.22z M77.47,1003.81c-0.39,0.04-0.68,0.39-0.65,0.78
				c0.04,0.39,0.39,0.68,0.78,0.65h7.15c0.39,0.01,0.72-0.31,0.72-0.7c0.01-0.39-0.31-0.72-0.7-0.72c-0.01,0-0.01,0-0.02,0h-7.15
				C77.56,1003.8,77.52,1003.8,77.47,1003.81z M66.1,1021.65c-0.31,0.03-0.57,0.27-0.63,0.58c-0.66,3.03-1.18,4.49-3.4,6.81
				c-0.3,0.26-0.34,0.71-0.08,1.01c0.26,0.3,0.71,0.34,1.01,0.08c0.04-0.03,0.07-0.07,0.1-0.11c2.35-2.47,3.07-4.41,3.75-7.51
				c0.09-0.38-0.15-0.77-0.54-0.86C66.25,1021.65,66.18,1021.65,66.1,1021.65z M78.95,1021.65c-0.39,0.05-0.67,0.41-0.62,0.8
				c0,0.02,0.01,0.05,0.01,0.07c0.68,3.1,1.4,5.04,3.75,7.51c0.24,0.31,0.69,0.37,1,0.13c0.31-0.24,0.37-0.69,0.13-1
				c-0.03-0.04-0.07-0.08-0.1-0.11c-2.21-2.32-2.73-3.79-3.4-6.81C79.66,1021.87,79.32,1021.61,78.95,1021.65z"/>
		</g>
	</g>
</g>
<g id="Layer_2" class="st0">
	<g class="st1">
		<g>
			<path class="st2" d="M50.37,113.7v-10.81h2.65c0.5,0,0.94,0.04,1.31,0.13c0.37,0.09,0.7,0.24,0.99,0.44
				c0.29,0.21,0.51,0.49,0.66,0.86s0.22,0.81,0.22,1.32c0,1.33-0.53,2.08-1.59,2.24c0.64,0.12,1.12,0.4,1.43,0.84
				c0.31,0.44,0.47,1.05,0.48,1.84c0,1.03-0.25,1.81-0.77,2.34c-0.52,0.53-1.27,0.8-2.26,0.8H50.37z M52.34,107.3h0.61
				c0.58,0,0.98-0.12,1.19-0.37c0.22-0.25,0.33-0.67,0.33-1.25c0-0.3-0.04-0.55-0.11-0.74c-0.07-0.19-0.19-0.33-0.36-0.43
				c-0.17-0.1-0.36-0.16-0.56-0.19s-0.48-0.05-0.82-0.05h-0.27V107.3z M52.34,112.31h0.72c0.59,0,0.99-0.14,1.22-0.41
				c0.23-0.27,0.34-0.73,0.34-1.36c0-0.65-0.13-1.13-0.38-1.42c-0.25-0.29-0.68-0.44-1.28-0.44h-0.62V112.31z"/>
			<path class="st2" d="M57.88,113.7l2.2-10.81h2.05l2.19,10.81h-1.83l-0.44-2.51h-1.87l-0.44,2.51H57.88z M60.39,109.9h1.45
				l-0.72-4.44L60.39,109.9z"/>
			<path class="st2" d="M66.73,113.7v-9.36h-1.81v-1.45h5.54v1.45H68.7v9.36H66.73z"/>
			<path class="st2" d="M72.04,113.7v-10.81h1.94v10.81H72.04z"/>
			<path class="st2" d="M79.04,113.83c-1.9,0-2.9-1.1-3-3.3l1.71-0.36c0.04,1.43,0.45,2.15,1.23,2.15c0.3,0,0.52-0.09,0.67-0.27
				s0.22-0.43,0.22-0.74c0-0.3-0.05-0.58-0.16-0.83s-0.23-0.45-0.38-0.61c-0.14-0.16-0.35-0.36-0.61-0.59l-1.42-1.23
				c-0.42-0.37-0.73-0.74-0.93-1.14s-0.31-0.89-0.31-1.48c0-0.84,0.25-1.49,0.74-1.96c0.49-0.47,1.17-0.7,2.03-0.71
				c0.4,0,0.75,0.04,1.05,0.15c0.3,0.1,0.55,0.24,0.75,0.41c0.2,0.17,0.36,0.39,0.5,0.64c0.13,0.26,0.23,0.52,0.3,0.8
				c0.07,0.28,0.11,0.58,0.14,0.92l-1.68,0.33c-0.01-0.22-0.02-0.41-0.04-0.57c-0.02-0.16-0.05-0.32-0.1-0.49
				c-0.05-0.17-0.11-0.3-0.19-0.4c-0.08-0.1-0.18-0.18-0.31-0.25c-0.13-0.06-0.28-0.08-0.45-0.07c-0.29,0.02-0.51,0.11-0.67,0.29
				c-0.16,0.18-0.23,0.41-0.23,0.71c0,0.35,0.07,0.63,0.21,0.86c0.14,0.22,0.35,0.46,0.64,0.72l1.41,1.23
				c0.23,0.21,0.44,0.42,0.61,0.62c0.17,0.2,0.34,0.43,0.5,0.69c0.16,0.26,0.28,0.54,0.36,0.85c0.08,0.31,0.12,0.63,0.12,0.98
				c0,0.79-0.25,1.43-0.75,1.92C80.51,113.59,79.85,113.83,79.04,113.83z"/>
			<path class="st2" d="M84.63,113.7v-9.36h-1.81v-1.45h5.54v1.45H86.6v9.36H84.63z"/>
			<path class="st2" d="M89.27,113.7l2.2-10.81h2.05l2.19,10.81h-1.83l-0.44-2.51h-1.87l-0.44,2.51H89.27z M91.78,109.9h1.45
				l-0.72-4.44L91.78,109.9z"/>
		</g>
		<path class="st3" d="M96.07,49.41c-2.05,0-3.72,1.67-3.72,3.72c0,1.35,0.72,2.52,1.79,3.18v2.05H51.07V56.3
			c1.07-0.65,1.79-1.83,1.79-3.18c0-2.05-1.67-3.72-3.72-3.72c-2.06,0-3.72,1.67-3.72,3.72c0,1.35,0.72,2.52,1.79,3.18v28.52
			c0,0.32,0.26,0.57,0.57,0.57h2.72c0.32,0,0.57-0.26,0.57-0.57v-4.44h43.07v4.44c0,0.32,0.26,0.57,0.57,0.57h2.72
			c0.32,0,0.57-0.26,0.57-0.57V56.3c1.07-0.65,1.79-1.83,1.79-3.18C99.79,51.07,98.13,49.41,96.07,49.41z M56.68,74.66h-5.62V64.07
			h5.62V74.66z M69.17,74.66h-5.62V64.07h5.62V74.66z M81.65,74.66h-5.62V64.07h5.62V74.66z M94.14,74.66h-5.62V64.07h5.62V74.66z"
			/>
		<path class="st3" d="M58.61,50.72h5.6c1.78,0,2.33-2.69,0.42-2.99c0.65-1.24-0.74-2.67-2.21-1.81c-0.74-2.3-4.44-1.61-4.13,0.9
			C55.82,47.27,56.38,50.72,58.61,50.72z"/>
		<path class="st3" d="M84.55,43.92c-0.09-0.27-0.13-0.4-0.31-0.4c-0.18,0-0.23,0.13-0.31,0.4l-0.82,2.54l-2.67-0.01
			c-0.28,0-0.42,0-0.48,0.17c-0.06,0.17,0.06,0.26,0.28,0.42l2.17,1.57l-0.83,2.54c-0.09,0.27-0.13,0.4,0.02,0.51
			c0.15,0.11,0.26,0.02,0.49-0.14l2.16-1.57l2.16,1.57c0.23,0.16,0.34,0.25,0.49,0.14c0.15-0.11,0.1-0.24,0.02-0.51l-0.83-2.54
			l2.17-1.57c0.23-0.16,0.34-0.25,0.28-0.42c-0.06-0.17-0.19-0.17-0.47-0.17l-2.67,0.01L84.55,43.92z"/>
		<path class="st3" d="M74.68,43.61c0.21-0.15,0.28-0.27,0.15-0.28c-0.08,0-0.16-0.01-0.24-0.01c-2.37,0-4.29,1.92-4.29,4.29
			c0,2.37,1.92,4.29,4.29,4.29c0.08,0,0.16,0,0.24-0.01c0.13-0.01,0.06-0.13-0.15-0.28c-1.24-0.9-2.04-2.36-2.04-4.01
			C72.64,45.97,73.45,44.51,74.68,43.61z"/>
		<path class="st3" d="M60.63,36.55v5.13c0,0.32,0.26,0.57,0.57,0.57c0.32,0,0.57-0.26,0.57-0.57v-5.6
			c2.97-1.49,6.56-2.33,10.26-2.4v7.43c0,0.32,0.26,0.57,0.57,0.57s0.57-0.26,0.57-0.57v-7.42c3.82,0.1,7.5,1.02,10.49,2.64v5.36
			c0,0.32,0.26,0.57,0.57,0.57c0.31,0,0.57-0.26,0.57-0.57v-5.01c0.33-0.05,0.64-0.24,0.83-0.56c0.31-0.55,0.12-1.25-0.43-1.56
			c-3.58-2.05-8.1-3.17-12.73-3.17c-4.58,0-8.89,1.05-12.48,3.03c-0.55,0.31-0.75,1-0.45,1.56C59.78,36.36,60.2,36.57,60.63,36.55z"
			/>
	</g>
</g>
<g id="Layer_3" class="st0">
</g>
<g id="Layer_4">
	<g>
		<g>
			<path class="st2" d="M46.05,114.26c-1.9,0-2.91-1.1-3-3.3l1.71-0.36c0.04,1.43,0.45,2.15,1.23,2.15c0.3,0,0.52-0.09,0.67-0.27
				c0.15-0.18,0.22-0.43,0.22-0.74c0-0.3-0.05-0.57-0.16-0.82c-0.11-0.25-0.24-0.46-0.38-0.61s-0.35-0.36-0.61-0.59l-1.42-1.23
				c-0.42-0.37-0.73-0.74-0.93-1.14c-0.2-0.39-0.31-0.88-0.31-1.48c0-0.84,0.25-1.49,0.74-1.96s1.17-0.7,2.03-0.71
				c0.4,0,0.75,0.04,1.05,0.15c0.3,0.1,0.56,0.24,0.75,0.41c0.2,0.17,0.36,0.38,0.5,0.64c0.13,0.26,0.23,0.52,0.3,0.8
				c0.07,0.28,0.11,0.58,0.14,0.92l-1.68,0.33c-0.01-0.22-0.02-0.41-0.04-0.57s-0.05-0.32-0.1-0.49c-0.05-0.16-0.11-0.3-0.19-0.4
				s-0.18-0.18-0.31-0.24s-0.28-0.09-0.45-0.07c-0.29,0.02-0.51,0.12-0.67,0.29s-0.23,0.41-0.23,0.71c0,0.35,0.07,0.63,0.21,0.86
				c0.14,0.22,0.35,0.46,0.64,0.72l1.41,1.23c0.23,0.21,0.44,0.42,0.61,0.62c0.17,0.2,0.34,0.43,0.5,0.69
				c0.16,0.26,0.28,0.54,0.36,0.85s0.12,0.63,0.12,0.98c0,0.79-0.25,1.43-0.75,1.92C47.51,114.02,46.85,114.26,46.05,114.26z"/>
			<path class="st2" d="M50.57,114.13v-10.81h4.53v1.39h-2.56v3.1h2.02v1.39h-2.02v3.57h2.59v1.36H50.57z"/>
			<path class="st2" d="M56.93,114.13v-10.81h2.52c0.65,0,1.2,0.06,1.64,0.2s0.79,0.34,1.06,0.62c0.26,0.28,0.45,0.63,0.56,1.04
				c0.11,0.41,0.17,0.92,0.17,1.52v3.9c0,0.62-0.06,1.14-0.17,1.57c-0.11,0.43-0.3,0.8-0.56,1.1c-0.26,0.3-0.6,0.52-1.03,0.66
				c-0.43,0.14-0.96,0.21-1.58,0.21H56.93z M58.9,112.75h0.56c0.2,0,0.37-0.02,0.52-0.05c0.15-0.04,0.27-0.08,0.37-0.12
				c0.1-0.05,0.18-0.13,0.25-0.23c0.07-0.11,0.12-0.21,0.15-0.3c0.04-0.09,0.06-0.23,0.08-0.41c0.02-0.19,0.03-0.34,0.03-0.47
				s0.01-0.32,0.01-0.58v-3.95c0-0.26,0-0.46-0.01-0.62s-0.03-0.31-0.06-0.47c-0.03-0.16-0.08-0.28-0.14-0.37
				c-0.06-0.09-0.15-0.17-0.25-0.24c-0.1-0.07-0.24-0.12-0.39-0.15c-0.16-0.03-0.35-0.04-0.57-0.04H58.9V112.75z"/>
			<path class="st2" d="M64.28,114.13l2.2-10.81h2.06l2.19,10.81h-1.83l-0.44-2.51h-1.87l-0.44,2.51H64.28z M66.79,110.34h1.45
				l-0.72-4.44L66.79,110.34z"/>
			<path class="st2" d="M76.38,114.13v-10.81h4.44v1.36h-2.47v3.14h1.98v1.39h-1.98v4.92H76.38z"/>
			<path class="st2" d="M82.53,114.13v-10.81h2.48c0.57,0,1.06,0.05,1.47,0.14c0.41,0.09,0.76,0.25,1.07,0.47
				c0.3,0.22,0.53,0.52,0.68,0.89c0.15,0.38,0.22,0.84,0.22,1.38c0,0.68-0.1,1.23-0.3,1.66s-0.54,0.74-1,0.94l1.5,5.33h-1.98
				l-1.29-4.94H84.5v4.94H82.53z M84.5,107.94h0.48c0.58,0,1-0.13,1.24-0.37c0.25-0.25,0.37-0.67,0.37-1.27
				c0-0.58-0.11-0.99-0.32-1.24c-0.21-0.25-0.6-0.38-1.17-0.38H84.5V107.94z"/>
			<path class="st2" d="M90.66,114.13v-10.81h1.94v10.81H90.66z M91.12,102.4l0.8-2.67h1.85l-1.6,2.67H91.12z"/>
			<path class="st2" d="M94.38,114.13l2.2-10.81h2.05l2.19,10.81h-1.83l-0.44-2.51h-1.87l-0.44,2.51H94.38z M96.89,110.34h1.45
				l-0.72-4.44L96.89,110.34z"/>
		</g>
		<g>
			<path class="st3" d="M59.71,79.38c0.03-0.2,0.19-0.36,0.4-0.39c6.9-1.07,11.35-11.74,15.02-20.55c1.23-2.95,2.37-5.69,3.51-7.83
				h0c0.82-1.65,1.71-3.26,2.73-4.82c-2.56,3.42-4.41,7.27-6.22,11.04c-1.5,3.12-2.97,6.19-4.81,8.94
				c-1.84,2.75-3.95,5.39-6.47,7.88c-2.3,2.27-4.95,4.42-8.04,6.41c1.37,1.02,2.2,2.81,2.99,4.51c0.23,0.48,0.45,0.96,0.68,1.42
				c0.89,1.74,1.91,2.98,3.8,2.11c0.43-1.34,0.27-2.71-0.24-3.99c-0.65-1.62-1.88-3.08-3.22-4.11
				C59.64,79.85,59.59,79.59,59.71,79.38L59.71,79.38z M43.33,63.84c0.81,0.5,1.33,0.66,2.33,0.87c1.16,0.25,2.48,0.29,4.07,0.1
				c0.13-0.02,0.25,0.08,0.27,0.21c0.02,0.13-0.08,0.25-0.21,0.27c-1.12,0.21-2.3,0.37-3.53,0.34c-0.98-0.02-1.97-0.17-2.97-0.53
				c0.01,1.25,0.1,3.29,0.7,5.21c0.46,1.47,0.97,2.68,2.23,3.6c0.8,0.58,1.87,0.52,2.84,0.41c2.43-0.27,4.35-0.66,6.68-1.3
				c2.67-0.73,5.12-1.71,6.98-2.89c0.11-0.07,0.26-0.04,0.33,0.07c0.07,0.11,0.04,0.26-0.07,0.33c-0.06,0.04-0.11,0.07-0.17,0.11
				c-2.13,1.33-4.28,2.36-6.7,3.14c-2.15,0.69-4.51,1.19-7.26,1.52c-0.69,0.08-0.61,0.17-0.53,0.73c0.02,0.17,0.01,0.08,0.02,0.25
				c0.02,0.26,0.04,0.52,0.09,0.66c1.03,3.24,2.45,2.93,3.87,2.62c1-0.22,2-0.44,2.99,0.15c3.15-2.01,5.84-4.18,8.17-6.48
				c2.49-2.46,4.58-5.07,6.39-7.79c1.56-2.34,2.87-4.94,4.16-7.6C70.71,59.29,62.47,59.69,59.2,59c-0.13-0.03-0.21-0.15-0.18-0.28
				c0.03-0.13,0.15-0.21,0.28-0.18c1.09,0.23,2.18,0.32,3.27,0.31c-0.39-0.06-0.78-0.13-1.15-0.22c-1.79-0.4-3.39-1.04-5.02-1.76
				c-0.12-0.05-0.17-0.19-0.12-0.31c0.05-0.12,0.19-0.17,0.31-0.12c1.61,0.71,3.17,1.34,4.93,1.73c0.96,0.21,1.98,0.36,3.1,0.41
				c-0.87-0.18-1.77-0.44-2.7-0.77c-3.63-1.29-7.78-3.77-12.3-8.07c-0.02,1.62-1.46,3.13-3.07,4.81c-2.03,2.13-4.46,4.11-4.12,7.35
				C42.49,62.55,42.75,63.47,43.33,63.84L43.33,63.84z M52.49,80.5c-1.84,0.41-3.69,0.81-4.99-3.26c-0.08-0.24-0.1-0.55-0.13-0.86
				c-0.03-0.34,0.16-0.68,0.05-0.69c-0.04,0-0.09-0.01-0.13-0.03l0,0c-2.32-0.92-3.56-2.94-4.22-5.06c-0.63-2.01-0.73-4.1-0.74-5.42
				c-2.37-5.13,0.82-8.47,3.51-11.29c2.01-2.11,3.71-3.89,2.1-5.8c-0.17-0.2-0.14-0.5,0.06-0.67c0.19-0.16,0.48-0.15,0.65,0.03l0,0
				c5.06,5.19,9.64,8.06,13.58,9.45c5.35,1.9,9.5,1.09,12.04-0.25c0.44-0.24,0.36-0.23,0.52-0.46c2.77-5.77,5.68-11.68,11.12-15.98
				l0,0c0.1-0.1,0.2-0.2,0.31-0.3c3.41-3.29,7.93-6.28,14.29-8.93c0.24-0.1,0.52,0.02,0.62,0.26c0.1,0.24-0.01,0.52-0.26,0.62
				c-0.03,0.01-0.06,0.03-0.09,0.04c-0.69,2.92,0.44,5.74,1.47,8.34c1.23,3.07,2.33,5.85,0.47,8.35c-0.11,0.15-0.3,0.22-0.47,0.18
				c-1.25-0.14-2.04,0.02-2.5,0.33c-0.25,0.17-0.39,0.38-0.45,0.62c-0.07,0.26-0.05,0.55,0.02,0.83c0.15,0.59,0.54,1.13,0.94,1.37
				c0.03,0.02,0.06,0.04,0.09,0.07c1.13,0.99,1.58,1.9,1.63,2.62c0.03,0.39-0.06,0.73-0.21,1.01c-0.16,0.29-0.38,0.51-0.65,0.66
				c-0.41,0.23-0.91,0.28-1.34,0.11c-3.34-0.93-6.93-1.47-10.33-1.55c-3.21-0.07-6.25,0.28-8.71,1.12
				c-0.12,0.04-0.25,0.08-0.37,0.12c-1.78,0.6-3.19,1.08-4.17,2.55c-0.49,1.06-0.75,2-0.86,2.88c-0.12,0.91-0.09,1.76-0.02,2.61
				c0.45,5.17-1.15,10.03-3.49,14.25c-2,3.62-4.54,6.78-6.76,9.26c-0.81,0.91-0.93,1.26-2.09,1.6c-2.13,0.63-3.31-0.83-4.33-2.83
				c-0.24-0.46-0.46-0.95-0.7-1.45C56.54,81.96,55.74,79.78,52.49,80.5L52.49,80.5z M64.49,86.85c2.15-2.42,4.58-5.45,6.49-8.92
				c2.25-4.08,3.81-8.75,3.37-13.7c-0.04-0.45-0.07-0.9-0.07-1.35c-3.3,7.63-7.34,15.39-13.24,16.89c1.21,1.08,2.28,2.47,2.89,3.99
				C64.34,84.75,64.55,85.8,64.49,86.85L64.49,86.85z M97.59,35.31c0.15-0.06,0.33,0.02,0.38,0.17c0.06,0.15-0.02,0.33-0.17,0.38
				c-1.29,0.49-2.47,1.1-3.5,1.75c-1.17,0.73-2.14,1.53-2.89,2.28c-0.12,0.12-0.3,0.12-0.42,0c-0.12-0.12-0.12-0.3,0-0.42
				c0.77-0.78,1.79-1.6,2.99-2.36C95.05,36.44,96.26,35.82,97.59,35.31L97.59,35.31z M100.07,53.07l-8.26-0.24
				c-0.13,0-0.24-0.1-0.25-0.23c0-0.13,0.1-0.24,0.23-0.25l7.27-0.21c-0.3-0.38-0.55-0.84-0.68-1.33c-0.11-0.44-0.14-0.9-0.02-1.32
				c0.04-0.14,0.09-0.28,0.16-0.41L82.5,51.55l-0.02,0c-0.13,0.02-0.25-0.06-0.28-0.19c-0.02-0.13,0.06-0.25,0.19-0.28l17.57-3.12
				c0.54-0.16,1.24-0.23,2.12-0.15c1.33-2.03,0.34-4.5-0.74-7.21c-1.01-2.54-2.11-5.29-1.65-8.24c-5.64,2.48-9.72,5.24-12.83,8.24
				c-3.32,3.2-5.55,6.69-7.39,10.43h0l-0.01,0.01c-0.82,1.54-1.65,3.43-2.52,5.48c0.88-0.58,1.91-0.93,3.09-1.33
				c0.12-0.04,0.24-0.08,0.37-0.12c2.57-0.88,5.72-1.24,9.04-1.17c3.48,0.08,7.17,0.64,10.59,1.59c0.02,0.01,0.04,0.01,0.05,0.02
				c0.17,0.07,0.37,0.05,0.54-0.05c0.11-0.06,0.21-0.16,0.28-0.28c0.07-0.13,0.11-0.29,0.09-0.49
				C100.98,54.27,100.71,53.72,100.07,53.07L100.07,53.07z"/>
		</g>
	</g>
</g>
</svg>
