<?xml version="1.0" encoding="utf-8"?>
<!-- Generator: Adobe Illustrator 24.0.0, SVG Export Plug-In . SVG Version: 6.00 Build 0)  -->
<svg version="1.1" xmlns="http://www.w3.org/2000/svg" xmlns:xlink="http://www.w3.org/1999/xlink" x="0px" y="0px"
	 viewBox="0 0 145.21 145.21" style="enable-background:new 0 0 145.21 145.21;" xml:space="preserve">
<style type="text/css">
	.st0{display:none;}
	.st1{display:inline;}
	.st2{fill:#757575;}
	.st3{fill:#00B0EF;}
	.st4{fill-rule:evenodd;clip-rule:evenodd;fill:#00B0EF;}
</style>
<g id="Layer_1" class="st0">
	<g class="st1">
		<g>
			<path class="st2" d="M52.24,113.78v-10.81h1.97v4.7l2.13-4.7h1.88l-2.07,4.84l2.28,5.97h-1.96l-1.87-5.09l-0.39,0.7v4.38H52.24z"
				/>
			<path class="st2" d="M59.99,113.78v-10.81h4.53v1.39h-2.56v3.1h2.02v1.39h-2.02v3.57h2.59v1.36H59.99z"/>
			<path class="st2" d="M67.41,113.78v-9.36h-1.81v-1.45h5.54v1.45h-1.75v9.36H67.41z"/>
			<path class="st2" d="M73.72,113.78v-9.36H71.9v-1.45h5.54v1.45h-1.75v9.36H73.72z"/>
			<path class="st2" d="M78.97,113.78v-10.81h4.53v1.39h-2.56v3.1h2.02v1.39h-2.02v3.57h2.59v1.36H78.97z"/>
			<path class="st2" d="M85.33,113.78v-10.81h1.36l2.65,6.12v-6.12h1.63v10.81h-1.29L87,107.34v6.44H85.33z"/>
		</g>
		<g transform="translate(0,-952.36218)">
			<path class="st3" d="M64.02,983.79c-2.97,0-5.33,2.29-5.67,5.03c-1.82,0.07-3.79,0.44-5.47,1.3c-1.9,0.97-3.47,2.6-3.86,4.98
				l-7.15,42.17c-0.07,0.39,0.18,0.76,0.57,0.84c0.05,0.01,0.1,0.01,0.15,0.01h7.86c0.34,0,0.63-0.25,0.69-0.58l4.85-24.88
				l3.04,24.82c0.03,0.37,0.34,0.65,0.71,0.65h25.73c0.37,0,0.68-0.28,0.71-0.65l3.04-24.82l4.85,24.88
				c0.06,0.33,0.35,0.58,0.69,0.58h7.86c0.39,0.01,0.72-0.31,0.73-0.7c0-0.05,0-0.1-0.01-0.15l-7.15-42.17
				c-0.4-2.38-1.97-4.02-3.86-4.98c-1.69-0.86-3.65-1.22-5.47-1.3c-0.35-2.74-2.7-5.03-5.67-5.03H64.02z M64.02,985.22h17.16
				c2.29,0,4.02,1.82,4.22,3.91c-3.17,1.53-6.1,3.38-8.4,5.16c-1.36,1.05-2.44,2.03-3.33,2.93c0.23-0.89,0.57-1.81,1.01-2.73
				c0.86-1.78,2.06-3.43,3.35-4.4c0.32-0.23,0.39-0.68,0.16-1c-0.14-0.19-0.36-0.3-0.59-0.3H67.6c-0.39,0-0.72,0.31-0.72,0.71
				c0,0.23,0.11,0.45,0.3,0.59c1.29,0.97,2.49,2.63,3.35,4.4c0.44,0.91,0.77,1.84,1.01,2.73c-0.89-0.9-1.97-1.87-3.33-2.93
				c-2.3-1.78-5.23-3.64-8.4-5.16C60,987.04,61.74,985.22,64.02,985.22z M58.89,990.22c3.2,1.5,6.13,3.42,8.44,5.2
				c2.25,1.74,3.88,3.4,4.56,4.36v36.9h-11.5l-3.51-28.68c-0.05-0.39-0.41-0.67-0.8-0.62c-0.3,0.04-0.54,0.26-0.61,0.55l-5.61,28.75
				h-6.43l7.01-41.35c0.32-1.9,1.47-3.13,3.08-3.95C55.1,990.58,57.09,990.24,58.89,990.22z M69.3,990.22h6.61
				c-0.98,1.06-1.87,2.28-2.52,3.64c-0.33,0.69-0.55,1.38-0.78,2.08c-0.23-0.7-0.45-1.39-0.78-2.08
				C71.17,992.51,70.28,991.29,69.3,990.22z M86.32,990.22c1.79,0.02,3.79,0.36,5.36,1.16c1.61,0.82,2.77,2.05,3.08,3.95l7.01,41.35
				h-6.43l-5.61-28.75c-0.09-0.39-0.47-0.63-0.85-0.54c-0.3,0.07-0.52,0.31-0.55,0.61l-3.51,28.68h-11.5v-36.93
				c0.68-0.96,2.31-2.6,4.56-4.33C80.19,993.64,83.12,991.72,86.32,990.22z M77.47,1003.81c-0.39,0.04-0.68,0.39-0.65,0.78
				c0.04,0.39,0.39,0.68,0.78,0.65h7.15c0.39,0.01,0.72-0.31,0.72-0.7c0.01-0.39-0.31-0.72-0.7-0.72c-0.01,0-0.01,0-0.02,0h-7.15
				C77.56,1003.8,77.52,1003.8,77.47,1003.81z M66.1,1021.65c-0.31,0.03-0.57,0.27-0.63,0.58c-0.66,3.03-1.18,4.49-3.4,6.81
				c-0.3,0.26-0.34,0.71-0.08,1.01c0.26,0.3,0.71,0.34,1.01,0.08c0.04-0.03,0.07-0.07,0.1-0.11c2.35-2.47,3.07-4.41,3.75-7.51
				c0.09-0.38-0.15-0.77-0.54-0.86C66.25,1021.65,66.18,1021.65,66.1,1021.65z M78.95,1021.65c-0.39,0.05-0.67,0.41-0.62,0.8
				c0,0.02,0.01,0.05,0.01,0.07c0.68,3.1,1.4,5.04,3.75,7.51c0.24,0.31,0.69,0.37,1,0.13c0.31-0.24,0.37-0.69,0.13-1
				c-0.03-0.04-0.07-0.08-0.1-0.11c-2.21-2.32-2.73-3.79-3.4-6.81C79.66,1021.87,79.32,1021.61,78.95,1021.65z"/>
		</g>
	</g>
</g>
<g id="Layer_2" class="st0">
	<g class="st1">
		<g>
			<path class="st2" d="M50.37,113.7v-10.81h2.65c0.5,0,0.94,0.04,1.31,0.13c0.37,0.09,0.7,0.24,0.99,0.44
				c0.29,0.21,0.51,0.49,0.66,0.86s0.22,0.81,0.22,1.32c0,1.33-0.53,2.08-1.59,2.24c0.64,0.12,1.12,0.4,1.43,0.84
				c0.31,0.44,0.47,1.05,0.48,1.84c0,1.03-0.25,1.81-0.77,2.34c-0.52,0.53-1.27,0.8-2.26,0.8H50.37z M52.34,107.3h0.61
				c0.58,0,0.98-0.12,1.19-0.37c0.22-0.25,0.33-0.67,0.33-1.25c0-0.3-0.04-0.55-0.11-0.74c-0.07-0.19-0.19-0.33-0.36-0.43
				c-0.17-0.1-0.36-0.16-0.56-0.19s-0.48-0.05-0.82-0.05h-0.27V107.3z M52.34,112.31h0.72c0.59,0,0.99-0.14,1.22-0.41
				c0.23-0.27,0.34-0.73,0.34-1.36c0-0.65-0.13-1.13-0.38-1.42c-0.25-0.29-0.68-0.44-1.28-0.44h-0.62V112.31z"/>
			<path class="st2" d="M57.88,113.7l2.2-10.81h2.05l2.19,10.81h-1.83l-0.44-2.51h-1.87l-0.44,2.51H57.88z M60.39,109.9h1.45
				l-0.72-4.44L60.39,109.9z"/>
			<path class="st2" d="M66.73,113.7v-9.36h-1.81v-1.45h5.54v1.45H68.7v9.36H66.73z"/>
			<path class="st2" d="M72.04,113.7v-10.81h1.94v10.81H72.04z"/>
			<path class="st2" d="M79.04,113.83c-1.9,0-2.9-1.1-3-3.3l1.71-0.36c0.04,1.43,0.45,2.15,1.23,2.15c0.3,0,0.52-0.09,0.67-0.27
				s0.22-0.43,0.22-0.74c0-0.3-0.05-0.58-0.16-0.83s-0.23-0.45-0.38-0.61c-0.14-0.16-0.35-0.36-0.61-0.59l-1.42-1.23
				c-0.42-0.37-0.73-0.74-0.93-1.14s-0.31-0.89-0.31-1.48c0-0.84,0.25-1.49,0.74-1.96c0.49-0.47,1.17-0.7,2.03-0.71
				c0.4,0,0.75,0.04,1.05,0.15c0.3,0.1,0.55,0.24,0.75,0.41c0.2,0.17,0.36,0.39,0.5,0.64c0.13,0.26,0.23,0.52,0.3,0.8
				c0.07,0.28,0.11,0.58,0.14,0.92l-1.68,0.33c-0.01-0.22-0.02-0.41-0.04-0.57c-0.02-0.16-0.05-0.32-0.1-0.49
				c-0.05-0.17-0.11-0.3-0.19-0.4c-0.08-0.1-0.18-0.18-0.31-0.25c-0.13-0.06-0.28-0.08-0.45-0.07c-0.29,0.02-0.51,0.11-0.67,0.29
				c-0.16,0.18-0.23,0.41-0.23,0.71c0,0.35,0.07,0.63,0.21,0.86c0.14,0.22,0.35,0.46,0.64,0.72l1.41,1.23
				c0.23,0.21,0.44,0.42,0.61,0.62c0.17,0.2,0.34,0.43,0.5,0.69c0.16,0.26,0.28,0.54,0.36,0.85c0.08,0.31,0.12,0.63,0.12,0.98
				c0,0.79-0.25,1.43-0.75,1.92C80.51,113.59,79.85,113.83,79.04,113.83z"/>
			<path class="st2" d="M84.63,113.7v-9.36h-1.81v-1.45h5.54v1.45H86.6v9.36H84.63z"/>
			<path class="st2" d="M89.27,113.7l2.2-10.81h2.05l2.19,10.81h-1.83l-0.44-2.51h-1.87l-0.44,2.51H89.27z M91.78,109.9h1.45
				l-0.72-4.44L91.78,109.9z"/>
		</g>
		<path class="st3" d="M96.07,49.41c-2.05,0-3.72,1.67-3.72,3.72c0,1.35,0.72,2.52,1.79,3.18v2.05H51.07V56.3
			c1.07-0.65,1.79-1.83,1.79-3.18c0-2.05-1.67-3.72-3.72-3.72c-2.06,0-3.72,1.67-3.72,3.72c0,1.35,0.72,2.52,1.79,3.18v28.52
			c0,0.32,0.26,0.57,0.57,0.57h2.72c0.32,0,0.57-0.26,0.57-0.57v-4.44h43.07v4.44c0,0.32,0.26,0.57,0.57,0.57h2.72
			c0.32,0,0.57-0.26,0.57-0.57V56.3c1.07-0.65,1.79-1.83,1.79-3.18C99.79,51.07,98.13,49.41,96.07,49.41z M56.68,74.66h-5.62V64.07
			h5.62V74.66z M69.17,74.66h-5.62V64.07h5.62V74.66z M81.65,74.66h-5.62V64.07h5.62V74.66z M94.14,74.66h-5.62V64.07h5.62V74.66z"
			/>
		<path class="st3" d="M58.61,50.72h5.6c1.78,0,2.33-2.69,0.42-2.99c0.65-1.24-0.74-2.67-2.21-1.81c-0.74-2.3-4.44-1.61-4.13,0.9
			C55.82,47.27,56.38,50.72,58.61,50.72z"/>
		<path class="st3" d="M84.55,43.92c-0.09-0.27-0.13-0.4-0.31-0.4c-0.18,0-0.23,0.13-0.31,0.4l-0.82,2.54l-2.67-0.01
			c-0.28,0-0.42,0-0.48,0.17c-0.06,0.17,0.06,0.26,0.28,0.42l2.17,1.57l-0.83,2.54c-0.09,0.27-0.13,0.4,0.02,0.51
			c0.15,0.11,0.26,0.02,0.49-0.14l2.16-1.57l2.16,1.57c0.23,0.16,0.34,0.25,0.49,0.14c0.15-0.11,0.1-0.24,0.02-0.51l-0.83-2.54
			l2.17-1.57c0.23-0.16,0.34-0.25,0.28-0.42c-0.06-0.17-0.19-0.17-0.47-0.17l-2.67,0.01L84.55,43.92z"/>
		<path class="st3" d="M74.68,43.61c0.21-0.15,0.28-0.27,0.15-0.28c-0.08,0-0.16-0.01-0.24-0.01c-2.37,0-4.29,1.92-4.29,4.29
			c0,2.37,1.92,4.29,4.29,4.29c0.08,0,0.16,0,0.24-0.01c0.13-0.01,0.06-0.13-0.15-0.28c-1.24-0.9-2.04-2.36-2.04-4.01
			C72.64,45.97,73.45,44.51,74.68,43.61z"/>
		<path class="st3" d="M60.63,36.55v5.13c0,0.32,0.26,0.57,0.57,0.57c0.32,0,0.57-0.26,0.57-0.57v-5.6
			c2.97-1.49,6.56-2.33,10.26-2.4v7.43c0,0.32,0.26,0.57,0.57,0.57s0.57-0.26,0.57-0.57v-7.42c3.82,0.1,7.5,1.02,10.49,2.64v5.36
			c0,0.32,0.26,0.57,0.57,0.57c0.31,0,0.57-0.26,0.57-0.57v-5.01c0.33-0.05,0.64-0.24,0.83-0.56c0.31-0.55,0.12-1.25-0.43-1.56
			c-3.58-2.05-8.1-3.17-12.73-3.17c-4.58,0-8.89,1.05-12.48,3.03c-0.55,0.31-0.75,1-0.45,1.56C59.78,36.36,60.2,36.57,60.63,36.55z"
			/>
	</g>
</g>
<g id="Layer_3" class="st0">
</g>
<g id="Layer_4" class="st0">
	<g class="st1">
		<g>
			<path class="st2" d="M46.05,114.26c-1.9,0-2.91-1.1-3-3.3l1.71-0.36c0.04,1.43,0.45,2.15,1.23,2.15c0.3,0,0.52-0.09,0.67-0.27
				c0.15-0.18,0.22-0.43,0.22-0.74c0-0.3-0.05-0.57-0.16-0.82c-0.11-0.25-0.24-0.46-0.38-0.61s-0.35-0.36-0.61-0.59l-1.42-1.23
				c-0.42-0.37-0.73-0.74-0.93-1.14c-0.2-0.39-0.31-0.88-0.31-1.48c0-0.84,0.25-1.49,0.74-1.96s1.17-0.7,2.03-0.71
				c0.4,0,0.75,0.04,1.05,0.15c0.3,0.1,0.56,0.24,0.75,0.41c0.2,0.17,0.36,0.38,0.5,0.64c0.13,0.26,0.23,0.52,0.3,0.8
				c0.07,0.28,0.11,0.58,0.14,0.92l-1.68,0.33c-0.01-0.22-0.02-0.41-0.04-0.57s-0.05-0.32-0.1-0.49c-0.05-0.16-0.11-0.3-0.19-0.4
				s-0.18-0.18-0.31-0.24s-0.28-0.09-0.45-0.07c-0.29,0.02-0.51,0.12-0.67,0.29s-0.23,0.41-0.23,0.71c0,0.35,0.07,0.63,0.21,0.86
				c0.14,0.22,0.35,0.46,0.64,0.72l1.41,1.23c0.23,0.21,0.44,0.42,0.61,0.62c0.17,0.2,0.34,0.43,0.5,0.69
				c0.16,0.26,0.28,0.54,0.36,0.85s0.12,0.63,0.12,0.98c0,0.79-0.25,1.43-0.75,1.92C47.51,114.02,46.85,114.26,46.05,114.26z"/>
			<path class="st2" d="M50.57,114.13v-10.81h4.53v1.39h-2.56v3.1h2.02v1.39h-2.02v3.57h2.59v1.36H50.57z"/>
			<path class="st2" d="M56.93,114.13v-10.81h2.52c0.65,0,1.2,0.06,1.64,0.2s0.79,0.34,1.06,0.62c0.26,0.28,0.45,0.63,0.56,1.04
				c0.11,0.41,0.17,0.92,0.17,1.52v3.9c0,0.62-0.06,1.14-0.17,1.57c-0.11,0.43-0.3,0.8-0.56,1.1c-0.26,0.3-0.6,0.52-1.03,0.66
				c-0.43,0.14-0.96,0.21-1.58,0.21H56.93z M58.9,112.75h0.56c0.2,0,0.37-0.02,0.52-0.05c0.15-0.04,0.27-0.08,0.37-0.12
				c0.1-0.05,0.18-0.13,0.25-0.23c0.07-0.11,0.12-0.21,0.15-0.3c0.04-0.09,0.06-0.23,0.08-0.41c0.02-0.19,0.03-0.34,0.03-0.47
				s0.01-0.32,0.01-0.58v-3.95c0-0.26,0-0.46-0.01-0.62s-0.03-0.31-0.06-0.47c-0.03-0.16-0.08-0.28-0.14-0.37
				c-0.06-0.09-0.15-0.17-0.25-0.24c-0.1-0.07-0.24-0.12-0.39-0.15c-0.16-0.03-0.35-0.04-0.57-0.04H58.9V112.75z"/>
			<path class="st2" d="M64.28,114.13l2.2-10.81h2.06l2.19,10.81h-1.83l-0.44-2.51h-1.87l-0.44,2.51H64.28z M66.79,110.34h1.45
				l-0.72-4.44L66.79,110.34z"/>
			<path class="st2" d="M76.38,114.13v-10.81h4.44v1.36h-2.47v3.14h1.98v1.39h-1.98v4.92H76.38z"/>
			<path class="st2" d="M82.53,114.13v-10.81h2.48c0.57,0,1.06,0.05,1.47,0.14c0.41,0.09,0.76,0.25,1.07,0.47
				c0.3,0.22,0.53,0.52,0.68,0.89c0.15,0.38,0.22,0.84,0.22,1.38c0,0.68-0.1,1.23-0.3,1.66s-0.54,0.74-1,0.94l1.5,5.33h-1.98
				l-1.29-4.94H84.5v4.94H82.53z M84.5,107.94h0.48c0.58,0,1-0.13,1.24-0.37c0.25-0.25,0.37-0.67,0.37-1.27
				c0-0.58-0.11-0.99-0.32-1.24c-0.21-0.25-0.6-0.38-1.17-0.38H84.5V107.94z"/>
			<path class="st2" d="M90.66,114.13v-10.81h1.94v10.81H90.66z M91.12,102.4l0.8-2.67h1.85l-1.6,2.67H91.12z"/>
			<path class="st2" d="M94.38,114.13l2.2-10.81h2.05l2.19,10.81h-1.83l-0.44-2.51h-1.87l-0.44,2.51H94.38z M96.89,110.34h1.45
				l-0.72-4.44L96.89,110.34z"/>
		</g>
		<g>
			<path class="st3" d="M59.71,79.38c0.03-0.2,0.19-0.36,0.4-0.39c6.9-1.07,11.35-11.74,15.02-20.55c1.23-2.95,2.37-5.69,3.51-7.83
				h0c0.82-1.65,1.71-3.26,2.73-4.82c-2.56,3.42-4.41,7.27-6.22,11.04c-1.5,3.12-2.97,6.19-4.81,8.94
				c-1.84,2.75-3.95,5.39-6.47,7.88c-2.3,2.27-4.95,4.42-8.04,6.41c1.37,1.02,2.2,2.81,2.99,4.51c0.23,0.48,0.45,0.96,0.68,1.42
				c0.89,1.74,1.91,2.98,3.8,2.11c0.43-1.34,0.27-2.71-0.24-3.99c-0.65-1.62-1.88-3.08-3.22-4.11
				C59.64,79.85,59.59,79.59,59.71,79.38L59.71,79.38z M43.33,63.84c0.81,0.5,1.33,0.66,2.33,0.87c1.16,0.25,2.48,0.29,4.07,0.1
				c0.13-0.02,0.25,0.08,0.27,0.21c0.02,0.13-0.08,0.25-0.21,0.27c-1.12,0.21-2.3,0.37-3.53,0.34c-0.98-0.02-1.97-0.17-2.97-0.53
				c0.01,1.25,0.1,3.29,0.7,5.21c0.46,1.47,0.97,2.68,2.23,3.6c0.8,0.58,1.87,0.52,2.84,0.41c2.43-0.27,4.35-0.66,6.68-1.3
				c2.67-0.73,5.12-1.71,6.98-2.89c0.11-0.07,0.26-0.04,0.33,0.07c0.07,0.11,0.04,0.26-0.07,0.33c-0.06,0.04-0.11,0.07-0.17,0.11
				c-2.13,1.33-4.28,2.36-6.7,3.14c-2.15,0.69-4.51,1.19-7.26,1.52c-0.69,0.08-0.61,0.17-0.53,0.73c0.02,0.17,0.01,0.08,0.02,0.25
				c0.02,0.26,0.04,0.52,0.09,0.66c1.03,3.24,2.45,2.93,3.87,2.62c1-0.22,2-0.44,2.99,0.15c3.15-2.01,5.84-4.18,8.17-6.48
				c2.49-2.46,4.58-5.07,6.39-7.79c1.56-2.34,2.87-4.94,4.16-7.6C70.71,59.29,62.47,59.69,59.2,59c-0.13-0.03-0.21-0.15-0.18-0.28
				c0.03-0.13,0.15-0.21,0.28-0.18c1.09,0.23,2.18,0.32,3.27,0.31c-0.39-0.06-0.78-0.13-1.15-0.22c-1.79-0.4-3.39-1.04-5.02-1.76
				c-0.12-0.05-0.17-0.19-0.12-0.31c0.05-0.12,0.19-0.17,0.31-0.12c1.61,0.71,3.17,1.34,4.93,1.73c0.96,0.21,1.98,0.36,3.1,0.41
				c-0.87-0.18-1.77-0.44-2.7-0.77c-3.63-1.29-7.78-3.77-12.3-8.07c-0.02,1.62-1.46,3.13-3.07,4.81c-2.03,2.13-4.46,4.11-4.12,7.35
				C42.49,62.55,42.75,63.47,43.33,63.84L43.33,63.84z M52.49,80.5c-1.84,0.41-3.69,0.81-4.99-3.26c-0.08-0.24-0.1-0.55-0.13-0.86
				c-0.03-0.34,0.16-0.68,0.05-0.69c-0.04,0-0.09-0.01-0.13-0.03l0,0c-2.32-0.92-3.56-2.94-4.22-5.06c-0.63-2.01-0.73-4.1-0.74-5.42
				c-2.37-5.13,0.82-8.47,3.51-11.29c2.01-2.11,3.71-3.89,2.1-5.8c-0.17-0.2-0.14-0.5,0.06-0.67c0.19-0.16,0.48-0.15,0.65,0.03l0,0
				c5.06,5.19,9.64,8.06,13.58,9.45c5.35,1.9,9.5,1.09,12.04-0.25c0.44-0.24,0.36-0.23,0.52-0.46c2.77-5.77,5.68-11.68,11.12-15.98
				l0,0c0.1-0.1,0.2-0.2,0.31-0.3c3.41-3.29,7.93-6.28,14.29-8.93c0.24-0.1,0.52,0.02,0.62,0.26c0.1,0.24-0.01,0.52-0.26,0.62
				c-0.03,0.01-0.06,0.03-0.09,0.04c-0.69,2.92,0.44,5.74,1.47,8.34c1.23,3.07,2.33,5.85,0.47,8.35c-0.11,0.15-0.3,0.22-0.47,0.18
				c-1.25-0.14-2.04,0.02-2.5,0.33c-0.25,0.17-0.39,0.38-0.45,0.62c-0.07,0.26-0.05,0.55,0.02,0.83c0.15,0.59,0.54,1.13,0.94,1.37
				c0.03,0.02,0.06,0.04,0.09,0.07c1.13,0.99,1.58,1.9,1.63,2.62c0.03,0.39-0.06,0.73-0.21,1.01c-0.16,0.29-0.38,0.51-0.65,0.66
				c-0.41,0.23-0.91,0.28-1.34,0.11c-3.34-0.93-6.93-1.47-10.33-1.55c-3.21-0.07-6.25,0.28-8.71,1.12
				c-0.12,0.04-0.25,0.08-0.37,0.12c-1.78,0.6-3.19,1.08-4.17,2.55c-0.49,1.06-0.75,2-0.86,2.88c-0.12,0.91-0.09,1.76-0.02,2.61
				c0.45,5.17-1.15,10.03-3.49,14.25c-2,3.62-4.54,6.78-6.76,9.26c-0.81,0.91-0.93,1.26-2.09,1.6c-2.13,0.63-3.31-0.83-4.33-2.83
				c-0.24-0.46-0.46-0.95-0.7-1.45C56.54,81.96,55.74,79.78,52.49,80.5L52.49,80.5z M64.49,86.85c2.15-2.42,4.58-5.45,6.49-8.92
				c2.25-4.08,3.81-8.75,3.37-13.7c-0.04-0.45-0.07-0.9-0.07-1.35c-3.3,7.63-7.34,15.39-13.24,16.89c1.21,1.08,2.28,2.47,2.89,3.99
				C64.34,84.75,64.55,85.8,64.49,86.85L64.49,86.85z M97.59,35.31c0.15-0.06,0.33,0.02,0.38,0.17c0.06,0.15-0.02,0.33-0.17,0.38
				c-1.29,0.49-2.47,1.1-3.5,1.75c-1.17,0.73-2.14,1.53-2.89,2.28c-0.12,0.12-0.3,0.12-0.42,0c-0.12-0.12-0.12-0.3,0-0.42
				c0.77-0.78,1.79-1.6,2.99-2.36C95.05,36.44,96.26,35.82,97.59,35.31L97.59,35.31z M100.07,53.07l-8.26-0.24
				c-0.13,0-0.24-0.1-0.25-0.23c0-0.13,0.1-0.24,0.23-0.25l7.27-0.21c-0.3-0.38-0.55-0.84-0.68-1.33c-0.11-0.44-0.14-0.9-0.02-1.32
				c0.04-0.14,0.09-0.28,0.16-0.41L82.5,51.55l-0.02,0c-0.13,0.02-0.25-0.06-0.28-0.19c-0.02-0.13,0.06-0.25,0.19-0.28l17.57-3.12
				c0.54-0.16,1.24-0.23,2.12-0.15c1.33-2.03,0.34-4.5-0.74-7.21c-1.01-2.54-2.11-5.29-1.65-8.24c-5.64,2.48-9.72,5.24-12.83,8.24
				c-3.32,3.2-5.55,6.69-7.39,10.43h0l-0.01,0.01c-0.82,1.54-1.65,3.43-2.52,5.48c0.88-0.58,1.91-0.93,3.09-1.33
				c0.12-0.04,0.24-0.08,0.37-0.12c2.57-0.88,5.72-1.24,9.04-1.17c3.48,0.08,7.17,0.64,10.59,1.59c0.02,0.01,0.04,0.01,0.05,0.02
				c0.17,0.07,0.37,0.05,0.54-0.05c0.11-0.06,0.21-0.16,0.28-0.28c0.07-0.13,0.11-0.29,0.09-0.49
				C100.98,54.27,100.71,53.72,100.07,53.07L100.07,53.07z"/>
		</g>
	</g>
</g>
<g id="Layer_5" class="st0">
	<g class="st1">
		<g>
			<path class="st2" d="M53.86,115.49l0.18-10.81h2.02l1.56,7.6l1.61-7.6h1.98l0.18,10.81H59.9l-0.13-7.45l-1.56,7.45h-1.15
				l-1.58-7.47l-0.12,7.47H53.86z"/>
			<path class="st2" d="M66.6,115.62c-1.11,0-1.91-0.3-2.39-0.91c-0.48-0.6-0.72-1.49-0.72-2.65v-3.99c0-0.57,0.05-1.07,0.16-1.49
				c0.11-0.42,0.28-0.79,0.52-1.1s0.56-0.54,0.97-0.69s0.89-0.23,1.46-0.23c1.11,0,1.91,0.3,2.39,0.89c0.49,0.6,0.73,1.47,0.73,2.62
				v3.99c0,0.57-0.06,1.06-0.17,1.49c-0.11,0.43-0.29,0.8-0.53,1.12s-0.56,0.55-0.97,0.71C67.65,115.54,67.16,115.62,66.6,115.62z
				 M66.1,114.07c0.14,0.06,0.3,0.08,0.49,0.08c0.19,0,0.35-0.03,0.49-0.08s0.24-0.13,0.32-0.22c0.08-0.09,0.14-0.21,0.19-0.36
				c0.05-0.15,0.08-0.29,0.09-0.44c0.01-0.15,0.02-0.32,0.02-0.53v-4.91c0-0.26-0.01-0.48-0.04-0.65s-0.08-0.34-0.15-0.49
				s-0.19-0.27-0.34-0.35S66.83,106,66.6,106c-0.23,0-0.43,0.04-0.58,0.11s-0.27,0.19-0.34,0.35c-0.07,0.15-0.12,0.32-0.15,0.49
				s-0.04,0.39-0.04,0.65v4.91c0,0.21,0.01,0.38,0.02,0.53c0.02,0.15,0.05,0.3,0.09,0.44c0.05,0.15,0.11,0.27,0.19,0.36
				C65.86,113.94,65.97,114.01,66.1,114.07z"/>
			<path class="st2" d="M71.82,115.49v-10.81h2.52c0.65,0,1.2,0.06,1.64,0.2s0.79,0.34,1.06,0.62c0.26,0.28,0.45,0.63,0.56,1.04
				c0.11,0.41,0.17,0.92,0.17,1.52v3.9c0,0.62-0.06,1.14-0.17,1.57s-0.3,0.8-0.56,1.1s-0.6,0.52-1.03,0.66s-0.96,0.21-1.58,0.21
				H71.82z M73.79,114.1h0.56c0.2,0,0.37-0.02,0.52-0.05c0.15-0.04,0.27-0.08,0.37-0.12c0.1-0.05,0.18-0.13,0.25-0.23
				c0.07-0.11,0.12-0.21,0.15-0.3c0.04-0.09,0.06-0.23,0.08-0.41c0.02-0.18,0.03-0.34,0.03-0.47c0-0.13,0.01-0.32,0.01-0.58v-3.95
				c0-0.26,0-0.46-0.01-0.62c-0.01-0.16-0.03-0.31-0.06-0.47c-0.03-0.16-0.08-0.28-0.14-0.37c-0.06-0.09-0.15-0.17-0.25-0.24
				c-0.1-0.07-0.24-0.12-0.39-0.15s-0.35-0.04-0.57-0.04h-0.54V114.1z"/>
			<path class="st2" d="M79.17,115.49l2.2-10.81h2.05l2.19,10.81h-1.83l-0.44-2.51h-1.87l-0.44,2.51H79.17z M81.68,111.69h1.45
				l-0.72-4.44L81.68,111.69z"/>
			<path class="st2" d="M87.34,115.49v-10.81h1.97v9.45h2.59v1.36H87.34z"/>
		</g>
		<path class="st3" d="M92.16,59.34l5.73-10.3c0,0-12.91-9.78-15.54-10.29l-0.39-0.08l-1.01,0.67l-7.38-2.34v-2.57H72.6
			c-0.8,0-1.46-0.66-1.46-1.46s0.66-1.46,1.46-1.46c0.8,0,1.46,0.66,1.46,1.46h1.92c0-1.87-1.51-3.38-3.38-3.38
			c-1.87,0-3.38,1.51-3.38,3.38c0,1.53,1.02,2.82,2.42,3.24v0.81l-7.37,2.32l-1.03-0.68l-0.38,0.08
			c-2.62,0.53-15.54,10.29-15.54,10.29l5.73,10.3l8.64-5.87c0.49,6.96-0.13,9.08-1.88,15.13c-0.29,1.01-3.44,12.97-3.44,12.97
			c-0.45,1.74-0.4,7.21,5.93,7.63c0.92,0.06,1.8-0.2,2.64-0.61c1.69,0.81,3.6,0.81,5.29,0c1.69,0.81,3.6,0.81,5.29,0
			c1.69,0.81,3.6,0.81,5.29,0c0.84,0.4,1.73,0.61,2.64,0.61c5.12,0,6.68-4.98,5.76-8c0,0-3.49-11.57-3.78-12.59
			c-1.76-6.06-2.37-8.17-1.88-15.13L92.16,59.34z M72.62,38.72l6.26,1.97l-6.28,4.12l-6.26-4.12L72.62,38.72z M83.56,69.14
			c0.29,1.01,3.79,12.62,3.79,12.62c0.65,2.1-0.34,4.38-2.23,5.18c-1.21,0.52-2.62,0.45-3.84-0.26l-0.48-0.28l-0.48,0.28
			c-1.37,0.8-2.95,0.8-4.32,0l-0.48-0.28l-0.48,0.28c-1.37,0.8-2.95,0.8-4.32,0l-0.48-0.28l-0.48,0.28c-1.37,0.8-2.95,0.8-4.32,0
			l-0.48-0.28l-0.48,0.28c-2.02,1.17-4.53,0.5-5.75-1.31c-0.61-0.9-0.79-2.11-0.47-3.31c0,0,3.13-11.9,3.43-12.91
			c1.91-6.6,2.56-8.81,1.82-17.47l-0.14-1.64l-9.62,6.54l-3.9-7.01c4.34-3.27,10.97-8.02,13.09-8.83l9.71,6.38l9.67-6.37
			c2.11,0.82,8.74,5.55,13.09,8.83l-3.9,7.01l-9.62-6.54l-0.14,1.64C81,60.33,81.65,62.56,83.56,69.14z"/>
	</g>
</g>
<g id="Layer_6" class="st0">
	<g class="st1">
		<g>
			<path class="st2" d="M46.3,113.63v-9.36h-1.81v-1.45h5.54v1.45h-1.75v9.36H46.3z"/>
			<path class="st2" d="M51.55,113.63v-10.81h2.48c0.57,0,1.06,0.05,1.47,0.14c0.41,0.09,0.76,0.25,1.07,0.47
				c0.3,0.22,0.53,0.52,0.68,0.89c0.15,0.38,0.22,0.84,0.22,1.38c0,0.68-0.1,1.23-0.3,1.66c-0.2,0.43-0.54,0.74-1,0.94l1.5,5.33
				h-1.98l-1.29-4.94h-0.87v4.94H51.55z M53.52,107.43H54c0.58,0,1-0.12,1.24-0.37c0.25-0.25,0.37-0.67,0.37-1.27
				c0-0.58-0.11-0.99-0.32-1.24c-0.21-0.25-0.6-0.38-1.17-0.38h-0.59V107.43z"/>
			<path class="st2" d="M62.57,113.76c-1.11,0-1.91-0.3-2.39-0.91c-0.48-0.6-0.72-1.49-0.72-2.65v-3.99c0-0.57,0.05-1.07,0.16-1.49
				c0.11-0.42,0.28-0.79,0.52-1.1s0.56-0.54,0.97-0.69s0.89-0.23,1.46-0.23c1.11,0,1.91,0.3,2.39,0.89c0.49,0.6,0.73,1.47,0.73,2.62
				v3.99c0,0.57-0.06,1.06-0.17,1.49c-0.11,0.43-0.29,0.8-0.53,1.12s-0.56,0.55-0.97,0.71C63.62,113.67,63.13,113.76,62.57,113.76z
				 M62.08,112.21c0.14,0.06,0.3,0.08,0.49,0.08s0.35-0.03,0.49-0.08s0.24-0.13,0.32-0.22c0.08-0.09,0.14-0.21,0.19-0.36
				c0.05-0.15,0.08-0.29,0.09-0.44c0.01-0.15,0.02-0.32,0.02-0.53v-4.91c0-0.26-0.01-0.48-0.04-0.65s-0.08-0.34-0.15-0.49
				s-0.19-0.27-0.34-0.35s-0.35-0.11-0.58-0.11s-0.43,0.04-0.58,0.11s-0.27,0.19-0.34,0.35c-0.07,0.15-0.12,0.32-0.15,0.49
				s-0.04,0.39-0.04,0.65v4.91c0,0.21,0.01,0.38,0.02,0.53c0.02,0.15,0.05,0.3,0.09,0.44c0.05,0.15,0.11,0.27,0.19,0.36
				C61.83,112.08,61.94,112.15,62.08,112.21z"/>
			<path class="st2" d="M67.79,113.63v-10.81h3.11c1.84,0,2.76,1.02,2.76,3.07c0,1-0.25,1.74-0.76,2.21c-0.5,0.47-1.21,0.7-2.13,0.7
				h-1.02v4.83H67.79z M69.76,107.41h0.63c0.56,0,0.93-0.11,1.13-0.33c0.2-0.22,0.29-0.62,0.29-1.21c0-0.33-0.01-0.59-0.04-0.78
				c-0.03-0.18-0.09-0.35-0.18-0.5c-0.1-0.15-0.24-0.25-0.43-0.31s-0.44-0.08-0.77-0.08h-0.64V107.41z"/>
			<path class="st2" d="M75.45,113.63v-10.81h1.94v10.81H75.45z"/>
			<path class="st2" d="M82.62,113.76c-0.47,0-0.88-0.06-1.23-0.18s-0.65-0.28-0.88-0.49c-0.23-0.21-0.42-0.47-0.57-0.78
				s-0.25-0.64-0.31-1s-0.09-0.75-0.09-1.2v-3.77c0-0.47,0.03-0.89,0.09-1.25c0.06-0.36,0.16-0.7,0.31-1.01s0.33-0.57,0.56-0.77
				s0.53-0.36,0.88-0.47c0.35-0.11,0.77-0.17,1.24-0.17c0.54,0,1,0.07,1.38,0.21c0.38,0.14,0.68,0.35,0.91,0.63s0.38,0.6,0.48,0.97
				c0.1,0.37,0.15,0.81,0.15,1.3v0.93h-1.9v-0.92c0-0.54-0.03-0.9-0.08-1.09c-0.11-0.37-0.39-0.56-0.83-0.59c-0.03,0-0.07,0-0.1,0
				c-0.17,0-0.31,0.02-0.43,0.06c-0.12,0.04-0.22,0.1-0.3,0.19c-0.08,0.08-0.14,0.18-0.19,0.27s-0.08,0.22-0.11,0.38
				s-0.04,0.3-0.05,0.43c-0.01,0.13-0.01,0.3-0.01,0.5v4.58c0,0.63,0.08,1.09,0.24,1.36s0.44,0.4,0.85,0.4
				c0.14,0,0.26-0.02,0.37-0.05c0.11-0.03,0.2-0.07,0.27-0.12c0.07-0.05,0.13-0.12,0.18-0.22c0.05-0.09,0.09-0.18,0.11-0.26
				c0.03-0.08,0.04-0.19,0.06-0.34c0.01-0.14,0.02-0.26,0.02-0.37c0-0.1,0-0.24,0-0.41v-0.97h1.9v0.89c0,0.4-0.03,0.77-0.08,1.09
				c-0.06,0.32-0.15,0.62-0.29,0.91c-0.14,0.28-0.31,0.52-0.53,0.7c-0.22,0.19-0.5,0.33-0.83,0.44
				C83.46,113.7,83.07,113.76,82.62,113.76z"/>
			<path class="st2" d="M87.02,113.63l2.2-10.81h2.05l2.19,10.81h-1.83l-0.44-2.51h-1.87l-0.44,2.51H87.02z M89.53,109.83h1.45
				l-0.72-4.44L89.53,109.83z"/>
			<path class="st2" d="M95.19,113.63v-10.81h1.97v9.45h2.59v1.36H95.19z"/>
		</g>
		<g>
			<g>
				<g>
					<path class="st3" d="M103.6,36.45h-62c-0.55,0-1-0.45-1-1c0-0.55,0.45-1,1-1h62c0.55,0,1,0.45,1,1
						C104.6,36,104.16,36.45,103.6,36.45z"/>
				</g>
			</g>
			<g>
				<g>
					<path class="st3" d="M103.6,33.45h-62c-0.55,0-1-0.45-1-1c0-0.55,0.45-1,1-1h62c0.55,0,1,0.45,1,1
						C104.6,33,104.16,33.45,103.6,33.45z"/>
				</g>
			</g>
			<g>
				<g>
					<g>
						<path class="st3" d="M66.6,59.45c-0.55,0-1-0.45-1-1v-20c0-0.55,0.45-1,1-1s1,0.45,1,1v20C67.6,59.01,67.15,59.45,66.6,59.45z
							"/>
					</g>
				</g>
				<g>
					<g>
						<path class="st3" d="M50.6,75.46c-0.55,0-1-0.45-1-1s0.45-1,1-1c8.27,0,15-6.73,15-15c0-0.55,0.45-1,1-1s1,0.45,1,1
							C67.6,67.83,59.98,75.46,50.6,75.46z"/>
					</g>
				</g>
				<g>
					<g>
						<path class="st3" d="M50.6,75.46c-0.55,0-1-0.45-1-1s0.45-1,1-1c8.27,0,15-6.73,15-15c0-0.55,0.45-1,1-1s1,0.45,1,1
							C67.6,67.83,59.98,75.46,50.6,75.46z"/>
					</g>
				</g>
				<g>
					<g>
						<path class="st3" d="M42.59,75.46c-0.55,0-1-0.45-1-1s0.45-1,1-1c3.86,0,7-3.14,7-7c0-0.55,0.45-1,1-1c0.55,0,1,0.45,1,1
							C51.6,71.42,47.56,75.46,42.59,75.46z"/>
					</g>
				</g>
				<g>
					<g>
						<path class="st3" d="M46.6,75.46c-0.55,0-1-0.45-1-1s0.45-1,1-1c6.07,0,11.01-4.94,11.01-11.01c0-0.55,0.45-1,1-1s1,0.45,1,1
							C59.61,69.62,53.77,75.46,46.6,75.46z"/>
					</g>
				</g>
				<g>
					<g>
						<path class="st3" d="M58.59,63.45c-0.55,0-1-0.45-1-1V38.45c0-0.55,0.45-1,1-1c0.55,0,1,0.45,1,1v23.99
							C59.59,63,59.15,63.45,58.59,63.45z"/>
					</g>
				</g>
				<g>
					<g>
						<path class="st3" d="M50.58,67.45c-0.55,0-1-0.45-1-1v-28c0-0.55,0.45-1,1-1c0.55,0,1,0.45,1,1v28
							C51.58,67,51.13,67.45,50.58,67.45z"/>
					</g>
				</g>
				<g>
					<g>
						<path class="st3" d="M66.6,39.45h-24c-0.55,0-1-0.45-1-1c0-0.55,0.45-1,1-1h24c0.55,0,1,0.45,1,1
							C67.6,39,67.15,39.45,66.6,39.45z"/>
					</g>
				</g>
				<g>
					<g>
						<path class="st3" d="M42.6,91.45c-0.55,0-1-0.45-1-1V38.45c0-0.55,0.45-1,1-1c0.55,0,1,0.45,1,1v51.99
							C43.6,91,43.16,91.45,42.6,91.45z"/>
					</g>
				</g>
				<g>
					<g>
						<path class="st3" d="M52.6,75.46h-10c-0.55,0-1-0.45-1-1s0.45-1,1-1h10c0.55,0,1,0.45,1,1S53.16,75.46,52.6,75.46z"/>
					</g>
				</g>
				<g>
					<g>
						<path class="st3" d="M47.58,80.45c-0.55,0-1-0.45-1-1c0-2.2-1.79-3.99-3.99-3.99c-0.55,0-1-0.45-1-1s0.45-1,1-1
							c3.3,0,5.99,2.69,5.99,5.99C48.58,80,48.14,80.45,47.58,80.45z"/>
					</g>
				</g>
				<g>
					<g>
						<path class="st3" d="M47.6,91.45c-0.55,0-1-0.45-1-1v-11c0-0.55,0.45-1,1-1c0.55,0,1,0.45,1,1v11
							C48.6,91,48.15,91.45,47.6,91.45z"/>
					</g>
				</g>
				<g>
					<g>
						<path class="st3" d="M52.59,80.45c-0.55,0-1-0.45-1-1c0-2.2-1.79-3.99-3.99-3.99c-0.55,0-1-0.45-1-1s0.45-1,1-1
							c3.3,0,5.99,2.69,5.99,5.99C53.59,80,53.14,80.45,52.59,80.45z"/>
					</g>
				</g>
				<g>
					<g>
						<path class="st3" d="M52.6,91.45c-0.55,0-1-0.45-1-1v-11c0-0.55,0.45-1,1-1s1,0.45,1,1v11C53.6,91,53.15,91.45,52.6,91.45z"/>
					</g>
				</g>
				<g>
					<g>
						<path class="st3" d="M57.59,80.45c-0.55,0-1-0.45-1-1c0-2.2-1.79-3.99-3.99-3.99c-0.55,0-1-0.45-1-1s0.45-1,1-1
							c3.3,0,5.99,2.69,5.99,5.99C58.59,80,58.15,80.45,57.59,80.45z"/>
					</g>
				</g>
				<g>
					<g>
						<path class="st3" d="M57.61,91.45c-0.55,0-1-0.45-1-1v-11c0-0.55,0.45-1,1-1c0.55,0,1,0.45,1,1v11
							C58.61,91,58.16,91.45,57.61,91.45z"/>
					</g>
				</g>
				<g>
					<g>
						<path class="st3" d="M57.61,91.45h-15c-0.55,0-1-0.45-1-1c0-0.55,0.45-1,1-1h15c0.55,0,1,0.45,1,1
							C58.61,91,58.16,91.45,57.61,91.45z"/>
					</g>
				</g>
				<g>
					<g>
						<path class="st3" d="M42.6,37.45c-0.55,0-1-0.45-1-1v-1c0-0.55,0.45-1,1-1c0.55,0,1,0.45,1,1v1
							C43.6,37,43.16,37.45,42.6,37.45z"/>
					</g>
				</g>
				<g>
					<g>
						<path class="st3" d="M50.6,37.45c-0.55,0-1-0.45-1-1v-1c0-0.55,0.45-1,1-1s1,0.45,1,1v1C51.6,37,51.15,37.45,50.6,37.45z"/>
					</g>
				</g>
				<g>
					<g>
						<path class="st3" d="M58.59,37.45c-0.55,0-1-0.45-1-1v-1c0-0.55,0.45-1,1-1c0.55,0,1,0.45,1,1v1
							C59.59,37,59.15,37.45,58.59,37.45z"/>
					</g>
				</g>
				<g>
					<g>
						<path class="st3" d="M66.58,37.45c-0.55,0-1-0.45-1-1v-1c0-0.55,0.45-1,1-1s1,0.45,1,1v1C67.58,37,67.14,37.45,66.58,37.45z"
							/>
					</g>
				</g>
			</g>
			<g>
				<g>
					<g>
						<path class="st3" d="M78.6,59.45c-0.55,0-1-0.45-1-1v-20c0-0.55,0.45-1,1-1s1,0.45,1,1v20C79.6,59.01,79.15,59.45,78.6,59.45z
							"/>
					</g>
				</g>
				<g>
					<g>
						<path class="st3" d="M94.6,75.46c-9.38,0-17-7.63-17-17c0-0.55,0.45-1,1-1s1,0.45,1,1c0,8.27,6.73,15,15,15c0.55,0,1,0.45,1,1
							S95.15,75.46,94.6,75.46z"/>
					</g>
				</g>
				<g>
					<g>
						<path class="st3" d="M94.6,75.46c-9.38,0-17-7.63-17-17c0-0.55,0.45-1,1-1s1,0.45,1,1c0,8.27,6.73,15,15,15c0.55,0,1,0.45,1,1
							S95.15,75.46,94.6,75.46z"/>
					</g>
				</g>
				<g>
					<g>
						<path class="st3" d="M102.61,75.46c-4.96,0-9-4.04-9-9c0-0.55,0.45-1,1-1s1,0.45,1,1c0,3.86,3.14,7,7,7c0.55,0,1,0.45,1,1
							S103.16,75.46,102.61,75.46z"/>
					</g>
				</g>
				<g>
					<g>
						<path class="st3" d="M98.6,75.46c-7.17,0-13.01-5.84-13.01-13.01c0-0.55,0.45-1,1-1c0.55,0,1,0.45,1,1
							c0,6.07,4.94,11.01,11.01,11.01c0.55,0,1,0.45,1,1S99.16,75.46,98.6,75.46z"/>
					</g>
				</g>
				<g>
					<g>
						<path class="st3" d="M86.61,63.45c-0.55,0-1-0.45-1-1V38.45c0-0.55,0.45-1,1-1c0.55,0,1,0.45,1,1v23.99
							C87.61,63,87.16,63.45,86.61,63.45z"/>
					</g>
				</g>
				<g>
					<g>
						<path class="st3" d="M94.62,67.45c-0.55,0-1-0.45-1-1v-28c0-0.55,0.45-1,1-1c0.55,0,1,0.45,1,1v28
							C95.62,67,95.17,67.45,94.62,67.45z"/>
					</g>
				</g>
				<g>
					<g>
						<path class="st3" d="M102.6,39.45h-24c-0.55,0-1-0.45-1-1c0-0.55,0.45-1,1-1h24c0.55,0,1,0.45,1,1
							C103.6,39,103.15,39.45,102.6,39.45z"/>
					</g>
				</g>
				<g>
					<g>
						<path class="st3" d="M102.6,91.45c-0.55,0-1-0.45-1-1V38.45c0-0.55,0.45-1,1-1s1,0.45,1,1v51.99
							C103.6,91,103.15,91.45,102.6,91.45z"/>
					</g>
				</g>
				<g>
					<g>
						<path class="st3" d="M102.6,75.46h-10c-0.55,0-1-0.45-1-1s0.45-1,1-1h10c0.55,0,1,0.45,1,1S103.15,75.46,102.6,75.46z"/>
					</g>
				</g>
				<g>
					<g>
						<path class="st3" d="M97.62,80.45c-0.55,0-1-0.45-1-1c0-3.3,2.69-5.99,5.99-5.99c0.55,0,1,0.45,1,1s-0.45,1-1,1
							c-2.2,0-3.99,1.79-3.99,3.99C98.62,80,98.17,80.45,97.62,80.45z"/>
					</g>
				</g>
				<g>
					<g>
						<path class="st3" d="M97.61,91.45c-0.55,0-1-0.45-1-1v-11c0-0.55,0.45-1,1-1s1,0.45,1,1v11C98.61,91,98.16,91.45,97.61,91.45z
							"/>
					</g>
				</g>
				<g>
					<g>
						<path class="st3" d="M92.61,80.45c-0.55,0-1-0.45-1-1c0-3.3,2.69-5.99,5.99-5.99c0.55,0,1,0.45,1,1s-0.45,1-1,1
							c-2.2,0-3.99,1.79-3.99,3.99C93.61,80,93.17,80.45,92.61,80.45z"/>
					</g>
				</g>
				<g>
					<g>
						<path class="st3" d="M92.6,91.45c-0.55,0-1-0.45-1-1v-11c0-0.55,0.45-1,1-1s1,0.45,1,1v11C93.6,91,93.15,91.45,92.6,91.45z"/>
					</g>
				</g>
				<g>
					<g>
						<path class="st3" d="M87.61,80.45c-0.55,0-1-0.45-1-1c0-3.3,2.69-5.99,5.99-5.99c0.55,0,1,0.45,1,1s-0.45,1-1,1
							c-2.2,0-3.99,1.79-3.99,3.99C88.61,80,88.16,80.45,87.61,80.45z"/>
					</g>
				</g>
				<g>
					<g>
						<path class="st3" d="M87.6,91.45c-0.55,0-1-0.45-1-1v-11c0-0.55,0.45-1,1-1c0.55,0,1,0.45,1,1v11
							C88.6,91,88.15,91.45,87.6,91.45z"/>
					</g>
				</g>
				<g>
					<g>
						<path class="st3" d="M102.6,91.45h-15c-0.55,0-1-0.45-1-1c0-0.55,0.45-1,1-1h15c0.55,0,1,0.45,1,1
							C103.6,91,103.15,91.45,102.6,91.45z"/>
					</g>
				</g>
				<g>
					<g>
						<path class="st3" d="M102.6,37.45c-0.55,0-1-0.45-1-1v-1c0-0.55,0.45-1,1-1s1,0.45,1,1v1C103.6,37,103.15,37.45,102.6,37.45z"
							/>
					</g>
				</g>
				<g>
					<g>
						<path class="st3" d="M94.6,37.45c-0.55,0-1-0.45-1-1v-1c0-0.55,0.45-1,1-1s1,0.45,1,1v1C95.6,37,95.15,37.45,94.6,37.45z"/>
					</g>
				</g>
				<g>
					<g>
						<path class="st3" d="M86.61,37.45c-0.55,0-1-0.45-1-1v-1c0-0.55,0.45-1,1-1c0.55,0,1,0.45,1,1v1
							C87.61,37,87.16,37.45,86.61,37.45z"/>
					</g>
				</g>
				<g>
					<g>
						<path class="st3" d="M78.62,37.45c-0.55,0-1-0.45-1-1v-1c0-0.55,0.45-1,1-1s1,0.45,1,1v1C79.62,37,79.17,37.45,78.62,37.45z"
							/>
					</g>
				</g>
			</g>
		</g>
	</g>
</g>
<g id="Layer_7" class="st0">
	<g class="st1">
		<g>
			<path class="st2" d="M55.03,112.25v-10.81h3.11c1.84,0,2.76,1.02,2.76,3.07c0,1-0.25,1.74-0.76,2.21c-0.5,0.47-1.21,0.7-2.13,0.7
				H57v4.83H55.03z M57,106.04h0.63c0.56,0,0.93-0.11,1.13-0.33c0.2-0.22,0.29-0.62,0.29-1.21c0-0.33-0.01-0.59-0.04-0.78
				c-0.03-0.18-0.09-0.35-0.18-0.5c-0.1-0.15-0.24-0.25-0.43-0.31s-0.44-0.08-0.77-0.08H57V106.04z"/>
			<path class="st2" d="M62.63,112.25v-10.81h4.53v1.39H64.6v3.1h2.02v1.39H64.6v3.57h2.59v1.36H62.63z"/>
			<path class="st2" d="M68.99,112.25v-10.81h2.48c0.57,0,1.06,0.05,1.47,0.14c0.41,0.09,0.76,0.25,1.07,0.47
				c0.3,0.22,0.53,0.52,0.68,0.89c0.15,0.38,0.22,0.84,0.22,1.38c0,0.68-0.1,1.23-0.3,1.66c-0.2,0.43-0.54,0.74-1,0.94l1.5,5.33
				h-1.98l-1.29-4.94h-0.87v4.94H68.99z M70.96,106.06h0.48c0.58,0,1-0.12,1.24-0.37c0.25-0.25,0.37-0.67,0.37-1.27
				c0-0.58-0.11-0.99-0.32-1.24c-0.21-0.25-0.6-0.38-1.17-0.38h-0.59V106.06z"/>
			<path class="st2" d="M79.97,112.38c-0.47,0-0.88-0.06-1.23-0.18s-0.65-0.28-0.88-0.49c-0.23-0.21-0.42-0.47-0.57-0.78
				s-0.25-0.64-0.31-1s-0.09-0.75-0.09-1.2v-3.77c0-0.47,0.03-0.89,0.09-1.25c0.06-0.36,0.16-0.7,0.31-1.01s0.33-0.57,0.56-0.77
				s0.53-0.36,0.88-0.47c0.35-0.11,0.77-0.17,1.24-0.17c0.54,0,1,0.07,1.38,0.21c0.38,0.14,0.68,0.35,0.91,0.63s0.38,0.6,0.48,0.97
				c0.1,0.37,0.15,0.81,0.15,1.3v0.93h-1.9v-0.92c0-0.54-0.03-0.9-0.08-1.09c-0.11-0.37-0.39-0.56-0.83-0.59c-0.03,0-0.07,0-0.1,0
				c-0.17,0-0.31,0.02-0.43,0.06c-0.12,0.04-0.22,0.1-0.3,0.19c-0.08,0.08-0.14,0.18-0.19,0.27s-0.08,0.22-0.11,0.38
				s-0.04,0.3-0.05,0.43c-0.01,0.13-0.01,0.3-0.01,0.5v4.58c0,0.63,0.08,1.09,0.24,1.36s0.44,0.4,0.85,0.4
				c0.14,0,0.26-0.02,0.37-0.05c0.11-0.03,0.2-0.07,0.27-0.12c0.07-0.05,0.13-0.12,0.18-0.22c0.05-0.09,0.09-0.18,0.11-0.26
				c0.03-0.08,0.04-0.19,0.06-0.34c0.01-0.14,0.02-0.26,0.02-0.37c0-0.1,0-0.24,0-0.41v-0.97h1.9v0.89c0,0.4-0.03,0.77-0.08,1.09
				c-0.06,0.32-0.15,0.62-0.29,0.91c-0.14,0.28-0.31,0.52-0.53,0.7c-0.22,0.19-0.5,0.33-0.83,0.44
				C80.81,112.33,80.41,112.38,79.97,112.38z"/>
			<path class="st2" d="M84.36,112.25l2.2-10.81h2.05l2.19,10.81h-1.83l-0.44-2.51h-1.87l-0.44,2.51H84.36z M86.87,108.46h1.45
				l-0.72-4.44L86.87,108.46z"/>
			<path class="st2" d="M92.53,112.25v-10.81h1.97v9.45h2.59v1.36H92.53z"/>
		</g>
		<g transform="translate(0,-288.53332)">
			<path class="st3" d="M47.24,322.72c0,0.74-0.6,1.33-1.33,1.33c-0.74,0-1.33-0.6-1.33-1.33c0-0.74,0.6-1.33,1.33-1.33
				C46.65,321.38,47.24,321.98,47.24,322.72z"/>
			<path class="st3" d="M100.63,322.69c0,0.74-0.6,1.33-1.33,1.33s-1.33-0.6-1.33-1.33c0-0.74,0.6-1.33,1.33-1.33
				S100.63,321.95,100.63,322.69z"/>
			<path class="st3" d="M40.51,361.42v-4c0-2.95,2.39-5.34,5.34-5.34h53.39c2.95,0,5.34,2.39,5.34,5.34l0,4H40.51z"/>
			<path class="st3" d="M39.24,364.09v9.34h5.34v2.67h8.01v-2.67h40.04v2.67h8.01v-2.67h5.34v-9.34H39.24z"/>
			<path class="st4" d="M73.27,323.63c-5.49,0-10.32,1.12-15.46,3.37l-5.51,2.41h-5.06v-2.65c0.01-0.75-0.6-1.37-1.36-1.36
				c-0.74,0-1.33,0.62-1.31,1.36c0,8.29,0,22.65,0,22.65h6.65l-0.12-4.75c-0.05-1.8-1.19-4.53-1.19-4.53s2.1-0.35,4.25,0.87
				c1.28,0.72,3.14-0.64,5.11-0.64h1.3c1.97,0,3.71,1.05,5.1,0.64c1.64-0.48,4.25-0.86,4.25-0.86s-1.26,1.78-1.19,4.53l0.12,4.75
				h7.73l-0.12-4.75c-0.05-1.8-1.19-4.53-1.19-4.53s2.1-0.35,4.25,0.87c1.28,0.72,3.14-0.64,5.11-0.64h1.3
				c1.97,0,3.71,1.05,5.1,0.64c1.64-0.48,4.25-0.86,4.25-0.86s-1.26,1.78-1.19,4.53l0.12,4.75h6.41v-22.65c0.03-1.8-2.69-1.8-2.67,0
				v2.65l-5.06-0.03l-5.51-2.41C82.25,324.72,78.76,323.62,73.27,323.63L73.27,323.63z"/>
		</g>
	</g>
</g>
<g id="Layer_8" class="st0">
	<g class="st1">
		<g>
			<path class="st2" d="M45.04,114.23v-9.36h-1.81v-1.45h5.54v1.45h-1.75v9.36H45.04z"/>
			<path class="st2" d="M49.68,114.23l2.2-10.81h2.05l2.19,10.81h-1.83l-0.44-2.51h-1.87l-0.44,2.51H49.68z M52.19,110.43h1.45
				l-0.72-4.44L52.19,110.43z"/>
			<path class="st2" d="M57.85,114.23v-10.81h3.11c1.84,0,2.77,1.02,2.77,3.07c0,1-0.25,1.74-0.76,2.21c-0.5,0.47-1.22,0.7-2.13,0.7
				h-1.02v4.83H57.85z M59.82,108.01h0.63c0.56,0,0.93-0.11,1.13-0.33c0.2-0.22,0.29-0.62,0.29-1.21c0-0.33-0.01-0.59-0.04-0.78
				c-0.03-0.18-0.09-0.35-0.18-0.5c-0.1-0.15-0.24-0.25-0.43-0.31s-0.44-0.08-0.77-0.08h-0.64V108.01z"/>
			<path class="st2" d="M65.51,114.23v-10.81h1.94v10.81H65.51z"/>
			<path class="st2" d="M72.68,114.36c-0.47,0-0.88-0.06-1.23-0.18s-0.65-0.28-0.88-0.49c-0.23-0.21-0.42-0.47-0.57-0.78
				c-0.15-0.31-0.25-0.64-0.31-1s-0.09-0.75-0.09-1.2v-3.77c0-0.47,0.03-0.89,0.09-1.25s0.16-0.7,0.31-1.01s0.33-0.57,0.56-0.77
				c0.23-0.2,0.53-0.36,0.88-0.47c0.35-0.11,0.77-0.17,1.24-0.17c0.54,0,1,0.07,1.38,0.21c0.38,0.14,0.69,0.35,0.91,0.63
				s0.38,0.6,0.48,0.97c0.1,0.37,0.15,0.81,0.15,1.3v0.93h-1.9v-0.92c0-0.54-0.03-0.9-0.08-1.09c-0.11-0.37-0.39-0.56-0.83-0.59
				c-0.04,0-0.07,0-0.1,0c-0.17,0-0.31,0.02-0.43,0.06s-0.22,0.1-0.3,0.19c-0.08,0.08-0.14,0.18-0.19,0.27s-0.08,0.22-0.11,0.38
				c-0.02,0.15-0.04,0.3-0.05,0.43s-0.01,0.3-0.01,0.5v4.58c0,0.63,0.08,1.09,0.24,1.36c0.16,0.27,0.44,0.4,0.85,0.4
				c0.14,0,0.26-0.02,0.37-0.05c0.11-0.03,0.2-0.07,0.27-0.12c0.07-0.05,0.13-0.12,0.18-0.22c0.05-0.09,0.09-0.18,0.11-0.26
				c0.03-0.08,0.05-0.19,0.06-0.34c0.01-0.14,0.02-0.26,0.02-0.37c0-0.1,0-0.24,0-0.41v-0.97h1.9v0.89c0,0.4-0.03,0.77-0.08,1.09
				c-0.06,0.32-0.15,0.62-0.29,0.91c-0.14,0.28-0.31,0.52-0.53,0.7c-0.22,0.19-0.5,0.33-0.83,0.44
				C73.52,114.3,73.13,114.36,72.68,114.36z"/>
			<path class="st2" d="M77.64,114.23v-10.81h4.53v1.39h-2.56v3.1h2.02v1.39h-2.02v3.57h2.59v1.36H77.64z"/>
			<path class="st2" d="M84,114.23v-10.81h2.48c0.57,0,1.06,0.05,1.47,0.14c0.41,0.09,0.76,0.25,1.07,0.47
				c0.3,0.22,0.53,0.52,0.68,0.89c0.15,0.38,0.22,0.84,0.22,1.38c0,0.68-0.1,1.23-0.3,1.66c-0.2,0.43-0.54,0.74-1,0.94l1.5,5.33
				h-1.98l-1.29-4.94h-0.87v4.94H84z M85.97,108.03h0.48c0.58,0,1-0.12,1.24-0.37c0.25-0.25,0.37-0.67,0.37-1.27
				c0-0.58-0.11-0.99-0.32-1.24s-0.6-0.38-1.17-0.38h-0.59V108.03z"/>
			<path class="st2" d="M92.13,114.23v-10.81h1.94v10.81H92.13z M92.58,102.49l0.79-2.67h1.85l-1.6,2.67H92.58z"/>
			<path class="st2" d="M95.85,114.23l2.2-10.81h2.05l2.19,10.81h-1.83l-0.44-2.51h-1.87l-0.44,2.51H95.85z M98.36,110.43h1.45
				l-0.72-4.44L98.36,110.43z"/>
		</g>
		<g>
			<path class="st3" d="M56.01,58.72c0,0,19.09-3.75,32.99,0c0-8.84,5.35-12.51,5.35-13.94c0-9.29-6.96-13.94-20.34-13.94H71
				c-13.38,0-20.34,4.65-20.34,13.94C50.66,46.21,56.01,49.74,56.01,58.72z M56.01,61.59V82.3h33.18V61.59
				C70.6,59.51,56.01,61.59,56.01,61.59z M99.03,83.8C103.4,65.7,110.12,48,97.65,48c-7.97,0-6.13,16.52-6.13,35.8
				C91.52,83.8,95.68,83.78,99.03,83.8z M46.17,83.8c-0.06-0.16,7.55,0.22,7.43,0.11C53.6,64.63,55.53,48,47.55,48
				C35.08,48,41.8,65.7,46.17,83.8z"/>
		</g>
	</g>
</g>
<g id="Layer_9" class="st0">
	<g class="st1">
		<g>
			<path class="st2" d="M48.58,114.67v-10.81h4.44v1.36h-2.47v3.14h1.98v1.39h-1.98v4.92H48.58z"/>
			<path class="st2" d="M54.78,114.67v-10.81h1.94v10.81H54.78z"/>
			<path class="st2" d="M59.05,114.67v-10.81h2.65c0.5,0,0.94,0.04,1.31,0.13c0.37,0.09,0.7,0.24,0.99,0.44
				c0.29,0.21,0.51,0.49,0.66,0.86s0.22,0.81,0.22,1.32c0,1.33-0.53,2.08-1.59,2.24c0.64,0.12,1.12,0.4,1.43,0.84
				c0.31,0.44,0.47,1.05,0.48,1.84c0,1.03-0.25,1.81-0.77,2.34c-0.52,0.53-1.27,0.8-2.26,0.8H59.05z M61.02,108.27h0.61
				c0.58,0,0.98-0.12,1.19-0.37c0.22-0.25,0.33-0.67,0.33-1.25c0-0.3-0.04-0.55-0.11-0.74c-0.07-0.19-0.19-0.33-0.36-0.43
				c-0.17-0.1-0.36-0.16-0.56-0.19s-0.48-0.05-0.82-0.05h-0.27V108.27z M61.02,113.28h0.72c0.59,0,0.99-0.14,1.22-0.41
				c0.23-0.27,0.34-0.73,0.34-1.36c0-0.65-0.13-1.13-0.38-1.42c-0.25-0.29-0.68-0.44-1.28-0.44h-0.62V113.28z"/>
			<path class="st2" d="M67.14,114.67v-10.81h2.48c0.57,0,1.06,0.05,1.47,0.14c0.41,0.09,0.76,0.25,1.07,0.47s0.53,0.52,0.68,0.89
				c0.15,0.38,0.22,0.84,0.22,1.38c0,0.68-0.1,1.23-0.3,1.66c-0.2,0.43-0.54,0.74-1,0.94l1.5,5.33h-1.98l-1.29-4.94h-0.87v4.94
				H67.14z M69.11,108.48h0.48c0.58,0,1-0.12,1.24-0.37c0.25-0.25,0.37-0.67,0.37-1.27c0-0.58-0.11-0.99-0.32-1.24
				s-0.6-0.38-1.17-0.38h-0.59V108.48z"/>
			<path class="st2" d="M74.65,114.67l2.2-10.81h2.05l2.19,10.81h-1.83l-0.44-2.51h-1.87l-0.44,2.51H74.65z M77.16,110.88h1.45
				l-0.72-4.44L77.16,110.88z"/>
			<path class="st2" d="M82.83,114.67v-10.81h1.36l2.65,6.12v-6.12h1.63v10.81h-1.29l-2.67-6.44v6.44H82.83z"/>
			<path class="st2" d="M90.19,114.67l2.2-10.81h2.05l2.19,10.81H94.8l-0.44-2.51h-1.87l-0.44,2.51H90.19z M92.7,110.88h1.45
				l-0.72-4.44L92.7,110.88z"/>
		</g>
		<g>
			<path class="st3" d="M75.99,44.67v1.83H64.87c0.06,0.91,0.1,1.83,0.12,2.75h14.67c0.01-0.92,0.06-1.84,0.12-2.75h-1.95v-1.83h2.1
				c0.45-4.47,1.49-8.86,3.09-13.09l-2.93-0.87c0.31,0.62,0.49,1.31,0.49,2.04c0,2.53-2.06,4.58-4.58,4.58
				c-1.48,0-2.82-0.72-3.67-1.85c-0.85,1.13-2.18,1.85-3.67,1.85c-2.53,0-4.58-2.06-4.58-4.58c0-0.73,0.18-1.42,0.49-2.04
				l-2.93,0.87c1.6,4.24,2.64,8.62,3.09,13.09H75.99z"/>
			<path class="st3" d="M88.36,39.58l-3.95-6.49c-0.99,2.79-1.73,5.64-2.21,8.54L88.36,39.58z"/>
			<path class="st3" d="M68.66,35.5c0.9,0,1.71-0.44,2.22-1.13c-1.86-0.51-3.32-1.97-3.83-3.83c-0.69,0.51-1.13,1.32-1.13,2.22
				C65.91,34.27,67.14,35.5,68.66,35.5z"/>
			<path class="st3" d="M75.99,35.5c1.52,0,2.75-1.23,2.75-2.75c0-0.9-0.44-1.71-1.13-2.22c-0.51,1.86-1.97,3.32-3.83,3.83
				C74.28,35.06,75.09,35.5,75.99,35.5z"/>
			<path class="st3" d="M60.24,33.09l-3.95,6.49l6.17,2.06C61.97,38.73,61.24,35.88,60.24,33.09z"/>
			<path class="st3" d="M91.83,67.89c-5.31-4.5-9.4-10.3-11.88-16.8H64.7c-2.48,6.5-6.57,12.3-11.88,16.8l-3.09,2.62
				c1.3,1.67,3.51,2.47,5.6,1.97l1.44-0.34l-0.34,1.44c-0.55,2.34,0.52,4.82,2.6,6.02c2.09,1.21,4.77,0.89,6.52-0.76l1.08-1.02
				l0.43,1.42c0.69,2.31,2.86,3.92,5.26,3.92c2.41,0,4.57-1.61,5.26-3.92l0.43-1.42l1.08,1.02c1.75,1.65,4.43,1.97,6.52,0.76
				c2.09-1.2,3.15-3.68,2.6-6.02l-0.34-1.44l1.44,0.34c2.1,0.5,4.3-0.31,5.6-1.97L91.83,67.89z M60.75,78.47l-1.59-0.92l0.92-1.59
				l1.59,0.92L60.75,78.47z M73.24,81.33h-1.83V79.5h1.83V81.33z M83.91,78.47l-0.92-1.59l1.59-0.92l0.92,1.59L83.91,78.47z"/>
		</g>
	</g>
</g>
<g id="Layer_10" class="st0">
	<g class="st1">
		<g>
			<path class="st2" d="M37.23,114.3l0.18-10.81h2.02l1.57,7.6l1.61-7.6h1.98l0.18,10.81h-1.49l-0.13-7.45l-1.56,7.45h-1.15
				l-1.58-7.47l-0.12,7.47H37.23z"/>
			<path class="st2" d="M47.08,114.3v-10.81h1.94v10.81H47.08z"/>
			<path class="st2" d="M54.26,114.43c-0.47,0-0.88-0.06-1.23-0.18s-0.65-0.28-0.88-0.49c-0.23-0.21-0.42-0.47-0.57-0.78
				c-0.15-0.31-0.25-0.64-0.31-1s-0.09-0.75-0.09-1.2v-3.77c0-0.47,0.03-0.89,0.09-1.25c0.06-0.36,0.16-0.7,0.31-1.01
				s0.33-0.57,0.56-0.77c0.23-0.2,0.53-0.36,0.88-0.47c0.35-0.11,0.77-0.17,1.24-0.17c0.54,0,1,0.07,1.38,0.21
				c0.38,0.14,0.69,0.35,0.91,0.63s0.38,0.6,0.48,0.97c0.1,0.37,0.15,0.81,0.15,1.3v0.93h-1.9v-0.92c0-0.54-0.03-0.9-0.08-1.09
				c-0.11-0.37-0.39-0.56-0.83-0.59c-0.04,0-0.07,0-0.1,0c-0.17,0-0.31,0.02-0.43,0.06s-0.23,0.1-0.3,0.19
				c-0.08,0.08-0.14,0.18-0.19,0.27s-0.08,0.22-0.11,0.38s-0.04,0.3-0.05,0.43c-0.01,0.13-0.01,0.3-0.01,0.5v4.58
				c0,0.63,0.08,1.09,0.24,1.36s0.44,0.4,0.85,0.4c0.14,0,0.26-0.02,0.37-0.05c0.11-0.03,0.2-0.07,0.27-0.12s0.13-0.12,0.18-0.22
				c0.05-0.09,0.09-0.18,0.11-0.26c0.03-0.08,0.05-0.19,0.06-0.34c0.01-0.14,0.02-0.26,0.02-0.37c0-0.1,0-0.24,0-0.41v-0.97h1.9
				v0.89c0,0.4-0.03,0.77-0.08,1.09c-0.06,0.32-0.15,0.62-0.29,0.91c-0.14,0.28-0.31,0.52-0.53,0.7c-0.22,0.19-0.5,0.33-0.83,0.44
				C55.1,114.38,54.71,114.43,54.26,114.43z"/>
			<path class="st2" d="M59.21,114.3v-10.81h2.48c0.57,0,1.06,0.05,1.47,0.14c0.41,0.09,0.76,0.25,1.07,0.47s0.53,0.52,0.68,0.89
				c0.15,0.38,0.22,0.84,0.22,1.38c0,0.68-0.1,1.23-0.3,1.66c-0.2,0.43-0.54,0.74-1,0.94l1.5,5.33h-1.98l-1.29-4.94h-0.87v4.94
				H59.21z M61.18,108.1h0.48c0.58,0,1-0.12,1.24-0.37s0.37-0.67,0.37-1.27c0-0.58-0.11-0.99-0.32-1.24s-0.6-0.38-1.17-0.38h-0.59
				V108.1z"/>
			<path class="st2" d="M70.23,114.43c-1.11,0-1.91-0.3-2.39-0.91c-0.48-0.6-0.72-1.49-0.72-2.65v-3.99c0-0.57,0.05-1.07,0.16-1.49
				c0.11-0.42,0.28-0.79,0.53-1.1c0.24-0.31,0.56-0.54,0.97-0.69c0.4-0.15,0.89-0.23,1.46-0.23c1.11,0,1.9,0.3,2.39,0.89
				s0.73,1.47,0.73,2.62v3.99c0,0.57-0.06,1.06-0.17,1.49c-0.11,0.43-0.29,0.8-0.53,1.12c-0.24,0.32-0.56,0.55-0.97,0.71
				C71.28,114.35,70.8,114.43,70.23,114.43z M69.74,112.89c0.14,0.06,0.3,0.08,0.49,0.08s0.35-0.03,0.49-0.08s0.24-0.13,0.32-0.22
				c0.08-0.09,0.14-0.21,0.19-0.36c0.05-0.15,0.08-0.29,0.09-0.44c0.02-0.15,0.02-0.32,0.02-0.53v-4.91c0-0.26-0.01-0.48-0.04-0.65
				c-0.03-0.17-0.08-0.34-0.15-0.49s-0.19-0.27-0.34-0.35s-0.35-0.11-0.58-0.11c-0.24,0-0.43,0.04-0.58,0.11s-0.27,0.19-0.34,0.35
				c-0.07,0.15-0.12,0.32-0.15,0.49c-0.03,0.17-0.04,0.39-0.04,0.65v4.91c0,0.21,0.01,0.38,0.02,0.53c0.01,0.15,0.05,0.3,0.09,0.44
				c0.05,0.15,0.11,0.27,0.19,0.36C69.49,112.75,69.6,112.83,69.74,112.89z"/>
			<path class="st2" d="M75.46,114.3v-10.81h4.44v1.36h-2.47v3.14h1.98v1.39h-1.98v4.92H75.46z"/>
			<path class="st2" d="M81.66,114.3v-10.81h1.94v10.81H81.66z"/>
			<path class="st2" d="M85.94,114.3v-10.81h2.65c0.5,0,0.94,0.04,1.31,0.13c0.37,0.09,0.7,0.24,0.99,0.44
				c0.29,0.21,0.51,0.49,0.66,0.86s0.22,0.81,0.21,1.32c0,1.33-0.53,2.08-1.59,2.24c0.64,0.12,1.12,0.4,1.43,0.84
				c0.32,0.44,0.47,1.05,0.48,1.84c0,1.03-0.25,1.81-0.77,2.34s-1.27,0.8-2.26,0.8H85.94z M87.91,107.9h0.61
				c0.58,0,0.98-0.12,1.19-0.37c0.22-0.25,0.33-0.67,0.33-1.25c0-0.3-0.04-0.55-0.11-0.74c-0.07-0.19-0.19-0.33-0.36-0.43
				c-0.17-0.1-0.36-0.16-0.56-0.19c-0.21-0.03-0.48-0.05-0.83-0.05h-0.27V107.9z M87.91,112.91h0.72c0.59,0,0.99-0.14,1.22-0.41
				c0.23-0.27,0.34-0.73,0.34-1.36c0-0.65-0.13-1.13-0.38-1.42c-0.25-0.29-0.68-0.44-1.28-0.44h-0.62V112.91z"/>
			<path class="st2" d="M94.02,114.3v-10.81h2.48c0.57,0,1.06,0.05,1.47,0.14c0.41,0.09,0.76,0.25,1.07,0.47
				c0.3,0.22,0.53,0.52,0.68,0.89c0.15,0.38,0.22,0.84,0.22,1.38c0,0.68-0.1,1.23-0.3,1.66c-0.2,0.43-0.54,0.74-1,0.94l1.5,5.33
				h-1.98l-1.29-4.94h-0.87v4.94H94.02z M95.99,108.1h0.48c0.58,0,1-0.12,1.24-0.37s0.37-0.67,0.37-1.27c0-0.58-0.11-0.99-0.32-1.24
				s-0.6-0.38-1.17-0.38h-0.59V108.1z"/>
			<path class="st2" d="M101.53,114.3l2.2-10.81h2.05l2.19,10.81h-1.83l-0.44-2.51h-1.87l-0.44,2.51H101.53z M104.05,110.5h1.45
				l-0.72-4.44L104.05,110.5z"/>
		</g>
		<g>
			<path class="st3" d="M94.68,44.3v28.83h2.38c0.79,1.06,1.85,1.85,3.17,2.12c2.12,0.53,2.91,0,2.12-2.12
				c-0.26-1.32-1.06-2.65-1.85-3.44V36.63c0.79-1.06,1.59-2.12,1.85-3.44c0.79-2.12,0-2.91-2.12-2.12
				c-1.32,0.26-2.38,0.79-3.17,1.85H61.35c-1.06-1.06-2.12-1.59-3.44-1.85c-2.12-0.79-2.65,0-2.12,2.12
				c0.26,1.32,1.06,2.38,2.12,3.44v1.85h31.21c1.06-0.79,2.38-1.59,3.7-1.85c3.17-0.79,4.76,0.79,3.97,3.97
				C96.27,41.92,95.74,43.24,94.68,44.3z M93.36,76.84V43.77c0.79-1.06,1.59-2.12,1.85-3.44c0.79-2.12,0-2.91-2.12-2.38
				c-1.32,0.53-2.38,1.06-3.17,2.12H54.21c-1.06-1.06-2.12-1.59-3.44-2.12c-2.12-0.53-2.65,0.26-2.12,2.38
				c0.26,1.32,1.06,2.38,2.12,3.44v33.07c-1.06,0.79-1.85,2.12-2.12,3.44c-0.53,1.85,0,2.65,2.12,2.12
				c1.32-0.53,2.38-1.06,3.44-2.12h35.71c0.79,1.06,1.85,1.59,3.17,2.12c2.12,0.53,2.91-0.26,2.12-2.12
				C94.95,78.96,94.16,77.63,93.36,76.84z"/>
		</g>
	</g>
</g>
<g id="Layer_11" class="st0">
	<g class="st1">
		<g>
			<path class="st2" d="M46.98,119.18v-10.81h3.11c1.84,0,2.77,1.02,2.77,3.07c0,1-0.25,1.74-0.76,2.21c-0.5,0.47-1.22,0.7-2.13,0.7
				h-1.02v4.83H46.98z M48.95,112.96h0.63c0.56,0,0.93-0.11,1.13-0.33c0.2-0.22,0.29-0.62,0.29-1.21c0-0.33-0.01-0.59-0.04-0.78
				c-0.03-0.18-0.09-0.35-0.18-0.5c-0.1-0.15-0.24-0.25-0.43-0.31s-0.44-0.08-0.77-0.08h-0.64V112.96z"/>
			<path class="st2" d="M54.58,119.18v-10.81h2.48c0.57,0,1.06,0.05,1.47,0.14c0.41,0.09,0.76,0.25,1.07,0.47s0.53,0.52,0.68,0.89
				c0.15,0.38,0.22,0.84,0.22,1.38c0,0.68-0.1,1.23-0.3,1.66c-0.2,0.43-0.54,0.74-1,0.94l1.5,5.33h-1.98l-1.29-4.94h-0.87v4.94
				H54.58z M56.55,112.98h0.48c0.58,0,1-0.12,1.24-0.37s0.37-0.67,0.37-1.27c0-0.58-0.11-0.99-0.32-1.24s-0.6-0.38-1.17-0.38h-0.59
				V112.98z"/>
			<path class="st2" d="M65.59,119.31c-1.11,0-1.91-0.3-2.39-0.91c-0.48-0.6-0.72-1.49-0.72-2.65v-3.99c0-0.57,0.05-1.07,0.16-1.49
				c0.11-0.42,0.28-0.79,0.53-1.1c0.24-0.31,0.56-0.54,0.97-0.69c0.4-0.15,0.89-0.23,1.46-0.23c1.11,0,1.91,0.3,2.39,0.89
				c0.49,0.6,0.73,1.47,0.73,2.62v3.99c0,0.57-0.06,1.06-0.17,1.49c-0.11,0.43-0.29,0.8-0.53,1.12s-0.56,0.55-0.97,0.71
				C66.64,119.23,66.16,119.31,65.59,119.31z M65.1,117.76c0.14,0.06,0.3,0.08,0.49,0.08s0.35-0.03,0.49-0.08s0.24-0.13,0.32-0.22
				c0.08-0.09,0.14-0.21,0.19-0.36c0.05-0.15,0.08-0.29,0.09-0.44c0.01-0.15,0.02-0.32,0.02-0.53v-4.91c0-0.26-0.01-0.48-0.04-0.65
				s-0.08-0.34-0.15-0.49s-0.19-0.27-0.34-0.35c-0.15-0.08-0.35-0.11-0.58-0.11s-0.43,0.04-0.58,0.11s-0.27,0.19-0.34,0.35
				c-0.07,0.15-0.12,0.32-0.15,0.49s-0.04,0.39-0.04,0.65v4.91c0,0.21,0.01,0.38,0.02,0.53c0.02,0.15,0.05,0.3,0.09,0.44
				c0.05,0.15,0.11,0.27,0.19,0.36C64.86,117.63,64.96,117.7,65.1,117.76z"/>
			<path class="st2" d="M70.8,119.18l0.18-10.81H73l1.56,7.6l1.61-7.6h1.98l0.18,10.81h-1.49l-0.13-7.45l-1.56,7.45H74l-1.58-7.47
				l-0.12,7.47H70.8z"/>
			<path class="st2" d="M83.54,119.31c-1.11,0-1.91-0.3-2.39-0.91c-0.48-0.6-0.72-1.49-0.72-2.65v-3.99c0-0.57,0.05-1.07,0.16-1.49
				c0.11-0.42,0.28-0.79,0.53-1.1c0.24-0.31,0.56-0.54,0.97-0.69s0.89-0.23,1.46-0.23c1.11,0,1.91,0.3,2.39,0.89
				c0.48,0.6,0.73,1.47,0.73,2.62v3.99c0,0.57-0.05,1.06-0.17,1.49c-0.11,0.43-0.29,0.8-0.53,1.12s-0.56,0.55-0.97,0.71
				C84.59,119.23,84.1,119.31,83.54,119.31z M83.05,117.76c0.14,0.06,0.3,0.08,0.49,0.08s0.35-0.03,0.49-0.08
				c0.13-0.06,0.24-0.13,0.32-0.22c0.08-0.09,0.14-0.21,0.19-0.36c0.05-0.15,0.08-0.29,0.09-0.44c0.02-0.15,0.02-0.32,0.02-0.53
				v-4.91c0-0.26-0.01-0.48-0.04-0.65c-0.03-0.17-0.08-0.34-0.15-0.49c-0.08-0.15-0.19-0.27-0.34-0.35s-0.35-0.11-0.58-0.11
				s-0.43,0.04-0.58,0.11s-0.27,0.19-0.34,0.35s-0.13,0.32-0.15,0.49s-0.04,0.39-0.04,0.65v4.91c0,0.21,0.01,0.38,0.02,0.53
				c0.01,0.15,0.04,0.3,0.09,0.44c0.05,0.15,0.11,0.27,0.19,0.36C82.8,117.63,82.91,117.7,83.05,117.76z"/>
			<path class="st2" d="M91.49,119.31c-1.9,0-2.9-1.1-3-3.3l1.71-0.36c0.04,1.43,0.45,2.15,1.23,2.15c0.3,0,0.52-0.09,0.67-0.27
				c0.15-0.18,0.22-0.43,0.22-0.74c0-0.3-0.05-0.58-0.16-0.83c-0.11-0.25-0.23-0.45-0.38-0.61c-0.14-0.16-0.35-0.36-0.61-0.59
				l-1.42-1.23c-0.42-0.37-0.73-0.74-0.93-1.14s-0.31-0.89-0.31-1.48c0-0.84,0.25-1.49,0.74-1.96c0.49-0.47,1.17-0.7,2.03-0.71
				c0.4,0,0.75,0.04,1.05,0.15s0.56,0.24,0.75,0.41c0.2,0.17,0.36,0.39,0.5,0.64c0.13,0.26,0.23,0.52,0.3,0.8
				c0.07,0.28,0.11,0.58,0.14,0.92l-1.68,0.33c-0.01-0.22-0.02-0.41-0.04-0.57c-0.02-0.16-0.05-0.32-0.1-0.49
				c-0.05-0.17-0.11-0.3-0.19-0.4c-0.08-0.1-0.18-0.18-0.31-0.25c-0.13-0.06-0.28-0.08-0.45-0.07c-0.29,0.02-0.51,0.11-0.67,0.29
				c-0.16,0.18-0.23,0.41-0.23,0.71c0,0.35,0.07,0.63,0.21,0.86c0.14,0.22,0.35,0.46,0.64,0.72l1.41,1.23
				c0.23,0.21,0.44,0.42,0.61,0.62c0.17,0.2,0.34,0.43,0.5,0.69c0.16,0.26,0.28,0.54,0.36,0.85s0.12,0.63,0.12,0.98
				c0,0.79-0.25,1.43-0.75,1.92S92.3,119.31,91.49,119.31z"/>
		</g>
		<g>
			<path class="st3" d="M79.76,59.36c-2.7,0-4.84,2.49-4.84,5.55s2.17,5.55,4.84,5.55c2.67,0,4.84-2.49,4.84-5.55
				C84.6,61.85,82.45,59.36,79.76,59.36z M79.78,67.15c-0.84,0-1.56-1.04-1.56-2.24c0-1.19,0.72-2.24,1.56-2.24
				c0.84,0,1.56,1.04,1.56,2.24C81.34,66.11,80.62,67.15,79.78,67.15z"/>
			<path class="st3" d="M70.25,57.12c0-3.06-2.17-5.55-4.84-5.55c-2.67,0-4.84,2.49-4.84,5.55c0,3.06,2.17,5.55,4.84,5.55
				C68.08,62.68,70.25,60.19,70.25,57.12z M65.41,59.36c-0.82,0-1.56-1.04-1.56-2.24c0-1.2,0.72-2.24,1.56-2.24
				c0.84,0,1.56,1.04,1.56,2.24C66.97,58.32,66.23,59.36,65.41,59.36z"/>
			<path class="st3" d="M78.45,50.95c-0.74-0.54-1.78-0.37-2.31,0.37c-0.08,0.11-0.14,0.22-0.19,0.35l-9.59,17.1
				c-0.54,0.74-0.37,1.78,0.37,2.31c0.74,0.54,1.78,0.37,2.31-0.37c0.08-0.11,0.14-0.22,0.19-0.35l9.59-17.1
				C79.35,52.52,79.19,51.49,78.45,50.95z"/>
			<path class="st3" d="M72.6,25.9c-19.4,0-35.12,15.72-35.12,35.12c0,19.4,15.72,35.12,35.12,35.12s35.12-15.72,35.12-35.12
				C107.72,41.62,92,25.9,72.6,25.9z M96.28,63.21c-0.09,0.1-0.18,0.19-0.28,0.28l-0.94,0.83c-1.03,0.91-1.37,2.37-0.84,3.64
				l0.48,1.16c0.68,1.62-0.09,3.49-1.71,4.17c-0.12,0.05-0.24,0.09-0.37,0.13l-1.21,0.34c-1.32,0.35-2.26,1.49-2.36,2.85l-0.07,1.25
				c-0.09,1.69-1.49,3.01-3.18,3.02c-0.19,0-0.38-0.02-0.57-0.05l-1.24-0.2c-1.35-0.24-2.7,0.4-3.35,1.6l-0.59,1.1
				c-0.84,1.54-2.78,2.11-4.32,1.26c-0.12-0.07-0.24-0.14-0.35-0.22l-1.04-0.73c-1.11-0.8-2.61-0.8-3.72,0l-1.04,0.73
				c-1.42,1.03-3.41,0.71-4.45-0.71c-0.08-0.12-0.16-0.24-0.23-0.36l-0.6-1.1c-0.65-1.2-2-1.86-3.34-1.63l-1.17,0.2
				c-0.18,0.03-0.37,0.05-0.55,0.05c-1.7,0-3.1-1.34-3.18-3.04l-0.06-1.25c-0.07-1.37-1-2.54-2.31-2.91l-1.2-0.34
				c-1.7-0.48-2.69-2.23-2.21-3.93c0.04-0.13,0.08-0.26,0.13-0.38l0.49-1.15c0.54-1.26,0.21-2.73-0.82-3.64l-0.93-0.83
				c-1.3-1.19-1.39-3.21-0.2-4.5c0.08-0.09,0.17-0.17,0.26-0.25l0.94-0.83c1.03-0.91,1.37-2.37,0.84-3.64l-0.48-1.16
				c-0.68-1.62,0.09-3.49,1.71-4.17c0.12-0.05,0.24-0.09,0.37-0.13l1.21-0.34c1.3-0.37,2.23-1.52,2.31-2.87l0.07-1.25
				c0.09-1.69,1.49-3.01,3.18-3.02c0.19,0,0.38,0.02,0.57,0.05l1.24,0.22c1.35,0.24,2.7-0.41,3.35-1.6l0.6-1.12
				c0.84-1.54,2.78-2.11,4.32-1.26c0.12,0.07,0.24,0.14,0.35,0.22l1.04,0.73c1.11,0.8,2.61,0.8,3.72,0l1.04-0.73
				c1.43-1.03,3.42-0.71,4.45,0.72c0.08,0.11,0.16,0.23,0.22,0.36l0.6,1.1c0.56,1.03,1.63,1.67,2.8,1.67c0.17,0,0.35-0.02,0.52-0.05
				l1.19-0.2c0.18-0.03,0.37-0.05,0.55-0.05c1.7,0,3.1,1.34,3.18,3.04l0.06,1.25c0.07,1.37,1,2.54,2.31,2.91l1.2,0.34
				c1.7,0.48,2.68,2.23,2.21,3.93c-0.04,0.13-0.08,0.26-0.13,0.38l-0.49,1.15c-0.54,1.26-0.21,2.73,0.82,3.63l0.93,0.83
				C97.32,59.88,97.45,61.89,96.28,63.21z"/>
		</g>
	</g>
</g>
<g id="Layer_12" class="st0">
	<g class="st1">
		<g>
			<path class="st2" d="M43.22,114.6v-10.81h3.11c1.84,0,2.76,1.02,2.76,3.07c0,1-0.25,1.74-0.76,2.21c-0.5,0.47-1.21,0.7-2.13,0.7
				h-1.02v4.83H43.22z M45.19,108.39h0.63c0.56,0,0.93-0.11,1.13-0.33c0.2-0.22,0.29-0.62,0.29-1.21c0-0.33-0.01-0.59-0.04-0.78
				c-0.03-0.18-0.09-0.35-0.18-0.5c-0.1-0.15-0.24-0.25-0.43-0.31s-0.44-0.08-0.77-0.08h-0.64V108.39z"/>
			<path class="st2" d="M53.76,114.73c-1.11,0-1.91-0.3-2.39-0.91c-0.48-0.6-0.72-1.49-0.72-2.65v-3.99c0-0.57,0.05-1.07,0.16-1.49
				c0.11-0.42,0.28-0.79,0.52-1.1s0.56-0.54,0.97-0.69s0.89-0.23,1.46-0.23c1.11,0,1.91,0.3,2.39,0.89c0.49,0.6,0.73,1.47,0.73,2.62
				v3.99c0,0.57-0.06,1.06-0.17,1.49c-0.11,0.43-0.29,0.8-0.53,1.12s-0.56,0.55-0.97,0.71C54.81,114.65,54.32,114.73,53.76,114.73z
				 M53.26,113.19c0.14,0.06,0.3,0.08,0.49,0.08s0.35-0.03,0.49-0.08s0.24-0.13,0.32-0.22c0.08-0.09,0.14-0.21,0.19-0.36
				c0.05-0.15,0.08-0.29,0.09-0.44c0.01-0.15,0.02-0.32,0.02-0.53v-4.91c0-0.26-0.01-0.48-0.04-0.65s-0.08-0.34-0.15-0.49
				s-0.19-0.27-0.34-0.35s-0.35-0.11-0.58-0.11s-0.43,0.04-0.58,0.11s-0.27,0.19-0.34,0.35c-0.07,0.15-0.12,0.32-0.15,0.49
				s-0.04,0.39-0.04,0.65v4.91c0,0.21,0.01,0.38,0.02,0.53c0.02,0.15,0.05,0.3,0.09,0.44c0.05,0.15,0.11,0.27,0.19,0.36
				C53.02,113.06,53.13,113.13,53.26,113.19z"/>
			<path class="st2" d="M58.98,114.6v-10.81h1.97v9.45h2.59v1.36H58.98z"/>
			<path class="st2" d="M65.31,114.6v-10.81h1.94v10.81H65.31z"/>
			<path class="st2" d="M69.59,114.6v-10.81h4.53v1.39h-2.56v3.1h2.02v1.39h-2.02v3.57h2.59v1.36H69.59z"/>
			<path class="st2" d="M78.67,114.73c-1.9,0-2.91-1.1-3-3.3l1.71-0.36c0.04,1.43,0.45,2.15,1.23,2.15c0.3,0,0.52-0.09,0.67-0.27
				s0.22-0.43,0.22-0.74c0-0.3-0.05-0.58-0.16-0.83c-0.11-0.25-0.24-0.45-0.38-0.61c-0.14-0.16-0.35-0.36-0.61-0.59l-1.42-1.23
				c-0.42-0.37-0.73-0.74-0.93-1.14s-0.31-0.89-0.31-1.48c0-0.84,0.25-1.49,0.74-1.96c0.49-0.47,1.17-0.7,2.03-0.71
				c0.4,0,0.75,0.04,1.05,0.15c0.3,0.1,0.56,0.24,0.75,0.41c0.2,0.17,0.36,0.39,0.5,0.64c0.13,0.26,0.23,0.52,0.3,0.8
				c0.07,0.28,0.11,0.58,0.14,0.92l-1.68,0.33c-0.01-0.22-0.02-0.41-0.04-0.57c-0.02-0.16-0.05-0.32-0.1-0.49
				c-0.05-0.17-0.11-0.3-0.19-0.4c-0.08-0.1-0.18-0.18-0.31-0.25c-0.13-0.06-0.28-0.08-0.45-0.07c-0.29,0.02-0.51,0.11-0.67,0.29
				s-0.23,0.41-0.23,0.71c0,0.35,0.07,0.63,0.21,0.86c0.14,0.22,0.35,0.46,0.64,0.72l1.41,1.23c0.23,0.21,0.44,0.42,0.61,0.62
				c0.17,0.2,0.34,0.43,0.5,0.69c0.16,0.26,0.28,0.54,0.36,0.85s0.12,0.63,0.12,0.98c0,0.79-0.25,1.43-0.75,1.92
				S79.48,114.73,78.67,114.73z"/>
			<path class="st2" d="M84.26,114.6v-9.36h-1.81v-1.45h5.54v1.45h-1.75v9.36H84.26z"/>
			<path class="st2" d="M89.51,114.6v-10.81h4.53v1.39h-2.56v3.1h2.02v1.39h-2.02v3.57h2.59v1.36H89.51z"/>
			<path class="st2" d="M95.87,114.6v-10.81h2.48c0.57,0,1.06,0.05,1.47,0.14c0.41,0.09,0.76,0.25,1.07,0.47
				c0.3,0.22,0.53,0.52,0.68,0.89c0.15,0.38,0.22,0.84,0.22,1.38c0,0.68-0.1,1.23-0.3,1.66c-0.2,0.43-0.54,0.74-1,0.94l1.5,5.33
				h-1.98l-1.29-4.94h-0.87v4.94H95.87z M97.84,108.41h0.48c0.58,0,1-0.12,1.24-0.37c0.25-0.25,0.37-0.67,0.37-1.27
				c0-0.58-0.11-0.99-0.32-1.24c-0.21-0.25-0.6-0.38-1.17-0.38h-0.59V108.41z"/>
		</g>
		<path class="st3" d="M100.88,35.18L81.24,30.5c-0.28-0.07-0.57,0-0.8,0.18c-0.22,0.18-0.36,0.45-0.36,0.73
			c0,4.13-3.36,7.48-7.48,7.48c-4.13,0-7.48-3.36-7.48-7.48c0-0.29-0.13-0.56-0.36-0.73c-0.22-0.18-0.52-0.24-0.8-0.18l-19.64,4.68
			c-0.47,0.11-0.77,0.56-0.71,1.03l1.87,14.03c0.03,0.25,0.16,0.47,0.36,0.62c0.2,0.15,0.45,0.21,0.7,0.18l8.29-1.18v37.68
			c0,0.52,0.42,0.94,0.94,0.94h33.68c0.52,0,0.94-0.42,0.94-0.94V49.86l8.29,1.18c0.04,0.01,0.09,0.01,0.13,0.01
			c0.2,0,0.4-0.07,0.56-0.19c0.2-0.15,0.33-0.38,0.36-0.62l1.87-14.03C101.66,35.73,101.35,35.29,100.88,35.18z M99.13,40.51
			l-5.01-1.67c-2.42-0.81-4.44-2.52-5.69-4.71l11.19,2.66L99.13,40.51z M56.77,34.14c-1.25,2.19-3.26,3.9-5.69,4.71l-5.01,1.67
			l-0.49-3.71L56.77,34.14z M60.44,82.86H56.7V56.34c2.42,3.1,3.74,6.89,3.74,10.89V82.86z M56.7,86.6v-1.87h31.81v1.87H56.7z
			 M84.76,82.86V67.22c0-4,1.32-7.78,3.74-10.89v26.52H84.76z M97.99,49.06l-12.16-1.74l-0.26,1.85l2.94,0.42v3.89
			c-3.62,3.69-5.61,8.56-5.61,13.74v15.64H62.31V67.22c0-5.18-2-10.04-5.61-13.74v-3.89l2.94-0.42l-0.26-1.85l-12.16,1.74
			l-0.89-6.66l5.35-1.78c3.39-1.13,6.11-3.74,7.43-7.04l4.22-1c0.58,4.61,4.52,8.19,9.28,8.19s8.71-3.58,9.28-8.19l4.22,1
			c1.32,3.3,4.04,5.91,7.43,7.04l5.35,1.78L97.99,49.06z"/>
	</g>
</g>
<g id="Layer_13" class="st0">
	<g class="st1">
		<g>
			<path class="st2" d="M46.21,113.74v-10.81h3.11c1.84,0,2.76,1.02,2.76,3.07c0,1-0.25,1.74-0.76,2.21c-0.5,0.47-1.21,0.7-2.13,0.7
				h-1.02v4.83H46.21z M48.18,107.53h0.63c0.56,0,0.93-0.11,1.13-0.33c0.2-0.22,0.29-0.62,0.29-1.21c0-0.33-0.01-0.59-0.04-0.78
				c-0.03-0.18-0.09-0.35-0.18-0.5c-0.1-0.15-0.24-0.25-0.43-0.31s-0.44-0.08-0.77-0.08h-0.64V107.53z"/>
			<path class="st2" d="M53.8,113.74v-10.81h1.97v9.45h2.59v1.36H53.8z"/>
			<path class="st2" d="M59.51,113.74l2.2-10.81h2.05l2.19,10.81h-1.83l-0.44-2.51h-1.87l-0.44,2.51H59.51z M62.02,109.95h1.45
				l-0.72-4.44L62.02,109.95z M62.21,102.01l0.79-2.67h1.85l-1.6,2.67H62.21z"/>
			<path class="st2" d="M70.41,113.87c-1.9,0-2.91-1.1-3-3.3l1.71-0.36c0.04,1.43,0.45,2.15,1.23,2.15c0.3,0,0.52-0.09,0.67-0.27
				s0.22-0.43,0.22-0.74c0-0.3-0.05-0.58-0.16-0.83c-0.11-0.25-0.24-0.45-0.38-0.61c-0.14-0.16-0.35-0.36-0.61-0.59l-1.42-1.23
				c-0.42-0.37-0.73-0.74-0.93-1.14s-0.31-0.89-0.31-1.48c0-0.84,0.25-1.49,0.74-1.96c0.49-0.47,1.17-0.7,2.03-0.71
				c0.4,0,0.75,0.04,1.05,0.15c0.3,0.1,0.56,0.24,0.75,0.41c0.2,0.17,0.36,0.39,0.5,0.64c0.13,0.26,0.23,0.52,0.3,0.8
				c0.07,0.28,0.11,0.58,0.14,0.92l-1.68,0.33c-0.01-0.22-0.02-0.41-0.04-0.57c-0.02-0.16-0.05-0.32-0.1-0.49
				c-0.05-0.17-0.11-0.3-0.19-0.4c-0.08-0.1-0.18-0.18-0.31-0.25c-0.13-0.06-0.28-0.08-0.45-0.07c-0.29,0.02-0.51,0.11-0.67,0.29
				s-0.23,0.41-0.23,0.71c0,0.35,0.07,0.63,0.21,0.86c0.14,0.22,0.35,0.46,0.64,0.72l1.41,1.23c0.23,0.21,0.44,0.42,0.61,0.62
				c0.17,0.2,0.34,0.43,0.5,0.69c0.16,0.26,0.28,0.54,0.36,0.85s0.12,0.63,0.12,0.98c0,0.79-0.25,1.43-0.75,1.92
				S71.22,113.87,70.41,113.87z"/>
			<path class="st2" d="M76,113.74v-9.36h-1.81v-1.45h5.54v1.45h-1.75v9.36H76z"/>
			<path class="st2" d="M81.31,113.74v-10.81h1.94v10.81H81.31z"/>
			<path class="st2" d="M88.48,113.87c-0.47,0-0.88-0.06-1.23-0.18s-0.65-0.28-0.88-0.49c-0.23-0.21-0.42-0.47-0.57-0.78
				s-0.25-0.64-0.31-1s-0.09-0.75-0.09-1.2v-3.77c0-0.47,0.03-0.89,0.09-1.25c0.06-0.36,0.16-0.7,0.31-1.01s0.33-0.57,0.56-0.77
				s0.53-0.36,0.88-0.47c0.35-0.11,0.77-0.17,1.24-0.17c0.54,0,1,0.07,1.38,0.21c0.38,0.14,0.68,0.35,0.91,0.63s0.38,0.6,0.48,0.97
				c0.1,0.37,0.15,0.81,0.15,1.3v0.93h-1.9v-0.92c0-0.54-0.03-0.9-0.08-1.09c-0.11-0.37-0.39-0.56-0.83-0.59c-0.03,0-0.07,0-0.1,0
				c-0.17,0-0.31,0.02-0.43,0.06c-0.12,0.04-0.22,0.1-0.3,0.19c-0.08,0.08-0.14,0.18-0.19,0.27s-0.08,0.22-0.11,0.38
				s-0.04,0.3-0.05,0.43c-0.01,0.13-0.01,0.3-0.01,0.5v4.58c0,0.63,0.08,1.09,0.24,1.36s0.44,0.4,0.85,0.4
				c0.14,0,0.26-0.02,0.37-0.05c0.11-0.03,0.2-0.07,0.27-0.12c0.07-0.05,0.13-0.12,0.18-0.22c0.05-0.09,0.09-0.18,0.11-0.26
				c0.03-0.08,0.04-0.19,0.06-0.34c0.01-0.14,0.02-0.26,0.02-0.37c0-0.1,0-0.24,0-0.41v-0.97h1.9v0.89c0,0.4-0.03,0.77-0.08,1.09
				c-0.06,0.32-0.15,0.62-0.29,0.91c-0.14,0.28-0.31,0.52-0.53,0.7c-0.22,0.19-0.5,0.33-0.83,0.44
				C89.32,113.82,88.93,113.87,88.48,113.87z"/>
			<path class="st2" d="M96.38,113.87c-1.11,0-1.91-0.3-2.39-0.91c-0.48-0.6-0.72-1.49-0.72-2.65v-3.99c0-0.57,0.05-1.07,0.16-1.49
				c0.11-0.42,0.28-0.79,0.52-1.1s0.56-0.54,0.97-0.69s0.89-0.23,1.46-0.23c1.11,0,1.91,0.3,2.39,0.89c0.49,0.6,0.73,1.47,0.73,2.62
				v3.99c0,0.57-0.06,1.06-0.17,1.49c-0.11,0.43-0.29,0.8-0.53,1.12s-0.56,0.55-0.97,0.71C97.43,113.79,96.94,113.87,96.38,113.87z
				 M95.89,112.33c0.14,0.06,0.3,0.08,0.49,0.08s0.35-0.03,0.49-0.08s0.24-0.13,0.32-0.22c0.08-0.09,0.14-0.21,0.19-0.36
				c0.05-0.15,0.08-0.29,0.09-0.44c0.01-0.15,0.02-0.32,0.02-0.53v-4.91c0-0.26-0.01-0.48-0.04-0.65s-0.08-0.34-0.15-0.49
				s-0.19-0.27-0.34-0.35s-0.35-0.11-0.58-0.11s-0.43,0.04-0.58,0.11s-0.27,0.19-0.34,0.35c-0.07,0.15-0.12,0.32-0.15,0.49
				s-0.04,0.39-0.04,0.65v4.91c0,0.21,0.01,0.38,0.02,0.53c0.02,0.15,0.05,0.3,0.09,0.44c0.05,0.15,0.11,0.27,0.19,0.36
				C95.64,112.2,95.75,112.27,95.89,112.33z"/>
		</g>
		<g>
			<path class="st3" d="M100.44,33.94v-2.04h-8.89c0-0.31-0.25-0.56-0.56-0.56c-0.31,0-0.56,0.25-0.56,0.56h-8.06
				c0-0.31-0.25-0.56-0.56-0.56c-0.31,0-0.56,0.25-0.56,0.56h-8.07c0-0.31-0.25-0.56-0.56-0.56c-0.31,0-0.56,0.25-0.56,0.56h-8.07
				c0-0.31-0.25-0.56-0.56-0.56c-0.31,0-0.56,0.25-0.56,0.56h-8.07c0-0.31-0.25-0.56-0.56-0.56c-0.31,0-0.56,0.25-0.56,0.56h-8.88
				v2.04h8.88v0.9c-1.75,0.32-1.94,2.09-4.04,2.09l0,50.08c2.3,0,2.3-2.14,4.6-2.14c2.3,0,2.3,2.14,4.6,2.14
				c2.3,0,2.3-2.14,4.6-2.14c2.3,0,2.3,2.14,4.6,2.14c2.3,0,2.3-2.14,4.6-2.14s2.3,2.14,4.6,2.14c2.3,0,2.3-2.14,4.6-2.14
				c2.3,0,2.3,2.14,4.6,2.14c2.3,0,2.3-2.14,4.6-2.14c2.3,0,2.3,2.14,4.6,2.14l0-50.08c-2.1,0-2.28-1.78-4.04-2.09v-0.9H100.44z
				 M54.21,38.59c-0.68,0-1.23-0.55-1.23-1.23c0-0.48,0.27-0.89,0.67-1.1v0.83c0,0.31,0.25,0.56,0.56,0.56
				c0.31,0,0.56-0.25,0.56-0.56v-0.83c0.4,0.2,0.67,0.62,0.67,1.1C55.44,38.04,54.89,38.59,54.21,38.59z M58.81,36.93
				c-2.09,0-2.28-1.77-4.04-2.09v-0.9h8.07v0.9C61.09,35.16,60.9,36.93,58.81,36.93z M63.4,38.59c-0.68,0-1.23-0.55-1.23-1.23
				c0-0.48,0.27-0.89,0.67-1.1v0.83c0,0.31,0.25,0.56,0.56,0.56s0.56-0.25,0.56-0.56v-0.83c0.4,0.2,0.67,0.62,0.67,1.1
				C64.64,38.04,64.09,38.59,63.4,38.59z M68,36.93c-2.09,0-2.28-1.77-4.04-2.09v-0.9h8.07v0.9C70.28,35.15,70.1,36.93,68,36.93z
				 M72.6,38.59c-0.68,0-1.23-0.55-1.23-1.23c0-0.48,0.27-0.89,0.67-1.1v0.83c0,0.31,0.25,0.56,0.56,0.56
				c0.31,0,0.56-0.25,0.56-0.56v-0.83c0.4,0.2,0.67,0.62,0.67,1.1C73.83,38.04,73.28,38.59,72.6,38.59z M77.2,36.93
				c-2.09,0-2.28-1.77-4.03-2.09v-0.9h8.07v0.9C79.48,35.16,79.29,36.93,77.2,36.93z M81.8,38.59c-0.68,0-1.23-0.55-1.23-1.23
				c0-0.48,0.27-0.89,0.67-1.1v0.83c0,0.31,0.25,0.56,0.56,0.56s0.56-0.25,0.56-0.56v-0.83c0.4,0.2,0.67,0.62,0.67,1.1
				C83.03,38.04,82.48,38.59,81.8,38.59z M86.39,36.93c-2.09,0-2.28-1.77-4.04-2.09v-0.9h8.06v0.9
				C88.67,35.16,88.49,36.93,86.39,36.93z M92.22,37.36c0,0.68-0.55,1.23-1.23,1.23c-0.68,0-1.23-0.55-1.23-1.23
				c0-0.48,0.27-0.89,0.67-1.1v0.83c0,0.31,0.25,0.56,0.56,0.56c0.31,0,0.56-0.25,0.56-0.56v-0.83
				C91.94,36.47,92.22,36.88,92.22,37.36z"/>
		</g>
	</g>
</g>
<g id="Layer_14">
	<g>
		<g>
			<path class="st2" d="M53.84,115.05v-9.36h-1.81v-1.45h5.54v1.45h-1.75v9.36H53.84z"/>
			<path class="st2" d="M62.03,115.18c-1.11,0-1.91-0.3-2.39-0.91c-0.48-0.6-0.72-1.49-0.72-2.65v-3.99c0-0.57,0.05-1.07,0.16-1.49
				c0.11-0.42,0.28-0.79,0.52-1.1s0.56-0.54,0.97-0.69s0.89-0.23,1.46-0.23c1.11,0,1.91,0.3,2.39,0.89c0.49,0.6,0.73,1.47,0.73,2.62
				v3.99c0,0.57-0.06,1.06-0.17,1.49c-0.11,0.43-0.29,0.8-0.53,1.12s-0.56,0.55-0.97,0.71C63.08,115.1,62.6,115.18,62.03,115.18z
				 M61.54,113.63c0.14,0.06,0.3,0.08,0.49,0.08s0.35-0.03,0.49-0.08s0.24-0.13,0.32-0.22c0.08-0.09,0.14-0.21,0.19-0.36
				c0.05-0.15,0.08-0.29,0.09-0.44c0.01-0.15,0.02-0.32,0.02-0.53v-4.91c0-0.26-0.01-0.48-0.04-0.65s-0.08-0.34-0.15-0.49
				s-0.19-0.27-0.34-0.35s-0.35-0.11-0.58-0.11s-0.43,0.04-0.58,0.11s-0.27,0.19-0.34,0.35c-0.07,0.15-0.12,0.32-0.15,0.49
				s-0.04,0.39-0.04,0.65v4.91c0,0.21,0.01,0.38,0.02,0.53c0.02,0.15,0.05,0.3,0.09,0.44c0.05,0.15,0.11,0.27,0.19,0.36
				C61.3,113.5,61.4,113.58,61.54,113.63z"/>
			<path class="st2" d="M66.7,115.05l2.2-10.81h2.05l2.19,10.81h-1.83l-0.44-2.51H69l-0.44,2.51H66.7z M69.21,111.25h1.45
				l-0.72-4.44L69.21,111.25z"/>
			<path class="st2" d="M74.87,115.05v-10.81h1.97v9.45h2.59v1.36H74.87z"/>
			<path class="st2" d="M81.15,115.05v-10.81h1.97v9.45h2.59v1.36H81.15z"/>
			<path class="st2" d="M86.85,115.05l2.2-10.81h2.05l2.19,10.81h-1.83l-0.44-2.51h-1.87l-0.44,2.51H86.85z M89.36,111.25h1.45
				l-0.72-4.44L89.36,111.25z"/>
		</g>
		<g>
			<path class="st3" d="M100.89,66.42l-26.31-20.1v-4.69c0-1.1-0.89-1.98-1.98-1.98c-1.57,0-2.84-1.27-2.84-2.84
				c0-1.57,1.27-2.84,2.84-2.84s2.84,1.27,2.84,2.84l0,0h3.97c-0.02-3.76-3.08-6.79-6.84-6.78c-3.76,0.02-6.79,3.08-6.78,6.84
				c0.01,2.99,1.97,5.61,4.83,6.48v3.04L44.31,66.42c-0.88,0.66-1.05,1.9-0.4,2.78c0.37,0.5,0.96,0.79,1.59,0.79h9.45v13.49
				c0,1.1,0.89,1.98,1.98,1.98h6.35v5.29c0,1.1,0.89,1.98,1.98,1.98h23c1.1,0,1.98-0.89,1.98-1.98V69.99h9.45
				c1.1,0,1.98-0.89,1.98-1.98C101.69,67.38,101.39,66.79,100.89,66.42z M86.29,88.76H67.25V68.27c0-0.75-0.13-1.48-0.4-2.18h17.19
				c1.2,0,2.18,0.98,2.18,2.18l0,0L86.29,88.76z M89.79,66.02c-0.92-2.34-3.17-3.88-5.68-3.9H60.57c-2.32,0.22-4.31,1.73-5.16,3.9
				h-4.03l21.22-16.2l21.22,16.2H89.79z"/>
		</g>
	</g>
</g>
</svg>
