<?xml version="1.0" encoding="utf-8"?>
<!-- Svg Vector Icons : http://www.onlinewebfonts.com/icon -->
<!DOCTYPE svg PUBLIC "-//W3C//DTD SVG 1.1//EN" "http://www.w3.org/Graphics/SVG/1.1/DTD/svg11.dtd">
<svg version="1.1" xmlns="http://www.w3.org/2000/svg" xmlns:xlink="http://www.w3.org/1999/xlink" x="0px" y="0px"  fill = "#FFFFFF" viewBox="0 0 1000 1000" enable-background="new 0 0 1000 1000" xml:space="preserve">
<metadata> Svg Vector Icons : http://www.onlinewebfonts.com/icon </metadata>
<g>
<path d="M508.9,10C243.2,10,27.8,223.7,27.8,487.4c0,90.2,25.2,174.5,69,246.5L10,990l266.4-84.6c68.9,37.8,148.2,59.4,232.5,59.4C774.6,964.8,990,751,990,487.4C990,223.7,774.6,10,508.9,10z M748.1,668.7c-11.3,28.1-62.5,53.7-85.1,54.8c-22.6,1.2-23.2,17.5-146.2-35.9c-123-53.5-197-183.4-202.8-191.8c-5.8-8.3-47.6-67.9-45.4-127.9c2.3-60,35.1-88.3,46.8-100c11.7-11.8,25.1-13.9,33.3-14c9.7-0.2,16-0.3,23.1,0c7.2,0.3,17.9-1.5,27.2,23.3c9.3,24.8,31.6,85.6,34.4,91.9c2.8,6.2,4.6,13.4,0.2,21.4c-4.4,8-6.7,13-13,19.9c-6.4,6.9-13.5,15.4-19.2,20.7c-6.4,5.8-13.1,12.2-6.3,24.7c6.7,12.5,29.9,53.3,65.1,86.9c45.3,43.2,84.4,57.6,96.5,64.1c12.1,6.6,19.3,5.8,26.7-2c7.4-7.9,32-34.4,40.7-46.3c8.7-11.9,16.8-9.6,27.9-5.1c11.1,4.5,70.3,36.2,82.4,42.8c12.1,6.5,20.1,9.9,23,15.1C760.3,616.2,759.4,640.6,748.1,668.7z"/>
</g>
</svg>