<?xml version="1.0" encoding="utf-8"?>
<!-- Generator: Adobe Illustrator 19.1.0, SVG Export Plug-In . SVG Version: 6.00 Build 0)  -->
<svg version="1.1" id="Layer_1" xmlns="http://www.w3.org/2000/svg" xmlns:xlink="http://www.w3.org/1999/xlink" x="0px" y="0px"
	 viewBox="0 0 70.4 70.4" style="enable-background:new 0 0 70.4 70.4;" xml:space="preserve">
<style type="text/css">
	.st0{fill:#EF6285;}
	.st1{fill:#FFFFFF;}
</style>
<rect class="st0" width="70.4" height="70.4"/>
<g>
	<g>
		<path class="st1" d="M23.7,34v-9.3h-6.2V34h-5.8V10.5h5.8v9.1h6.2v-9.1h5.8V34H23.7z"/>
		<path class="st1" d="M47.4,31.6c-1.7,1.7-3.7,2.6-6.6,2.6c-2.9,0-4.9-0.9-6.6-2.6c-2.5-2.5-2.4-5.8-2.4-9.3c0-3.5-0.1-6.8,2.4-9.3
			c1.7-1.7,3.7-2.6,6.6-2.6c2.9,0,4.9,0.9,6.6,2.6c2.5,2.5,2.4,5.8,2.4,9.3C49.8,25.8,49.9,29.1,47.4,31.6z M43.1,16.4
			c-0.4-0.6-1.3-1-2.3-1c-1.1,0-1.9,0.5-2.3,1c-0.5,0.7-0.9,1.5-0.9,5.8c0,4.3,0.3,5.1,0.9,5.8c0.4,0.6,1.3,1.1,2.3,1.1
			c1.1,0,1.9-0.5,2.3-1.1c0.5-0.7,0.9-1.5,0.9-5.8C44,17.9,43.7,17.1,43.1,16.4z"/>
		<path class="st1" d="M21.1,54.6c-2,2.1-4.3,2.6-6.8,2.6c-2.7,0-4.8-0.9-6.5-2.6c-2.5-2.5-2.4-5.8-2.4-9.3c0-3.5-0.1-6.8,2.4-9.3
			c1.7-1.7,3.7-2.6,6.5-2.6c6.1,0,8.6,3.9,9.2,7.8h-5.8c-0.5-1.8-1.4-2.6-3.4-2.6c-1.1,0-1.9,0.5-2.3,1c-0.5,0.7-0.9,1.5-0.9,5.8
			c0,4.3,0.3,5.1,0.9,5.8c0.4,0.6,1.2,1,2.3,1c1.2,0,2-0.4,2.6-0.9c0.7-0.7,0.9-1.6,0.9-2.5v-0.3h-3.5v-4.8h9.2v3.3
			C23.5,50.6,22.9,52.8,21.1,54.6z"/>
		<path class="st1" d="M38.7,57l-1.1-3.5h-7.2L29.2,57h-6.1l8.6-23.5h4.5L44.7,57H38.7z M34.1,42.4L32,48.7h4.1L34.1,42.4z"/>
		<path class="st1" d="M57.4,57l-4.2-8.8h-2V57h-5.8V33.5h9.3c5.2,0,8,3.7,8,7.6c0,3.2-2,5.2-3.8,6.2l5.1,9.8H57.4z M54.5,38.7h-3.3
			v4.8h3.3c1.6,0,2.5-1.2,2.5-2.4C57,39.8,56.1,38.7,54.5,38.7z"/>
	</g>
</g>
</svg>
