<?xml version="1.0" encoding="utf-8"?>
<!-- Generator: Adobe Illustrator 19.1.0, SVG Export Plug-In . SVG Version: 6.00 Build 0)  -->
<svg version="1.1" id="Layer_1" xmlns="http://www.w3.org/2000/svg" xmlns:xlink="http://www.w3.org/1999/xlink" x="0px" y="0px"
	 viewBox="-249.3 492.3 216.7 64.4" style="enable-background:new -249.3 492.3 216.7 64.4;" xml:space="preserve">
<style type="text/css">
	.st0{display:none;}
	.st1{display:inline;}
	.st2{fill:#FFFFFF;}
</style>
<g>
	<g>
		<g>
			<path class="st2" d="M-233,517.1h-4.4v-4.1h13.1v4.1h-4.4v18.3h-4.4L-233,517.1z"/>
			<path class="st2" d="M-220.4,528.5c0.2,1.1,1.8,3.5,4.7,3.5c1.8,0,3.1-0.8,3.9-2.1h4.3c-1,3-4.2,5.9-8.1,5.9c-5,0-8.9-4-8.9-8.9
				c0-4.8,3.7-9.1,8.8-9.1c5.4,0,8.7,4.6,8.7,8.9c0,0.8-0.1,1.5-0.2,2L-220.4,528.5z M-211.3,525.2c-0.5-2.7-2.5-3.9-4.5-3.9
				c-1.5,0-4,0.8-4.8,4L-211.3,525.2z"/>
			<path class="st2" d="M-200.7,526.4l-5.4-8.5h4.8l3.2,5.3l3.2-5.3h4.7l-5.4,8.5l6.3,9.1h-5l-3.8-6l-3.7,6h-5L-200.7,526.4z"/>
			<path class="st2" d="M-180.1,522.6c-0.3-1.4-1.2-1.5-1.7-1.5c-1.1,0-1.6,0.8-1.6,1.5c0,1,0.7,1.2,3,2c2.2,0.7,4.9,1.7,4.9,5.3
				c0,4-3.1,6.2-6.1,6.2c-1.8,0-3.9-0.6-5.3-2.3c-1.1-1.3-1.2-2.7-1.3-3.8h4.3c0.2,0.8,0.6,2.2,2.3,2.2c1.4,0,1.9-1,1.9-1.8
				c0-1.3-1-1.6-4-2.6c-2-0.6-3.9-2.1-3.9-5.1c0-3.4,3.1-5.4,5.9-5.4c2.6,0,5.6,1.9,5.8,5.4H-180.1z"/>
			<path class="st2" d="M-163.3,517.8h3.9v1.5h0.1c0.4-0.6,1.6-2.1,4.6-2.1c1,0,3.4,0.2,5.1,2.8c1.8-2.6,4.4-2.8,5.7-2.8
				c3.5,0,5.2,1.8,5.8,2.7c0.7,0.9,1.3,2.6,1.3,5.2v10.3h-4.2v-9.8c0-1,0-4.6-3.3-4.6c-1.2,0-2.3,0.6-2.9,1.6
				c-0.7,1.1-0.6,2.8-0.6,3.9v8.8h-4.2v-9.8c0-2.4-0.9-4.6-3.5-4.6c-3.4,0-3.4,3.7-3.4,5.5v8.8h-4.2L-163.3,517.8z"/>
			<path class="st2" d="M-172.1,513h4.2v3.9h-4.2V513z M-172.1,517.8h4.2v17.6h-4.2V517.8z"/>
		</g>
	</g>
	<g>
		<path class="st2" d="M-117.2,526.4c0,2.5-1.1,4.9-2.9,6.6c-2.1,1.9-4.5,2.3-7.2,2.3h-4.9v-17.8h4.8c2.5,0,4.9,0.4,7,2.1
			C-118.4,521.3-117.2,523.8-117.2,526.4z M-119,526.4c0-2.3-0.9-4.2-2.8-5.7c-2-1.5-4.1-1.6-6.4-1.6h-2.3v14.6h2.3
			c2.4,0,4.4-0.1,6.4-1.6C-119.9,530.7-119,528.7-119,526.4z"/>
		<path class="st2" d="M-112.8,535.3h-1.8v-17.8h1.8V535.3z"/>
		<path class="st2" d="M-91.2,527.1c-0.3,4.9-4.6,8.5-9.4,8.5c-5.1,0-9.5-4.1-9.5-9.3c0-2.4,1.1-4.8,2.8-6.4
			c1.8-1.8,4.2-2.7,6.8-2.7c3.3,0,7.3,1.8,8.3,5h-2c-1.2-2.1-3.8-3.3-6.3-3.3c-1.9,0-3.8,0.6-5.3,2c-1.5,1.3-2.5,3.4-2.5,5.4
			c0,4.3,3.6,7.5,7.8,7.5c3.2,0,6.3-2.1,7.2-5.2h-10v-1.6L-91.2,527.1L-91.2,527.1z"/>
		<path class="st2" d="M-86.8,535.3h-1.8v-17.8h1.8V535.3z"/>
		<path class="st2" d="M-75.2,519.1h-4v16.2H-81v-16.2h-4.1v-1.6h9.9L-75.2,519.1L-75.2,519.1z"/>
		<path class="st2" d="M-59.6,535.3h-1.9l-2.6-6h-8.3l-2.6,6h-1.9l7.7-17.8h2l5.3,12.3L-59.6,535.3z M-64.8,527.7l-3.5-8.2l-3.5,8.2
			H-64.8z"/>
		<path class="st2" d="M-48.7,535.3h-9.1v-17.8h1.8v16.2h7.4L-48.7,535.3L-48.7,535.3z"/>
	</g>
</g>
</svg>
