<?xml version="1.0" encoding="utf-8"?>
<!-- Generator: Adobe Illustrator 19.1.0, SVG Export Plug-In . SVG Version: 6.00 Build 0)  -->
<svg version="1.1" id="Layer_1" xmlns="http://www.w3.org/2000/svg" xmlns:xlink="http://www.w3.org/1999/xlink" x="0px" y="0px"
	 viewBox="25.3 492.3 66 64.4" style="enable-background:new 25.3 492.3 66 64.4;" xml:space="preserve">
<style type="text/css">
	.st0{display:none;}
	.st1{display:inline;}
	.st2{fill:#FFFFFF;}
</style>
<path class="st2" d="M73.1,520.5c-2.3-3.3-4.3-5.8-7.8-7.9c-2.5-1.5-5.2-2.5-9.7-2.5c-9,0-16.4,7.4-16.4,16.4
	c0,9,7.4,16.4,16.4,16.4c8.5,0,15.5-6.4,16.3-14.7c0.2-0.2,0.3-0.2,0.6,0c1,0.9,4.5,5.8,4.9,5.8C77.7,534,76.4,525.4,73.1,520.5z
	 M61,526.3c0,2.9-2.4,5.4-5.4,5.4c-2.9,0-5.4-2.4-5.4-5.4l0,0c0-2.9,2.4-5.4,5.4-5.4C58.5,520.9,61,523.3,61,526.3L61,526.3z"/>
</svg>
