<?xml version="1.0" encoding="utf-8"?>
<!-- Generator: Adobe Illustrator 23.0.0, SVG Export Plug-In . SVG Version: 6.00 Build 0)  -->
<svg version="1.1" id="Layer_1" xmlns="http://www.w3.org/2000/svg" xmlns:xlink="http://www.w3.org/1999/xlink" x="0px" y="0px"
	 viewBox="0 0 33.9 38.2" style="enable-background:new 0 0 33.9 38.2;" xml:space="preserve">
<style type="text/css">
	.st0{fill:#FFFFFF;}
</style>
<path class="st0" d="M31.2,31.8l-6.8-6.3c1.7-2,2.8-4.7,2.8-7.6c0-6.5-5.3-11.7-11.8-11.7S3.6,11.4,3.6,17.9
	c0,6.5,5.3,11.7,11.7,11.7c2.9,0,5.5-1,7.6-2.8l6.9,6.4L31.2,31.8z M15.4,27.7c-5.4,0-9.7-4.4-9.7-9.7c0-5.4,4.4-9.7,9.7-9.7
	s9.8,4.4,9.8,9.7C25.1,23.3,20.8,27.7,15.4,27.7z"/>
</svg>
