<?xml version="1.0" encoding="utf-8"?>
<!-- Generator: Adobe Illustrator 19.1.0, SVG Export Plug-In . SVG Version: 6.00 Build 0)  -->
<svg version="1.1" id="Layer_1" xmlns="http://www.w3.org/2000/svg" xmlns:xlink="http://www.w3.org/1999/xlink" x="0px" y="0px"
	 viewBox="-270 361.6 70.4 70.4" style="enable-background:new -270 361.6 70.4 70.4;" xml:space="preserve">
<style type="text/css">
	.st0{fill:#626464;}
	.st1{fill:#4A5057;}
</style>
<g>
	<rect x="-270" y="361.6" class="st0" width="70.4" height="70.4"/>
	<g>
		<path class="st1" d="M-242.2,395.4v-11.2l-3.3,5.8h-3.7l-3.3-5.8v11.2h-5.8V372h5.7l5.3,10.3l5.3-10.3h5.7v23.4H-242.2z"/>
		<path class="st1" d="M-218.6,393c-1.7,1.7-3.7,2.6-6.5,2.6c-2.9,0-4.8-0.9-6.5-2.6c-2.5-2.5-2.4-5.8-2.4-9.3s-0.1-6.8,2.4-9.3
			c1.7-1.7,3.7-2.6,6.5-2.6c2.9,0,4.8,0.9,6.5,2.6c2.5,2.5,2.4,5.8,2.4,9.3C-216.3,387.2-216.2,390.5-218.6,393z M-222.9,378
			c-0.4-0.6-1.3-1-2.3-1c-1.1,0-1.9,0.5-2.3,1c-0.5,0.7-0.9,1.5-0.9,5.8c0,4.3,0.3,5,0.9,5.7c0.4,0.6,1.2,1.1,2.3,1.1
			c1.1,0,1.9-0.5,2.3-1.1c0.5-0.7,0.9-1.4,0.9-5.7C-222,379.5-222.4,378.6-222.9,378z"/>
		<path class="st1" d="M-237.6,416c-1.6,1.6-3.9,2.3-6.3,2.3h-8.7v-23.4h8.7c2.4,0,4.7,0.7,6.3,2.3c2.7,2.7,2.4,5.7,2.4,9.4
			S-234.9,413.3-237.6,416z M-241.6,401.3c-0.5-0.8-1.3-1.3-2.8-1.3h-2.5v13.2h2.5c1.4,0,2.2-0.5,2.8-1.3c0.5-0.7,0.6-1.3,0.6-5.3
			C-241,402.7-241.1,402-241.6,401.3z"/>
		<path class="st1" d="M-220.1,418.3l-1.1-3.5h-7.2l-1.2,3.5h-6l8.6-23.4h4.4l8.5,23.4H-220.1z M-224.7,403.8l-2.1,6.2h4.1
			L-224.7,403.8z"/>
	</g>
</g>
</svg>
