<?xml version="1.0" encoding="utf-8"?>
<!-- Generator: Adobe Illustrator 19.1.0, SVG Export Plug-In . SVG Version: 6.00 Build 0)  -->
<svg version="1.1" id="Layer_1" xmlns="http://www.w3.org/2000/svg" xmlns:xlink="http://www.w3.org/1999/xlink" x="0px" y="0px"
	 viewBox="0 0 22.3 21.8" style="enable-background:new 0 0 22.3 21.8;" xml:space="preserve">
<style type="text/css">
	.st0{fill-rule:evenodd;clip-rule:evenodd;fill:#FFFFFF;}
</style>
<g>
	<g>
		<g>
			<g>
				<path class="st0" d="M20,8.6c-0.9-3.7-4-6.2-7.9-6.2c-0.5,0-1,0.1-1.5,0.2c-5.4,1.1-8.1,7-5.5,11.8c0.1,0.1,0.1,0.3,0.1,0.4
					c-0.4,1.2-0.7,2.5-1.1,3.8C4,18.6,4,18.6,4.2,18.6c1.3-0.4,2.6-0.7,3.9-1c0.1,0,0.2,0,0.3,0c1.7,0.9,3.4,1.1,5.3,0.7
					C18.1,17.5,21.1,12.9,20,8.6z M13.3,17c-0.4,0.1-0.7,0.1-0.9,0.1c-1.4,0-2.6-0.3-3.6-0.9c-0.2-0.1-0.3-0.1-0.4-0.1
					c-0.7,0.2-1.4,0.4-2.2,0.6c-0.1,0-0.2,0-0.1-0.1c0.2-0.7,0.4-1.3,0.6-2c0-0.2,0-0.3-0.1-0.5C5,11.6,5.1,8.7,6.7,6.5
					c1.7-2.3,4-3.2,6.8-2.6C16.3,4.4,18,6.2,18.7,9C19.6,12.7,17,16.4,13.3,17z"/>
			</g>
		</g>
		<g>
			<path class="st0" d="M14.2,14.3c-0.3,0-0.6,0-0.8-0.1c-1.8-0.5-3.2-1.7-4.4-3.2C8.6,10.4,8.2,9.8,8.1,9C7.9,8.2,8.2,7.4,8.8,6.9
				C9,6.7,9.6,6.6,9.9,6.7C10,6.8,10,6.8,10.1,6.9c0.2,0.6,0.5,1.1,0.7,1.7c0,0.1,0,0.2,0,0.3c-0.1,0.3-0.3,0.5-0.5,0.7
				c-0.2,0.1-0.2,0.3,0,0.4c0.7,1.1,1.6,1.9,2.8,2.4c0.2,0.1,0.3,0,0.4-0.1c0.2-0.2,0.4-0.5,0.6-0.8c0.1-0.2,0.3-0.2,0.4-0.1
				c0.4,0.2,0.8,0.4,1.2,0.5c0.1,0.1,0.2,0.1,0.3,0.1c0.4,0.2,0.4,0.2,0.4,0.6c-0.1,0.8-0.7,1.3-1.4,1.5
				C14.6,14.3,14.4,14.3,14.2,14.3z"/>
		</g>
	</g>
</g>
</svg>
