<?xml version="1.0" encoding="utf-8"?>
<!-- Generator: Adobe Illustrator 19.1.0, SVG Export Plug-In . SVG Version: 6.00 Build 0)  -->
<svg version="1.1" id="Layer_1" xmlns="http://www.w3.org/2000/svg" xmlns:xlink="http://www.w3.org/1999/xlink" x="0px" y="0px"
	 viewBox="0 0 22.3 21.8" style="enable-background:new 0 0 22.3 21.8;" xml:space="preserve">
<style type="text/css">
	.st0{fill:#FFFFFF;}
</style>
<path class="st0" d="M10.9,17.4c-4.1,0-7.4-3.3-7.4-7.4s3.3-7.4,7.4-7.4s7.4,3.3,7.4,7.4S15,17.4,10.9,17.4z M10.9,4
	C7.6,4,4.9,6.7,4.9,10s2.7,5.9,5.9,5.9s5.9-2.7,5.9-5.9S14.1,4,10.9,4z"/>
<path class="st0" d="M18.1,19.2c-0.2,0-0.4-0.1-0.5-0.2l-2.2-2.3c-0.3-0.3-0.3-0.8,0-1.1c0.3-0.3,0.8-0.3,1.1,0l2.2,2.3
	c0.3,0.3,0.3,0.8,0,1.1C18.5,19.2,18.3,19.2,18.1,19.2z"/>
</svg>
