<?xml version="1.0" encoding="utf-8"?>
<!-- Generator: Adobe Illustrator 19.1.0, SVG Export Plug-In . SVG Version: 6.00 Build 0)  -->
<svg version="1.1" id="Layer_1" xmlns="http://www.w3.org/2000/svg" xmlns:xlink="http://www.w3.org/1999/xlink" x="0px" y="0px"
	 viewBox="0 0 64.2 20.3" style="enable-background:new 0 0 64.2 20.3;" xml:space="preserve">
<style type="text/css">
	.st0{fill:#EE273D;}
	.st1{fill:#FFFFFF;}
</style>
<rect x="-1.5" y="-0.5" class="st0" width="67.3" height="21.3"/>
<g>
	<g>
		<path class="st1" d="M11.7,7.9c0-0.1,0.1-0.1,0.1-0.1h1.5c0.1,0,0.1,0,0.1,0.1l2.1,5.9c0,0.1,0,0.1-0.1,0.1h-1.5
			c-0.1,0-0.1,0-0.1-0.1l-0.3-0.9h-2l-0.3,0.9c0,0.1-0.1,0.1-0.1,0.1H9.7c-0.1,0-0.1,0-0.1-0.1L11.7,7.9z M13.1,11.6l-0.6-1.9h0
			L12,11.6H13.1z"/>
		<path class="st1" d="M16.5,10.9c0-0.8,0-1.2,0.2-1.7c0.3-1,1.2-1.5,2.3-1.5c1.1,0,1.9,0.5,2.2,1.3c0,0.1,0,0.1,0,0.1L20,9.7
			c-0.1,0-0.1,0-0.1,0c-0.2-0.3-0.5-0.5-0.9-0.5c-0.4,0-0.7,0.2-0.8,0.5c-0.1,0.2-0.1,0.5-0.1,1.2c0,0.7,0,1,0.1,1.2
			c0.1,0.3,0.4,0.5,0.8,0.5c0.4,0,0.7-0.2,0.8-0.5c0-0.1,0.1-0.2,0.1-0.4c0,0,0-0.1-0.1-0.1h-0.7c-0.1,0-0.1,0-0.1-0.1v-1
			c0-0.1,0-0.1,0.1-0.1h2.2c0.1,0,0.1,0,0.1,0.1v0.5c0,0.6,0,1-0.2,1.4c-0.3,1-1.2,1.6-2.3,1.6c-1.1,0-2-0.5-2.3-1.5
			C16.6,12.1,16.5,11.7,16.5,10.9z"/>
		<path class="st1" d="M23.3,12.6c-0.1-0.5-0.2-0.8-0.2-1.7c0-0.8,0-1.2,0.2-1.7c0.3-1,1.2-1.5,2.3-1.5c1.1,0,2,0.5,2.3,1.5
			C28,9.7,28,10.1,28,10.9c0,0.8,0,1.2-0.2,1.7c-0.3,1-1.2,1.5-2.3,1.5C24.5,14.1,23.6,13.6,23.3,12.6z M26.3,12.1
			c0.1-0.2,0.1-0.5,0.1-1.2c0-0.7,0-1-0.1-1.2c-0.1-0.3-0.4-0.5-0.8-0.5c-0.4,0-0.7,0.2-0.8,0.5c-0.1,0.2-0.1,0.5-0.1,1.2
			c0,0.7,0,1,0.1,1.2c0.1,0.3,0.4,0.5,0.8,0.5C26,12.6,26.2,12.5,26.3,12.1z"/>
		<path class="st1" d="M31,14L31,14C31,14,31,13.9,31,14C30.9,13.9,30.9,13.9,31,14L31,14l-0.1-4.7c0,0,0,0,0-0.1h0h-1.5h0
			c0,0,0,0,0,0l0,0c0,0,0,0,0,0c0,0,0,0,0-0.1V7.9c0,0,0-0.1,0.1-0.1h0h4.7c0,0,0,0,0.1,0c0,0,0,0,0,0c0,0,0,0,0,0v1.2
			c0,0,0,0.1,0,0.1c0,0,0,0,0,0h0h-1.5c0,0,0,0,0,0c0,0,0,0,0,0v0v4.6v0c0,0,0,0,0,0.1c0,0,0,0,0,0H31z"/>
		<path class="st1" d="M36.8,7.9c0-0.1,0.1-0.1,0.1-0.1h1.5c0.1,0,0.1,0,0.1,0.1l2.1,5.9c0,0.1,0,0.1-0.1,0.1H39
			c-0.1,0-0.1,0-0.1-0.1l-0.3-0.9h-2l-0.3,0.9c0,0.1-0.1,0.1-0.1,0.1h-1.5c-0.1,0-0.1,0-0.1-0.1L36.8,7.9z M38.2,11.6l-0.6-1.9h0
			L37,11.6H38.2z"/>
		<path class="st1" d="M42,7.9C42,7.9,42,7.8,42,7.9l2.5-0.1c1.1,0,1.9,0.4,2.2,1.4c0.1,0.4,0.2,0.7,0.2,1.7c0,0.9-0.1,1.3-0.2,1.7
			c-0.3,0.9-1.1,1.4-2.2,1.4h-2.4c-0.1,0-0.1,0-0.1-0.1V7.9z M43.6,12.6h0.5c0.6,0,0.9-0.2,1-0.6c0.1-0.2,0.1-0.4,0.1-1.1
			c0-0.7,0-0.9-0.1-1.1c-0.1-0.4-0.5-0.6-1-0.6h-0.5c0,0-0.1,0-0.1,0.1L43.6,12.6C43.6,12.5,43.6,12.6,43.6,12.6z"/>
		<path class="st1" d="M48.6,12.6c-0.1-0.5-0.2-0.8-0.2-1.7c0-0.8,0-1.2,0.2-1.7c0.3-1,1.2-1.5,2.3-1.5c1.1,0,2,0.5,2.3,1.5
			c0.2,0.5,0.2,0.8,0.2,1.7c0,0.8,0,1.2-0.2,1.7c-0.3,1-1.2,1.5-2.3,1.5C49.8,14.1,48.9,13.6,48.6,12.6z M51.7,12.1
			c0.1-0.2,0.1-0.5,0.1-1.2c0-0.7,0-1-0.1-1.2c-0.1-0.3-0.4-0.5-0.8-0.5c-0.4,0-0.7,0.2-0.8,0.5c-0.1,0.2-0.1,0.5-0.1,1.2
			c0,0.7,0,1,0.1,1.2c0.1,0.3,0.4,0.5,0.8,0.5C51.3,12.6,51.6,12.5,51.7,12.1z"/>
	</g>
</g>
</svg>
