<?xml version="1.0" encoding="utf-8"?>
<!-- Generator: Adobe Illustrator 19.1.0, SVG Export Plug-In . SVG Version: 6.00 Build 0)  -->
<svg version="1.1" id="Layer_1" xmlns="http://www.w3.org/2000/svg" xmlns:xlink="http://www.w3.org/1999/xlink" x="0px" y="0px"
	 viewBox="-270 361.6 70.4 70.4" style="enable-background:new -270 361.6 70.4 70.4;" xml:space="preserve">
<style type="text/css">
	.st0{fill:#626464;}
	.st1{fill:#4A5057;}
</style>
<rect x="-269.7" y="361.6" class="st0" width="70.4" height="70.4"/>
<g>
	<g>
		<path class="st1" d="M-246,396.1v-9.3h-6.2v9.3h-5.8v-23.5h5.8v9h6.2v-9h5.8v23.5H-246z"/>
		<path class="st1" d="M-222.3,393.7c-1.7,1.7-3.7,2.6-6.6,2.6c-2.9,0-4.9-0.9-6.6-2.6c-2.5-2.5-2.4-5.8-2.4-9.3s-0.1-6.8,2.4-9.3
			c1.7-1.7,3.7-2.6,6.6-2.6s4.9,0.9,6.6,2.6c2.5,2.5,2.4,5.8,2.4,9.3S-219.8,391.2-222.3,393.7z M-226.5,378.6c-0.4-0.6-1.3-1-2.3-1
			c-1.1,0-1.9,0.5-2.3,1c-0.5,0.7-0.9,1.5-0.9,5.8c0,4.3,0.3,5.1,0.9,5.8c0.4,0.6,1.3,1.1,2.3,1.1c1.1,0,1.9-0.5,2.3-1.1
			c0.5-0.7,0.9-1.5,0.9-5.8C-225.7,380-226,379.2-226.5,378.6z"/>
		<path class="st1" d="M-248.6,416.7c-2,2.1-4.3,2.6-6.8,2.6c-2.7,0-4.8-0.9-6.5-2.6c-2.5-2.5-2.4-5.8-2.4-9.3s-0.1-6.8,2.4-9.3
			c1.7-1.7,3.7-2.6,6.5-2.6c6.1,0,8.6,3.9,9.2,7.8h-5.8c-0.5-1.8-1.4-2.6-3.4-2.6c-1.1,0-1.9,0.5-2.3,1c-0.5,0.7-0.9,1.5-0.9,5.8
			c0,4.3,0.3,5.1,0.9,5.8c0.4,0.6,1.2,1,2.3,1c1.2,0,2-0.4,2.6-0.9c0.7-0.7,0.9-1.6,0.9-2.5v-0.3h-3.5v-5h9.2v3.3
			C-246.2,412.7-246.8,414.9-248.6,416.7z"/>
		<path class="st1" d="M-231,419.1l-1.1-3.5h-7.2l-1.2,3.5h-6.1l8.6-23.5h4.5l8.5,23.5H-231z M-235.6,404.5l-2.1,6.3h4.1
			L-235.6,404.5z"/>
		<path class="st1" d="M-212.3,419.1l-4.2-8.8h-2v8.8h-5.8v-23.5h9.3c5.2,0,8,3.7,8,7.6c0,3.2-2,5.2-3.8,6.2l5.1,9.8h-6.6V419.1z
			 M-215.2,400.8h-3.3v4.8h3.3c1.6,0,2.5-1.2,2.5-2.4C-212.6,401.9-213.6,400.8-215.2,400.8z"/>
	</g>
</g>
</svg>
