<?xml version="1.0" encoding="utf-8"?>
<!-- Generator: Adobe Illustrator 19.1.0, SVG Export Plug-In . SVG Version: 6.00 Build 0)  -->
<svg version="1.1" id="Layer_1" xmlns="http://www.w3.org/2000/svg" xmlns:xlink="http://www.w3.org/1999/xlink" x="0px" y="0px"
	 viewBox="0 0 64.2 20.3" style="enable-background:new 0 0 64.2 20.3;" xml:space="preserve">
<style type="text/css">
	.st0{fill:#4C1C5B;}
	.st1{fill:#FFFFFF;}
</style>
<rect x="-2.7" y="-0.9" class="st0" width="68.6" height="22.1"/>
<g>
	<g>
		<path class="st1" d="M12.2,12.6c-0.1-0.5-0.2-0.8-0.2-1.7c0-0.8,0-1.2,0.2-1.7c0.3-1,1.2-1.5,2.3-1.5c1.1,0,2,0.5,2.3,1.5
			C17,9.7,17,10.1,17,10.9c0,0.8,0,1.2-0.2,1.7c-0.3,1-1.2,1.5-2.3,1.5C13.4,14.1,12.6,13.6,12.2,12.6z M15.3,12.1
			c0.1-0.2,0.1-0.5,0.1-1.2c0-0.7,0-1-0.1-1.2c-0.1-0.3-0.4-0.5-0.8-0.5c-0.4,0-0.7,0.2-0.8,0.5c-0.1,0.2-0.1,0.5-0.1,1.2
			c0,0.7,0,1,0.1,1.2c0.1,0.3,0.4,0.5,0.8,0.5C14.9,12.6,15.2,12.5,15.3,12.1z"/>
		<path class="st1" d="M19.2,7.9C19.2,7.9,19.2,7.8,19.2,7.9l4.1-0.1c0.1,0,0.1,0,0.1,0.1v1.2c0,0.1,0,0.1-0.1,0.1h-2.5
			c0,0-0.1,0-0.1,0.1v1c0,0,0,0.1,0.1,0.1h2c0.1,0,0.1,0,0.1,0.1v1.1c0,0.1,0,0.1-0.1,0.1h-2c0,0-0.1,0-0.1,0.1v2.2
			c0,0.1,0,0.1-0.1,0.1h-1.4c-0.1,0-0.1,0-0.1-0.1V7.9z"/>
		<path class="st1" d="M25.5,7.9C25.5,7.9,25.6,7.8,25.5,7.9l4.1-0.1c0.1,0,0.1,0,0.1,0.1v1.2c0,0.1,0,0.1-0.1,0.1h-2.5
			c0,0-0.1,0-0.1,0.1v0.9c0,0,0,0.1,0.1,0.1h2c0.1,0,0.1,0,0.1,0.1v1.1c0,0.1,0,0.1-0.1,0.1h-2c0,0-0.1,0-0.1,0.1v1
			c0,0,0,0.1,0.1,0.1h2.5c0.1,0,0.1,0,0.1,0.1v1.2c0,0.1,0,0.1-0.1,0.1h-4c-0.1,0-0.1,0-0.1-0.1V7.9z"/>
		<path class="st1" d="M35.2,14c-0.1,0-0.1,0-0.1-0.1l-0.9-2.1h-0.6c0,0-0.1,0-0.1,0.1v2c0,0.1,0,0.1-0.1,0.1H32
			c-0.1,0-0.1,0-0.1-0.1V7.9c0-0.1,0-0.1,0.1-0.1h2.5c1.4,0,2.2,0.8,2.2,2c0,0.8-0.4,1.4-1,1.7l1.1,2.3c0,0.1,0,0.1-0.1,0.1H35.2z
			 M35.1,9.8c0-0.4-0.3-0.6-0.7-0.6h-0.8c0,0-0.1,0-0.1,0.1v1.2c0,0,0,0.1,0.1,0.1h0.8C34.8,10.5,35.1,10.2,35.1,9.8z"/>
		<path class="st1" d="M40.2,14L40.2,14C40.2,14,40.2,13.9,40.2,14C40.1,13.9,40.1,13.9,40.2,14L40.2,14l-0.1-4.7c0,0,0,0,0-0.1h0
			h-1.5h0c0,0,0,0,0,0l0,0c0,0,0,0,0,0c0,0,0,0,0-0.1V7.9c0,0,0-0.1,0.1-0.1h0h4.7c0,0,0,0,0.1,0c0,0,0,0,0,0c0,0,0,0,0,0v1.2
			c0,0,0,0.1,0,0.1c0,0,0,0,0,0h0h-1.5c0,0,0,0,0,0c0,0,0,0,0,0v0v4.6v0c0,0,0,0,0,0.1c0,0,0,0,0,0H40.2z"/>
		<path class="st1" d="M46.4,7.9c0-0.1,0.1-0.1,0.1-0.1H48c0.1,0,0.1,0,0.1,0.1l2.1,5.9c0,0.1,0,0.1-0.1,0.1h-1.5
			c-0.1,0-0.1,0-0.1-0.1l-0.3-0.9h-2L46,13.9c0,0.1-0.1,0.1-0.1,0.1h-1.5c-0.1,0-0.1,0-0.1-0.1L46.4,7.9z M47.8,11.6l-0.6-1.9h0
			l-0.6,1.9H47.8z"/>
	</g>
</g>
</svg>
