<?xml version="1.0" encoding="utf-8"?>
<!-- Generator: Adobe Illustrator 19.1.0, SVG Export Plug-In . SVG Version: 6.00 Build 0)  -->
<svg version="1.1" id="Layer_1" xmlns="http://www.w3.org/2000/svg" xmlns:xlink="http://www.w3.org/1999/xlink" x="0px" y="0px"
	 viewBox="0 0 70.4 70.4" style="enable-background:new 0 0 70.4 70.4;" xml:space="preserve">
<style type="text/css">
	.st0{fill:#35B0EF;}
	.st1{fill:#FFFFFF;}
</style>
<g>
	<rect  class="st0" width="70.4" height="70.4"/>
	<g>
		<path class="st1" d="M28.2,34.4V23.1l-3.3,5.8h-3.7l-3.3-5.8v11.2h-5.8V10.9h5.7L23,21.3l5.3-10.3h5.7v23.4H28.2z"/>
		<path class="st1" d="M51.7,31.9c-1.7,1.7-3.7,2.6-6.5,2.6c-2.9,0-4.8-0.9-6.5-2.6c-2.5-2.5-2.4-5.8-2.4-9.3c0-3.5-0.1-6.8,2.4-9.3
			c1.7-1.7,3.7-2.6,6.5-2.6c2.9,0,4.8,0.9,6.5,2.6c2.5,2.5,2.4,5.8,2.4,9.3C54.1,26.2,54.2,29.5,51.7,31.9z M47.5,16.9
			c-0.4-0.6-1.3-1-2.3-1c-1.1,0-1.9,0.5-2.3,1c-0.5,0.7-0.9,1.5-0.9,5.8s0.3,5,0.9,5.7c0.4,0.6,1.3,1.1,2.3,1.1
			c1.1,0,1.9-0.5,2.3-1.1c0.5-0.7,0.9-1.4,0.9-5.7S48,17.6,47.5,16.9z"/>
		<path class="st1" d="M32.8,55c-1.6,1.6-3.9,2.3-6.3,2.3h-8.7V33.8h8.7c2.4,0,4.7,0.7,6.3,2.3c2.7,2.7,2.4,5.7,2.4,9.4
			C35.2,49.2,35.5,52.2,32.8,55z M28.8,40.3C28.3,39.5,27.5,39,26,39h-2.5v13.2H26c1.4,0,2.2-0.5,2.8-1.3c0.5-0.7,0.6-1.3,0.6-5.3
			C29.4,41.6,29.3,40.9,28.8,40.3z"/>
		<path class="st1" d="M50.3,57.3l-1.1-3.5H42l-1.2,3.5h-6l8.5-23.4h4.4l8.5,23.4H50.3z M45.7,42.7L43.6,49h4.1L45.7,42.7z"/>
	</g>
</g>
</svg>
