<?xml version="1.0" encoding="utf-8"?>
<!-- Generator: Adobe Illustrator 24.0.0, SVG Export Plug-In . SVG Version: 6.00 Build 0)  -->
<svg version="1.1" xmlns="http://www.w3.org/2000/svg" xmlns:xlink="http://www.w3.org/1999/xlink" x="0px" y="0px"
	 viewBox="0 0 145.21 145.21" style="enable-background:new 0 0 145.21 145.21;" xml:space="preserve">
<style type="text/css">
	.st0{display:none;}
	.st1{display:inline;}
	.st2{fill:#757575;}
	.st3{fill:#00B0EF;}
</style>
<g id="Layer_1" class="st0">
	<g class="st1">
		<g>
			<path class="st2" d="M52.24,113.78v-10.81h1.97v4.7l2.13-4.7h1.88l-2.07,4.84l2.28,5.97h-1.96l-1.87-5.09l-0.39,0.7v4.38H52.24z"
				/>
			<path class="st2" d="M59.99,113.78v-10.81h4.53v1.39h-2.56v3.1h2.02v1.39h-2.02v3.57h2.59v1.36H59.99z"/>
			<path class="st2" d="M67.41,113.78v-9.36h-1.81v-1.45h5.54v1.45h-1.75v9.36H67.41z"/>
			<path class="st2" d="M73.72,113.78v-9.36H71.9v-1.45h5.54v1.45h-1.75v9.36H73.72z"/>
			<path class="st2" d="M78.97,113.78v-10.81h4.53v1.39h-2.56v3.1h2.02v1.39h-2.02v3.57h2.59v1.36H78.97z"/>
			<path class="st2" d="M85.33,113.78v-10.81h1.36l2.65,6.12v-6.12h1.63v10.81h-1.29L87,107.34v6.44H85.33z"/>
		</g>
		<g transform="translate(0,-952.36218)">
			<path class="st3" d="M64.02,983.79c-2.97,0-5.33,2.29-5.67,5.03c-1.82,0.07-3.79,0.44-5.47,1.3c-1.9,0.97-3.47,2.6-3.86,4.98
				l-7.15,42.17c-0.07,0.39,0.18,0.76,0.57,0.84c0.05,0.01,0.1,0.01,0.15,0.01h7.86c0.34,0,0.63-0.25,0.69-0.58l4.85-24.88
				l3.04,24.82c0.03,0.37,0.34,0.65,0.71,0.65h25.73c0.37,0,0.68-0.28,0.71-0.65l3.04-24.82l4.85,24.88
				c0.06,0.33,0.35,0.58,0.69,0.58h7.86c0.39,0.01,0.72-0.31,0.73-0.7c0-0.05,0-0.1-0.01-0.15l-7.15-42.17
				c-0.4-2.38-1.97-4.02-3.86-4.98c-1.69-0.86-3.65-1.22-5.47-1.3c-0.35-2.74-2.7-5.03-5.67-5.03H64.02z M64.02,985.22h17.16
				c2.29,0,4.02,1.82,4.22,3.91c-3.17,1.53-6.1,3.38-8.4,5.16c-1.36,1.05-2.44,2.03-3.33,2.93c0.23-0.89,0.57-1.81,1.01-2.73
				c0.86-1.78,2.06-3.43,3.35-4.4c0.32-0.23,0.39-0.68,0.16-1c-0.14-0.19-0.36-0.3-0.59-0.3H67.6c-0.39,0-0.72,0.31-0.72,0.71
				c0,0.23,0.11,0.45,0.3,0.59c1.29,0.97,2.49,2.63,3.35,4.4c0.44,0.91,0.77,1.84,1.01,2.73c-0.89-0.9-1.97-1.87-3.33-2.93
				c-2.3-1.78-5.23-3.64-8.4-5.16C60,987.04,61.74,985.22,64.02,985.22z M58.89,990.22c3.2,1.5,6.13,3.42,8.44,5.2
				c2.25,1.74,3.88,3.4,4.56,4.36v36.9h-11.5l-3.51-28.68c-0.05-0.39-0.41-0.67-0.8-0.62c-0.3,0.04-0.54,0.26-0.61,0.55l-5.61,28.75
				h-6.43l7.01-41.35c0.32-1.9,1.47-3.13,3.08-3.95C55.1,990.58,57.09,990.24,58.89,990.22z M69.3,990.22h6.61
				c-0.98,1.06-1.87,2.28-2.52,3.64c-0.33,0.69-0.55,1.38-0.78,2.08c-0.23-0.7-0.45-1.39-0.78-2.08
				C71.17,992.51,70.28,991.29,69.3,990.22z M86.32,990.22c1.79,0.02,3.79,0.36,5.36,1.16c1.61,0.82,2.77,2.05,3.08,3.95l7.01,41.35
				h-6.43l-5.61-28.75c-0.09-0.39-0.47-0.63-0.85-0.54c-0.3,0.07-0.52,0.31-0.55,0.61l-3.51,28.68h-11.5v-36.93
				c0.68-0.96,2.31-2.6,4.56-4.33C80.19,993.64,83.12,991.72,86.32,990.22z M77.47,1003.81c-0.39,0.04-0.68,0.39-0.65,0.78
				c0.04,0.39,0.39,0.68,0.78,0.65h7.15c0.39,0.01,0.72-0.31,0.72-0.7c0.01-0.39-0.31-0.72-0.7-0.72c-0.01,0-0.01,0-0.02,0h-7.15
				C77.56,1003.8,77.52,1003.8,77.47,1003.81z M66.1,1021.65c-0.31,0.03-0.57,0.27-0.63,0.58c-0.66,3.03-1.18,4.49-3.4,6.81
				c-0.3,0.26-0.34,0.71-0.08,1.01c0.26,0.3,0.71,0.34,1.01,0.08c0.04-0.03,0.07-0.07,0.1-0.11c2.35-2.47,3.07-4.41,3.75-7.51
				c0.09-0.38-0.15-0.77-0.54-0.86C66.25,1021.65,66.18,1021.65,66.1,1021.65z M78.95,1021.65c-0.39,0.05-0.67,0.41-0.62,0.8
				c0,0.02,0.01,0.05,0.01,0.07c0.68,3.1,1.4,5.04,3.75,7.51c0.24,0.31,0.69,0.37,1,0.13c0.31-0.24,0.37-0.69,0.13-1
				c-0.03-0.04-0.07-0.08-0.1-0.11c-2.21-2.32-2.73-3.79-3.4-6.81C79.66,1021.87,79.32,1021.61,78.95,1021.65z"/>
		</g>
	</g>
</g>
<g id="Layer_2" class="st0">
	<g class="st1">
		<g>
			<path class="st2" d="M50.37,113.7v-10.81h2.65c0.5,0,0.94,0.04,1.31,0.13c0.37,0.09,0.7,0.24,0.99,0.44
				c0.29,0.21,0.51,0.49,0.66,0.86s0.22,0.81,0.22,1.32c0,1.33-0.53,2.08-1.59,2.24c0.64,0.12,1.12,0.4,1.43,0.84
				c0.31,0.44,0.47,1.05,0.48,1.84c0,1.03-0.25,1.81-0.77,2.34c-0.52,0.53-1.27,0.8-2.26,0.8H50.37z M52.34,107.3h0.61
				c0.58,0,0.98-0.12,1.19-0.37c0.22-0.25,0.33-0.67,0.33-1.25c0-0.3-0.04-0.55-0.11-0.74c-0.07-0.19-0.19-0.33-0.36-0.43
				c-0.17-0.1-0.36-0.16-0.56-0.19s-0.48-0.05-0.82-0.05h-0.27V107.3z M52.34,112.31h0.72c0.59,0,0.99-0.14,1.22-0.41
				c0.23-0.27,0.34-0.73,0.34-1.36c0-0.65-0.13-1.13-0.38-1.42c-0.25-0.29-0.68-0.44-1.28-0.44h-0.62V112.31z"/>
			<path class="st2" d="M57.88,113.7l2.2-10.81h2.05l2.19,10.81h-1.83l-0.44-2.51h-1.87l-0.44,2.51H57.88z M60.39,109.9h1.45
				l-0.72-4.44L60.39,109.9z"/>
			<path class="st2" d="M66.73,113.7v-9.36h-1.81v-1.45h5.54v1.45H68.7v9.36H66.73z"/>
			<path class="st2" d="M72.04,113.7v-10.81h1.94v10.81H72.04z"/>
			<path class="st2" d="M79.04,113.83c-1.9,0-2.9-1.1-3-3.3l1.71-0.36c0.04,1.43,0.45,2.15,1.23,2.15c0.3,0,0.52-0.09,0.67-0.27
				s0.22-0.43,0.22-0.74c0-0.3-0.05-0.58-0.16-0.83s-0.23-0.45-0.38-0.61c-0.14-0.16-0.35-0.36-0.61-0.59l-1.42-1.23
				c-0.42-0.37-0.73-0.74-0.93-1.14s-0.31-0.89-0.31-1.48c0-0.84,0.25-1.49,0.74-1.96c0.49-0.47,1.17-0.7,2.03-0.71
				c0.4,0,0.75,0.04,1.05,0.15c0.3,0.1,0.55,0.24,0.75,0.41c0.2,0.17,0.36,0.39,0.5,0.64c0.13,0.26,0.23,0.52,0.3,0.8
				c0.07,0.28,0.11,0.58,0.14,0.92l-1.68,0.33c-0.01-0.22-0.02-0.41-0.04-0.57c-0.02-0.16-0.05-0.32-0.1-0.49
				c-0.05-0.17-0.11-0.3-0.19-0.4c-0.08-0.1-0.18-0.18-0.31-0.25c-0.13-0.06-0.28-0.08-0.45-0.07c-0.29,0.02-0.51,0.11-0.67,0.29
				c-0.16,0.18-0.23,0.41-0.23,0.71c0,0.35,0.07,0.63,0.21,0.86c0.14,0.22,0.35,0.46,0.64,0.72l1.41,1.23
				c0.23,0.21,0.44,0.42,0.61,0.62c0.17,0.2,0.34,0.43,0.5,0.69c0.16,0.26,0.28,0.54,0.36,0.85c0.08,0.31,0.12,0.63,0.12,0.98
				c0,0.79-0.25,1.43-0.75,1.92C80.51,113.59,79.85,113.83,79.04,113.83z"/>
			<path class="st2" d="M84.63,113.7v-9.36h-1.81v-1.45h5.54v1.45H86.6v9.36H84.63z"/>
			<path class="st2" d="M89.27,113.7l2.2-10.81h2.05l2.19,10.81h-1.83l-0.44-2.51h-1.87l-0.44,2.51H89.27z M91.78,109.9h1.45
				l-0.72-4.44L91.78,109.9z"/>
		</g>
		<path class="st3" d="M96.07,49.41c-2.05,0-3.72,1.67-3.72,3.72c0,1.35,0.72,2.52,1.79,3.18v2.05H51.07V56.3
			c1.07-0.65,1.79-1.83,1.79-3.18c0-2.05-1.67-3.72-3.72-3.72c-2.06,0-3.72,1.67-3.72,3.72c0,1.35,0.72,2.52,1.79,3.18v28.52
			c0,0.32,0.26,0.57,0.57,0.57h2.72c0.32,0,0.57-0.26,0.57-0.57v-4.44h43.07v4.44c0,0.32,0.26,0.57,0.57,0.57h2.72
			c0.32,0,0.57-0.26,0.57-0.57V56.3c1.07-0.65,1.79-1.83,1.79-3.18C99.79,51.07,98.13,49.41,96.07,49.41z M56.68,74.66h-5.62V64.07
			h5.62V74.66z M69.17,74.66h-5.62V64.07h5.62V74.66z M81.65,74.66h-5.62V64.07h5.62V74.66z M94.14,74.66h-5.62V64.07h5.62V74.66z"
			/>
		<path class="st3" d="M58.61,50.72h5.6c1.78,0,2.33-2.69,0.42-2.99c0.65-1.24-0.74-2.67-2.21-1.81c-0.74-2.3-4.44-1.61-4.13,0.9
			C55.82,47.27,56.38,50.72,58.61,50.72z"/>
		<path class="st3" d="M84.55,43.92c-0.09-0.27-0.13-0.4-0.31-0.4c-0.18,0-0.23,0.13-0.31,0.4l-0.82,2.54l-2.67-0.01
			c-0.28,0-0.42,0-0.48,0.17c-0.06,0.17,0.06,0.26,0.28,0.42l2.17,1.57l-0.83,2.54c-0.09,0.27-0.13,0.4,0.02,0.51
			c0.15,0.11,0.26,0.02,0.49-0.14l2.16-1.57l2.16,1.57c0.23,0.16,0.34,0.25,0.49,0.14c0.15-0.11,0.1-0.24,0.02-0.51l-0.83-2.54
			l2.17-1.57c0.23-0.16,0.34-0.25,0.28-0.42c-0.06-0.17-0.19-0.17-0.47-0.17l-2.67,0.01L84.55,43.92z"/>
		<path class="st3" d="M74.68,43.61c0.21-0.15,0.28-0.27,0.15-0.28c-0.08,0-0.16-0.01-0.24-0.01c-2.37,0-4.29,1.92-4.29,4.29
			c0,2.37,1.92,4.29,4.29,4.29c0.08,0,0.16,0,0.24-0.01c0.13-0.01,0.06-0.13-0.15-0.28c-1.24-0.9-2.04-2.36-2.04-4.01
			C72.64,45.97,73.45,44.51,74.68,43.61z"/>
		<path class="st3" d="M60.63,36.55v5.13c0,0.32,0.26,0.57,0.57,0.57c0.32,0,0.57-0.26,0.57-0.57v-5.6
			c2.97-1.49,6.56-2.33,10.26-2.4v7.43c0,0.32,0.26,0.57,0.57,0.57s0.57-0.26,0.57-0.57v-7.42c3.82,0.1,7.5,1.02,10.49,2.64v5.36
			c0,0.32,0.26,0.57,0.57,0.57c0.31,0,0.57-0.26,0.57-0.57v-5.01c0.33-0.05,0.64-0.24,0.83-0.56c0.31-0.55,0.12-1.25-0.43-1.56
			c-3.58-2.05-8.1-3.17-12.73-3.17c-4.58,0-8.89,1.05-12.48,3.03c-0.55,0.31-0.75,1-0.45,1.56C59.78,36.36,60.2,36.57,60.63,36.55z"
			/>
	</g>
</g>
<g id="Layer_3">
	<g>
		<g>
			<path class="st2" d="M63.9,112.62v-1.38c0.58,0,0.96-0.08,1.15-0.26c0.19-0.18,0.29-0.55,0.29-1.1v-8.29h1.97l-0.01,8.34
				c0,0.47-0.04,0.87-0.12,1.2c-0.08,0.32-0.21,0.6-0.39,0.83c-0.18,0.23-0.44,0.4-0.76,0.51c-0.32,0.11-0.72,0.16-1.19,0.16H63.9z"
				/>
			<path class="st2" d="M69.61,112.39v-10.81h4.53v1.39h-2.56v3.1h2.02v1.39h-2.02v3.57h2.59v1.36H69.61z"/>
			<path class="st2" d="M75.41,112.39l2.2-10.81h2.05l2.19,10.81h-1.83l-0.44-2.51h-1.87l-0.44,2.51H75.41z M77.92,108.59h1.45
				l-0.72-4.44L77.92,108.59z"/>
			<path class="st2" d="M83.58,112.39v-10.81h1.36l2.65,6.12v-6.12h1.63v10.81h-1.29l-2.67-6.44v6.44H83.58z"/>
		</g>
		<rect x="82.26" y="43.18" class="st3" width="1.06" height="2.12"/>
		<rect x="82.26" y="38.94" class="st3" width="1.06" height="2.12"/>
		<path class="st3" d="M82.26,48.41c0,0.31-0.05,0.62-0.15,0.92l1,0.34c0.14-0.41,0.21-0.83,0.21-1.26v-1.01h-1.06V48.41z"/>
		<path class="st3" d="M94.01,32.59H64.84v4.97l-3.36,8.56l0.49,13.58l-4.57-5.67l-9.56,7.76l14.92,20.28v0.34h15.19l0.53-5.51
			l2.36,5.12l0.04,0.39h15.17l1.32-36.19V46.1l-3.35-8.54V32.59z M90.22,38.19h2.89l2.92,7.45c-3.31-0.36-5.82-3.16-5.82-6.49
			L90.22,38.19z M87.73,33.65h5.22v3.48h-5.22V33.65z M85.09,33.65h1.59v5.05h-1.59V33.65z M84.03,37.13h-4.08v-3.48h4.08V37.13z
			 M74.76,33.65h4.13v3.48h-4.13V33.65z M72.11,33.65h1.59v5.05h-1.59V33.65z M65.9,33.65h5.16v3.48H65.9V33.65z M68.54,38.19v0.96
			c0,3.3-2.46,6.07-5.74,6.48l2.92-7.41L68.54,38.19z M51.23,64.59l1.27-0.97l-0.65-0.84l-1.25,0.96l-1.3-1.76l7.94-6.46l4.79,5.94
			l0.68,18.73L51.23,64.59z M63.82,81.36l-1.26-34.65c3.96-0.29,7.03-3.58,7.04-7.56v-0.96h1.46v1.59h3.7v-1.59h4.13v23.67
			l-1.89,19.5H63.82z M78.69,74.82l0.72-7.47l1.12,11.47L78.69,74.82z M95.03,81.36H81.84l-1.89-19.5V52.3
			c0.63-0.09,1.24-0.32,1.76-0.7l-0.62-0.86c-0.33,0.24-0.71,0.4-1.12,0.48V38.19h4.08v1.59h3.7v-1.59h1.43v0.96
			c0,4,3.11,7.31,7.1,7.57L95.03,81.36z"/>
		
			<rect x="53.64" y="60.73" transform="matrix(0.7929 -0.6093 0.6093 0.7929 -26 46.0096)" class="st3" width="2.12" height="1.06"/>
		
			<rect x="57" y="58.15" transform="matrix(0.7929 -0.6093 0.6093 0.7929 -23.733 47.5251)" class="st3" width="2.12" height="1.06"/>
	</g>
</g>
</svg>
